<svg width="1111" height="358" viewBox="0 0 1111 358" fill="none" xmlns="http://www.w3.org/2000/svg">
<path d="M990.959 182.755L933.795 149.751L1008.26 106.736L1065.43 139.739L990.959 182.755Z" fill="#A5A5A5"/>
<path d="M937.976 52.2523L940.589 42.9539L1009.26 3.30656V11.0953L937.976 52.2523Z" fill="#BABABA"/>
<path d="M950.734 59.6147L953.347 50.3176L1022.02 10.6703V18.459L950.734 59.6147Z" fill="#BABABA"/>
<path d="M1060.78 111.669L1060.25 111.98L1060.78 112.287H1060.78V124.401L1060.25 124.708L1060.78 125.016H1060.78V138.713L1038.54 151.555L1027.52 157.921L989.499 179.87V102.324L1060.78 61.1668V111.669Z" fill="#D8D8D8"/>
<path d="M937.976 150.122L989.499 179.868V93.8094L937.976 64.0621V150.122Z" fill="#BEBEBE"/>
<path d="M937.977 52.251L989.5 81.9971V93.8091L937.977 64.0618V52.251Z" fill="#C7C7C7"/>
<path d="M946.292 86.5257L981.184 106.669V112.226L946.292 92.0811V86.5257Z" fill="#9F9F9F"/>
<path d="M946.292 99.2229L981.184 119.368V124.923L946.292 104.78V99.2229Z" fill="#9F9F9F"/>
<path d="M946.292 115.825L981.184 135.968V146.24L946.292 126.096V115.825Z" fill="#9F9F9F"/>
<path d="M1060.78 125.013V125.016L1015.66 151.069L989.499 166.17V165.553L1060.25 124.706H1060.25L1060.78 125.013H1060.78Z" fill="#A7A7A7"/>
<path d="M1060.78 112.287L1015.66 138.34L1015.66 138.342L989.499 153.444V152.826L1060.25 111.979L1060.78 112.287Z" fill="#A7A7A7"/>
<path d="M989.499 165.554V166.17L987.157 164.819V164.202L989.499 165.554Z" fill="#A7A7A7"/>
<path d="M986.623 178.209L987.158 178.518V151.476L986.623 151.168V178.209Z" fill="#A7A7A7"/>
<path d="M980.129 174.458L980.663 174.767V159.098L980.129 158.789V174.458Z" fill="#A7A7A7"/>
<path d="M946.813 155.223L947.348 155.532V139.862L946.813 139.553V155.223Z" fill="#A7A7A7"/>
<path d="M989.5 152.826V153.444L987.158 152.092V151.475L989.5 152.826Z" fill="#A7A7A7"/>
<path d="M980.129 158.79V159.408L946.813 140.173V139.555L980.129 158.79Z" fill="#A7A7A7"/>
<path d="M1060.78 52.6534L989.499 93.8104V102.323L1060.78 61.167V52.6534Z" fill="#C7C7C7"/>
<path d="M1029.59 58.8502L1032.2 49.5531L1060.78 33.0527V52.6521L989.499 93.8091V81.9971L1029.59 58.8502Z" fill="#D8D8D8"/>
<path d="M990.825 36.4683L1022.02 18.4582V10.6695L993.438 27.1699L990.825 36.4683Z" fill="#D8D8D8"/>
<path d="M967.259 110.183L981.184 109.994V112.226L966.89 111.79L967.259 110.183Z" fill="#535459"/>
<path d="M946.292 89.849L981.184 109.993L967.26 110.182L932.368 90.0384L946.292 89.849Z" fill="#535459"/>
<path d="M932 91.6417L966.891 111.787L967.259 110.18L932.368 90.0361L932 91.6417Z" fill="#47484E"/>
<path d="M967.259 122.882L981.184 122.692V124.923L966.89 124.487L967.259 122.882Z" fill="#535459"/>
<path d="M946.292 102.547L981.184 122.692L967.259 122.881L932.367 102.736L946.292 102.547Z" fill="#535459"/>
<path d="M932 104.343L966.891 124.487L967.259 122.881L932.368 102.736L932 104.343Z" fill="#47484E"/>
<path d="M967.26 144.198L981.184 144.009V146.24L966.891 145.804L967.26 144.198Z" fill="#535459"/>
<path d="M946.292 123.866L981.184 144.011L967.26 144.201L932.368 124.055L946.292 123.866Z" fill="#535459"/>
<path d="M932 125.66L966.89 145.804L967.259 144.199L932.367 124.054L932 125.66Z" fill="#47484E"/>
<path d="M940.59 42.9524L953.347 50.3176L950.734 59.6147L937.977 52.2508L940.59 42.9524Z" fill="#D8D8D8"/>
<path d="M1022.02 10.6744L1009.26 3.30922L940.59 42.9565L953.347 50.3217L993.438 27.1761L1032.2 49.5569L1060.78 33.0565L1022.02 10.6744Z" fill="#E4E4E4"/>
<path d="M993.438 27.1709L1032.2 49.553L1029.59 58.8501L990.825 36.4692L993.438 27.1709Z" fill="#C7C7C7"/>
<path d="M950.734 59.6115L989.5 81.9937L1029.59 58.8467L990.825 36.4659L950.734 59.6115Z" fill="#E0E0E0"/>
<path d="M1022.35 54.6692L990.825 36.4711L958.379 55.2024L989.902 73.4017L1022.35 54.6692Z" fill="#C7C7C7"/>
<path d="M958.379 55.2028L993.504 41.2035L990.825 36.4715L958.379 55.2028Z" fill="#BABABA"/>
<path d="M993.504 41.2028L1019.64 56.231L1022.35 54.669L990.825 36.4708L993.504 41.2028Z" fill="#9D9D9D"/>
<path d="M958.379 55.2028L982.873 41.0616L974.913 37.8691L964.962 43.6138L958.379 54.0905V55.2028Z" fill="#9B9B9E"/>
<path d="M964.962 43.6138L974.914 37.8691L974.194 38.2852L962.745 42.4778L964.962 43.6138Z" fill="#BEBEC2"/>
<path d="M989.902 73.4017L1020.07 55.9846L1019.64 56.2312L989.902 73.4017Z" fill="#BABABF"/>
<path d="M989.902 73.4017L1019.64 56.2312L1017.24 54.8498L988.348 43.2583L958.379 55.2023L978.762 66.9707L984.016 70.0037L989.902 66.9869L999.774 63.432L989.902 73.4017Z" fill="#A5A5A9"/>
<path d="M958.379 55.2028L988.348 43.2588L982.873 41.0616L958.379 55.2028Z" fill="#9B9B9E"/>
<path d="M1019.64 56.231L1020.07 55.9843L1017.24 54.8496L1019.64 56.231Z" fill="#838386"/>
<path d="M965.84 37.3832V39.7112L997.362 57.9106V55.5826L965.84 37.3832Z" fill="#747474"/>
<path d="M997.363 55.5826V57.9106L1020.07 55.9849L1022.35 54.6696V53.4638L997.363 55.5826Z" fill="#8E8E8E"/>
<path d="M965.84 37.3822L997.363 55.5815L1022.35 53.4628L990.825 35.2634L965.84 37.3822Z" fill="#9C9C9C"/>
<path d="M1027.63 60.6516V71.7935L1060.78 52.6524V41.5105L1027.63 60.6516Z" fill="#BEBEBE"/>
<path d="M1035.69 62.816L1027.63 60.6536V71.7955L1035.69 76.4478V62.816Z" fill="#9F9F9F"/>
<path d="M1029.8 58.9912L1034.32 77.0486L1037.19 77.314L1065.82 40.1167L1062.95 39.8502L1029.8 58.9912Z" fill="#8E8E8E"/>
<path d="M1032.67 59.2578L1037.19 77.314L1070.34 58.1729L1065.82 40.1154L1032.67 59.2578Z" fill="#9C9C9C"/>
<path d="M1049.67 51.6781L1053.21 65.8256L1067.81 57.3979L1064.27 43.2516L1049.67 51.6781Z" fill="#595FFF"/>
<path d="M1032.67 59.2578L1029.8 58.9912L1034.32 77.0486L1037.19 77.314L1032.67 59.2578Z" fill="#747474"/>
<path d="M1043.32 68.0745L1042.16 68.7409C1041.8 68.9427 1041.42 68.7285 1041.3 68.2639L1041.02 67.1727C1040.89 66.7069 1041.08 66.1663 1041.43 65.9645L1042.6 65.2981C1042.95 65.0963 1043.33 65.3106 1043.45 65.7764L1043.74 66.8663C1043.86 67.3322 1043.67 67.8727 1043.32 68.0745Z" fill="#CECECE"/>
<path d="M1037.74 62.5601L1036.58 63.2265C1036.23 63.4283 1035.85 63.214 1035.72 62.7494L1035.44 61.6583C1035.32 61.1924 1035.51 60.6518 1035.86 60.45L1037.02 59.7836C1037.37 59.5818 1037.76 59.7961 1037.88 60.262L1038.16 61.3518C1038.28 61.8177 1038.09 62.3583 1037.74 62.5601Z" fill="#CECECE"/>
<path d="M1041.23 60.5628L1040.07 61.2292C1039.72 61.431 1039.34 61.2168 1039.21 60.7509L1038.93 59.661C1038.81 59.1952 1039 58.6546 1039.35 58.4528L1040.51 57.7864C1040.86 57.5846 1041.25 57.7989 1041.37 58.2635L1041.65 59.3546C1041.77 59.8205 1041.59 60.361 1041.23 60.5628Z" fill="#CECECE"/>
<path d="M1044.72 58.5617L1043.56 59.2281C1043.21 59.4299 1042.82 59.2156 1042.7 58.7498L1042.42 57.6599C1042.3 57.194 1042.49 56.6534 1042.84 56.4516L1044 55.784C1044.35 55.5835 1044.74 55.7965 1044.86 56.2623L1045.14 57.3534C1045.26 57.8181 1045.08 58.3599 1044.72 58.5617Z" fill="#CECECE"/>
<path d="M1042.52 64.5355L1041.15 65.3252C1040.83 65.5071 1040.53 65.2231 1040.61 64.817L1040.96 63.1342C1041.05 62.7444 1041.43 62.5264 1041.66 62.7332L1042.69 63.6287C1042.93 63.843 1042.84 64.3537 1042.52 64.5355Z" fill="#CECECE"/>
<path d="M1042.23 69.4869L1043.6 68.6984C1043.92 68.5153 1044.22 68.8006 1044.14 69.2054L1043.78 70.8894C1043.7 71.2793 1043.32 71.4973 1043.08 71.2893L1042.06 70.3949C1041.82 70.1795 1041.91 69.67 1042.23 69.4869Z" fill="#CECECE"/>
<path d="M1040.35 67.2689L1040.75 68.8371C1040.85 69.2008 1040.56 69.6243 1040.24 69.5906L1038.9 69.4561C1038.59 69.425 1038.48 68.9915 1038.69 68.6602L1039.62 67.2278C1039.84 66.8827 1040.25 66.9064 1040.35 67.2689Z" fill="#CECECE"/>
<path d="M1044.4 66.7492L1044 65.181C1043.9 64.8185 1044.19 64.395 1044.51 64.4274L1045.85 64.5632C1046.16 64.5943 1046.27 65.0265 1046.06 65.3591L1045.13 66.7915C1044.9 67.1353 1044.5 67.1116 1044.4 66.7492Z" fill="#CECECE"/>
<path d="M1079.31 187.62C1087.41 187.62 1095.51 185.831 1101.71 182.255C1114.04 175.133 1114.11 163.622 1101.85 156.546C1100 155.48 1097.98 154.575 1095.84 153.832C1095.45 158.995 1095.02 163.555 1094.63 164.07C1094.52 164.224 1094.35 164.367 1094.14 164.496C1094.15 164.544 1094.16 164.59 1094.17 164.636C1094.43 165.164 1094.63 165.645 1094.67 165.967C1094.74 166.425 1094.93 167.162 1095.04 167.927C1095.17 168.64 1095.45 169.693 1095.36 170.241C1095.25 170.856 1095.38 171.539 1092.42 172.347C1091.69 172.547 1091.05 172.626 1090.49 172.626C1088.78 172.626 1087.83 171.883 1087.41 171.539C1086.84 171.083 1084.97 167.173 1084.97 167.173L1084.52 166.726C1082.94 167.629 1080 168.413 1078.33 168.413C1078.09 168.413 1077.88 168.398 1077.71 168.364C1076.82 168.2 1075.9 167.853 1075.16 167.527L1074.63 167.569C1074.63 167.556 1074.62 167.455 1074.61 167.274C1074.04 167 1073.66 166.787 1073.66 166.787C1073.66 166.787 1072.84 160.304 1071.59 151.871C1066.37 152.671 1061.42 154.255 1057.32 156.625C1044.98 163.748 1044.92 175.258 1057.18 182.336C1063.28 185.86 1071.29 187.62 1079.31 187.62Z" fill="#838997"/>
<path d="M1062.37 167.755C1062.37 167.755 1060.86 168.364 1060.4 169.362C1059.93 170.359 1060.35 171.969 1060.88 172.895C1061.41 173.823 1064.52 174.861 1064.93 174.938C1065.34 175.014 1072.44 176.903 1072.44 176.903C1072.44 176.903 1079.27 179.029 1080.79 178.952C1082.32 178.874 1084.77 177.603 1084.4 176.921C1084.02 176.239 1083.6 173.044 1083.6 173.044L1076.94 170.347L1062.37 167.755Z" fill="#323142"/>
<path d="M1095 167.686L1095.04 167.918C1095.17 168.63 1095.45 169.692 1095.36 170.242C1095.25 170.857 1095.38 171.54 1092.42 172.348C1089.46 173.157 1087.97 171.996 1087.41 171.54C1086.84 171.084 1084.97 167.174 1084.97 167.174L1083.07 165.269C1083.07 165.269 1079.23 162.765 1078.57 161.154C1077.91 159.544 1077.96 157.672 1077.96 157.672L1081.65 156.927L1095 167.686Z" fill="#323142"/>
<path d="M1092.65 161.956C1093.18 162.839 1094.55 165.05 1094.67 165.967C1094.8 166.882 1095.44 168.929 1094.95 170.064C1094.46 171.198 1091.16 171.921 1089.08 170.873C1087 169.827 1084.69 165.144 1084.69 165.144C1084.69 165.144 1079.11 160.978 1078.7 160.434C1078.3 159.89 1078.98 156.66 1078.98 156.66L1083.13 156.754L1089.17 160.39L1092.65 161.956Z" fill="#ABABAB"/>
<path d="M1075.24 166.246C1073.34 166.509 1064.27 166.01 1063.42 166.169C1062.58 166.327 1060.9 168.226 1060.9 168.226L1061.04 170.674L1062.92 173.149C1062.92 173.149 1070.07 175.431 1071.11 175.588C1072.15 175.744 1078.61 177.653 1080.09 177.716C1081.57 177.779 1083.16 177.291 1084.02 176.24C1084.88 175.188 1084.42 170.43 1083.76 169.03C1083.1 167.63 1080.03 167.137 1080.03 167.137L1075.24 166.246Z" fill="#ABABAB"/>
<mask id="mask0_542_132" style="mask-type:luminance" maskUnits="userSpaceOnUse" x="1070" y="160" width="14" height="15">
<path d="M1082.2 161.087C1081.74 163.085 1083.12 169.23 1083.65 171.624C1084.18 174.018 1082.12 174.103 1080.68 174.235C1079.23 174.368 1076.57 174.001 1074.49 172.889C1072.4 171.776 1070.91 170.615 1070.31 169.214C1069.72 167.812 1070.79 167.13 1070.79 167.13C1070.79 167.13 1073.49 167.092 1074.13 166.469C1074.78 165.845 1074.4 160.695 1074.4 160.695L1082.2 161.087Z" fill="white"/>
</mask>
<g mask="url(#mask0_542_132)">
<path d="M1082.2 161.087C1081.74 163.085 1083.12 169.23 1083.65 171.624C1084.18 174.018 1082.12 174.103 1080.68 174.235C1079.23 174.368 1076.57 174.001 1074.49 172.889C1072.4 171.776 1070.91 170.615 1070.31 169.214C1069.72 167.812 1070.79 167.13 1070.79 167.13C1070.79 167.13 1073.49 167.092 1074.13 166.469C1074.78 165.845 1074.4 160.695 1074.4 160.695L1082.2 161.087Z" fill="url(#paint0_linear_542_132)"/>
</g>
<mask id="mask1_542_132" style="mask-type:luminance" maskUnits="userSpaceOnUse" x="1085" y="162" width="10" height="6">
<path d="M1091.28 167.935C1092.84 167.935 1094.23 167.316 1094.39 166.805C1094.48 166.495 1094.36 165.671 1094.17 164.634C1094.16 164.588 1094.15 164.542 1094.14 164.495C1093.36 164.992 1091.99 165.302 1090.64 165.302C1089.83 165.302 1089.02 165.189 1088.35 164.936C1087.63 164.66 1086.94 164.153 1086.37 163.588C1086.11 163.338 1085.87 163.078 1085.66 162.824C1085.66 163.024 1085.66 163.217 1085.66 163.401C1086.12 164.196 1086.8 165.233 1087.88 166.503C1088.78 167.568 1090.08 167.935 1091.28 167.935Z" fill="white"/>
</mask>
<g mask="url(#mask1_542_132)">
<path d="M1091.28 167.935C1092.84 167.935 1094.23 167.316 1094.39 166.805C1094.48 166.495 1094.36 165.671 1094.17 164.634C1094.16 164.588 1094.15 164.542 1094.14 164.495C1093.36 164.992 1091.99 165.302 1090.64 165.302C1089.83 165.302 1089.02 165.189 1088.35 164.936C1087.63 164.66 1086.94 164.153 1086.37 163.588C1086.11 163.338 1085.87 163.078 1085.66 162.824C1085.66 163.024 1085.66 163.217 1085.66 163.401C1086.12 164.196 1086.8 165.233 1087.88 166.503C1088.78 167.568 1090.08 167.935 1091.28 167.935Z" fill="url(#paint1_linear_542_132)"/>
</g>
<path d="M1079.56 105.936C1079.56 105.936 1084.48 160.759 1084.53 161.109C1084.56 161.335 1085.29 162.551 1086.37 163.587C1086.94 164.153 1087.63 164.66 1088.35 164.935C1090.42 165.717 1093.8 165.162 1094.63 164.068C1095.46 162.979 1096.45 143.886 1096.86 139.118C1097.27 134.351 1096.13 127.389 1096.13 127.389C1096.13 127.389 1096.34 123.716 1095.92 119.418C1095.51 115.116 1096.07 106.326 1096.68 104.995C1097.3 103.663 1099.4 94.392 1099.37 88.3508C1099.34 82.3097 1098.33 79.5133 1097 74.3603L1081.68 74.8723L1080.43 93.1713L1079.56 105.936Z" fill="#424C67"/>
<path d="M1086.37 163.587C1086.38 163.295 1086.39 158.632 1086.4 158.335C1086.78 147.257 1086.43 136.152 1085.35 125.121C1084.93 120.925 1084.42 116.722 1084.56 112.51C1084.67 109.333 1085.17 106.131 1086.34 103.165C1087.05 101.337 1088.22 99.766 1088.66 97.8266C1088.9 96.7728 1089.1 95.6219 1089.26 94.4809C1087.06 97.3184 1082.43 102.87 1082.43 102.87C1082.43 102.87 1083.79 123.046 1084.09 124.518C1084.38 125.989 1085.19 148.019 1085.19 148.019C1085.19 148.019 1085.59 157.781 1085.66 162.823C1085.87 163.077 1086.11 163.336 1086.37 163.587Z" fill="#3F3D4C"/>
<path d="M1089.74 79.8116C1091 87.6415 1091.59 91.2936 1090.03 93.4671C1088.46 95.6394 1082.43 102.874 1082.43 102.874C1082.43 102.874 1083.79 123.05 1084.09 124.522C1084.38 125.993 1085.19 148.023 1085.19 148.023C1085.19 148.023 1085.86 164.304 1085.6 165.674C1085.35 167.043 1079.62 168.722 1077.71 168.365C1075.79 168.007 1073.66 166.788 1073.66 166.788C1073.66 166.788 1069.73 135.841 1066.02 121.234C1062.32 106.628 1059.24 93.9803 1062.48 83.9296C1065.71 73.8789 1089.74 79.8116 1089.74 79.8116Z" fill="#424C67"/>
<path d="M1074.63 167.566C1074.61 167.361 1072.92 146.972 1071.05 136.834C1069.87 130.463 1068.36 124.103 1066.77 117.371C1065.8 113.228 1064.79 108.942 1063.78 104.375C1060.74 90.5306 1064.35 84.3637 1064.39 84.3026L1065.29 84.8519C1064.33 86.4388 1062.36 92.9994 1064.81 104.147C1065.82 108.708 1066.83 112.989 1067.8 117.128C1069.4 123.874 1070.9 130.245 1072.09 136.643C1073.97 146.832 1075.67 167.274 1075.68 167.48L1074.63 167.566Z" fill="#4F5A7A"/>
<path d="M1061.38 83.1048C1061.73 83.6753 1062.18 84.9284 1064.07 85.8426L1064.33 85.9635C1066.34 86.8777 1070.47 88.1781 1078.69 87.3859C1087.29 86.5501 1099.45 83.1833 1099.57 81.3921C1099.67 79.5947 1097.46 71.8994 1097.56 64.949C1097.67 57.9986 1101.66 52.7334 1102.23 43.4052C1102.82 34.0756 1100.68 30.6615 1100.37 30.1907C1099.46 28.8006 1094.03 28.7059 1090.9 29.2291C1087.77 29.7472 1079.91 32.7653 1078.07 33.489C1078.07 33.489 1067.12 39.002 1066.29 39.3819C1065.75 39.631 1065.54 48.395 1065.5 55.5609C1065.47 59.5468 1065.5 63.0357 1065.55 64.2988C1065.68 67.835 1061.04 82.5281 1061.38 83.1048Z" fill="#4BAEFF"/>
<path d="M1064.33 85.9604C1064.79 84.396 1064.97 82.7256 1065.21 81.1089C1065.74 77.5203 1066.6 73.989 1067.71 70.5375C1068.16 69.1536 1068.64 67.7785 1069.27 66.4631C1069.88 65.1839 1070.61 63.962 1071.1 62.6354C1071.52 61.4783 1071.75 60.2576 1072.21 59.1203C1072.44 58.5399 1072.75 57.9794 1072.85 57.3603C1072.93 56.8533 1072.88 56.3352 1072.82 55.8233C1072.7 54.6972 1072.96 51.2457 1071.28 51.1186C1071.25 51.1161 1071.23 51.1161 1071.21 51.1161C1070.41 51.1161 1069.47 52.0503 1068.86 52.4713C1068.02 53.048 1067.19 53.6447 1066.48 54.3746C1066.12 54.7446 1065.8 55.1406 1065.5 55.5579C1065.49 56.6478 1065.49 57.7004 1065.49 58.6806C1065.49 58.6993 1065.49 58.7168 1065.49 58.7342C1065.49 59.5351 1065.49 60.285 1065.5 60.9688C1065.51 62.4859 1065.52 63.6667 1065.55 64.2958C1065.55 64.3431 1065.55 64.3942 1065.55 64.4465C1065.55 68.0924 1061.37 81.5 1061.36 82.9847C1061.36 83.0408 1061.37 83.0806 1061.38 83.1018C1061.73 83.6723 1062.18 84.9254 1064.07 85.8396L1064.33 85.9604Z" fill="#478BBC"/>
<mask id="mask2_542_132" style="mask-type:luminance" maskUnits="userSpaceOnUse" x="1070" y="8" width="24" height="26">
<path d="M1081.07 33.4399C1082.59 33.4399 1084.84 33.3602 1087.32 32.9679C1091.76 32.2654 1093.13 29.9398 1093.09 29.5898C1093.06 29.4366 1092.85 29.2747 1092.55 29.0243C1092.18 28.7079 1091.68 28.2496 1091.28 27.4873C1091.07 27.0924 1090.95 26.2728 1090.89 25.305C1089.65 26.4011 1087.73 27.6031 1086.76 27.6031C1086.72 27.6031 1086.67 27.5994 1086.63 27.5931C1085.36 27.4125 1082.21 25.2676 1081.58 24.2425C1080.95 23.2186 1079.22 19.3236 1078.67 17.931C1078.28 16.9445 1076.9 15.76 1075.85 15.177C1076.08 15.481 1076.25 15.9381 1076.31 16.612C1076.48 18.6859 1076.06 20.284 1075.69 20.284C1075.62 20.284 1075.56 20.2404 1075.5 20.1469C1075.5 20.1469 1074.66 17.8625 1074.62 17.601C1074.59 17.4091 1074.41 16.0739 1074.34 15.2979C1073.88 16.2408 1073.68 18.2836 1073.72 18.793L1073.01 17.2011L1072.43 16.2134L1071.58 12.0169C1071.58 12.0169 1071.21 9.94928 1071.04 8.4583C1070.49 10.0701 1071.03 12.5401 1071.03 12.5401C1071.03 12.5401 1071.25 17.667 1071.89 19.4008C1072.33 20.6103 1073.46 22.9994 1074.29 24.5065H1074.29C1074.46 24.6124 1074.61 24.7009 1074.73 24.7606C1075 24.8902 1077.3 25.4557 1077.84 25.4557C1077.92 25.4557 1077.96 25.4445 1077.96 25.4208C1078.25 28.1213 1078.77 30.7955 1079.51 33.4125C1079.86 33.4238 1080.39 33.4399 1081.07 33.4399Z" fill="white"/>
</mask>
<g mask="url(#mask2_542_132)">
<path d="M1081.07 33.4399C1082.59 33.4399 1084.84 33.3602 1087.32 32.9679C1091.76 32.2654 1093.13 29.9398 1093.09 29.5898C1093.06 29.4366 1092.85 29.2747 1092.55 29.0243C1092.18 28.7079 1091.68 28.2496 1091.28 27.4873C1091.07 27.0924 1090.95 26.2728 1090.89 25.305C1089.65 26.4011 1087.73 27.6031 1086.76 27.6031C1086.72 27.6031 1086.67 27.5994 1086.63 27.5931C1085.36 27.4125 1082.21 25.2676 1081.58 24.2425C1080.95 23.2186 1079.22 19.3236 1078.67 17.931C1078.28 16.9445 1076.9 15.76 1075.85 15.177C1076.08 15.481 1076.25 15.9381 1076.31 16.612C1076.48 18.6859 1076.06 20.284 1075.69 20.284C1075.62 20.284 1075.56 20.2404 1075.5 20.1469C1075.5 20.1469 1074.66 17.8625 1074.62 17.601C1074.59 17.4091 1074.41 16.0739 1074.34 15.2979C1073.88 16.2408 1073.68 18.2836 1073.72 18.793L1073.01 17.2011L1072.43 16.2134L1071.58 12.0169C1071.58 12.0169 1071.21 9.94928 1071.04 8.4583C1070.49 10.0701 1071.03 12.5401 1071.03 12.5401C1071.03 12.5401 1071.25 17.667 1071.89 19.4008C1072.33 20.6103 1073.46 22.9994 1074.29 24.5065H1074.29C1074.46 24.6124 1074.61 24.7009 1074.73 24.7606C1075 24.8902 1077.3 25.4557 1077.84 25.4557C1077.92 25.4557 1077.96 25.4445 1077.96 25.4208C1078.25 28.1213 1078.77 30.7955 1079.51 33.4125C1079.86 33.4238 1080.39 33.4399 1081.07 33.4399Z" fill="url(#paint2_linear_542_132)"/>
</g>
<path d="M1073.72 18.7945C1073.67 18.1331 1074.02 14.8846 1074.81 14.8185C1075.61 14.755 1078.12 16.5412 1078.67 17.9325C1079.22 19.3251 1080.95 23.2201 1081.58 24.244C1082.22 25.2691 1085.36 27.414 1086.63 27.5946C1087.9 27.7752 1091.37 25.2504 1091.97 24.1007C1092.57 22.951 1093.67 19.6427 1093.77 17.4941C1093.87 15.3454 1093.91 14.9406 1093.91 14.9406C1093.91 14.9406 1095.21 12.7608 1095.16 9.52105C1095.11 6.28125 1093.33 -0.185879 1086.17 0.801878C1080.57 -0.203318 1080.11 -0.0065155 1076.52 1.11078C1072.94 2.22684 1070.91 6.17162 1070.95 7.40849C1070.98 8.64661 1071.58 12.0184 1071.58 12.0184L1072.43 16.2149L1073.01 17.2026L1073.72 18.7945Z" fill="#36231F"/>
<mask id="mask3_542_132" style="mask-type:luminance" maskUnits="userSpaceOnUse" x="1074" y="14" width="3" height="7">
<path d="M1075.69 20.2827C1076.06 20.2827 1076.48 18.6846 1076.31 16.6107C1076.25 15.9368 1076.08 15.4797 1075.85 15.1758C1075.45 14.9503 1075.09 14.8145 1074.86 14.8145C1074.84 14.8145 1074.83 14.8145 1074.81 14.8158C1074.63 14.8307 1074.47 15.0151 1074.34 15.2966C1074.41 16.0726 1074.59 17.4079 1074.62 17.5997C1074.66 17.8613 1075.51 20.1457 1075.51 20.1457C1075.56 20.2391 1075.62 20.2827 1075.69 20.2827Z" fill="white"/>
</mask>
<g mask="url(#mask3_542_132)">
<path d="M1075.69 20.2827C1076.06 20.2827 1076.48 18.6846 1076.31 16.6107C1076.25 15.9368 1076.08 15.4797 1075.85 15.1758C1075.45 14.9503 1075.09 14.8145 1074.86 14.8145C1074.84 14.8145 1074.83 14.8145 1074.81 14.8158C1074.63 14.8307 1074.47 15.0151 1074.34 15.2966C1074.41 16.0726 1074.59 17.4079 1074.62 17.5997C1074.66 17.8613 1075.51 20.1457 1075.51 20.1457C1075.56 20.2391 1075.62 20.2827 1075.69 20.2827Z" fill="url(#paint3_linear_542_132)"/>
</g>
<path d="M1074.34 15.2993C1074.47 15.0179 1074.63 14.8337 1074.81 14.8187C1074.83 14.8175 1074.84 14.8175 1074.86 14.8175C1075.09 14.8175 1075.45 14.9532 1075.85 15.1786C1075.53 14.7403 1075.11 14.6158 1074.78 14.6158C1074.53 14.6158 1074.34 14.6942 1074.32 14.7552C1074.3 14.805 1074.31 15.0142 1074.34 15.2993Z" fill="#331C17"/>
<mask id="mask4_542_132" style="mask-type:luminance" maskUnits="userSpaceOnUse" x="1040" y="55" width="23" height="20">
<path d="M1040.59 59.6927C1041.22 60.5671 1044.57 63.001 1044.57 63.001C1044.57 63.001 1044.71 63.1256 1044.92 63.3087L1044.93 63.3137C1045.4 63.726 1046.23 64.4422 1046.8 64.8669C1047.63 65.4885 1049.51 66.2832 1049.51 66.2832C1049.51 66.2832 1052.07 70.6278 1052.83 71.628C1053.59 72.627 1055.14 73.9947 1056.79 74.4692L1057.08 74.4381C1057.71 74.0345 1057.38 71.1672 1057 68.8354C1056.72 67.1551 1062.36 69.5304 1062.36 69.5304C1061.86 68.6996 1060.17 67.048 1060.17 67.048C1060.17 67.048 1054.9 63.3423 1054.25 59.826C1054.22 59.7002 1054.05 59.5657 1053.85 59.4299C1053.38 59.1085 1052.64 58.8096 1052.64 58.8096C1052.64 58.8096 1046.92 55.5449 1046.72 55.4365C1046.61 55.3767 1046.17 55.4041 1045.77 55.4453C1045.41 55.4764 1045.09 55.5225 1045.09 55.5225L1045.04 55.6694L1044.94 55.946C1044.94 55.946 1043.77 55.3568 1043.37 55.2659C1043.09 55.2061 1042.9 55.5162 1042.81 55.7118L1042.75 55.8588C1042.75 55.8588 1042.6 55.9223 1042.44 56.0431C1042.24 56.1789 1042.01 56.3944 1041.95 56.6585C1041.9 56.8428 1041.94 57.0496 1042.13 57.2788C1042.39 57.6039 1043.08 58.3163 1043.8 59.0662C1044.87 60.171 1046.04 61.3519 1046.15 61.4689L1045.3 61.0317L1044.75 60.749C1044.75 60.749 1043.82 60.0938 1042.87 59.4673C1042.06 58.9292 1041.23 58.4035 1040.95 58.3413C1040.37 58.198 1039.96 58.8171 1040.59 59.6927Z" fill="white"/>
</mask>
<g mask="url(#mask4_542_132)">
<path d="M1040.59 59.6927C1041.22 60.5671 1044.57 63.001 1044.57 63.001C1044.57 63.001 1044.71 63.1256 1044.92 63.3087L1044.93 63.3137C1045.4 63.726 1046.23 64.4422 1046.8 64.8669C1047.63 65.4885 1049.51 66.2832 1049.51 66.2832C1049.51 66.2832 1052.07 70.6278 1052.83 71.628C1053.59 72.627 1055.14 73.9947 1056.79 74.4692L1057.08 74.4381C1057.71 74.0345 1057.38 71.1672 1057 68.8354C1056.72 67.1551 1062.36 69.5304 1062.36 69.5304C1061.86 68.6996 1060.17 67.048 1060.17 67.048C1060.17 67.048 1054.9 63.3423 1054.25 59.826C1054.22 59.7002 1054.05 59.5657 1053.85 59.4299C1053.38 59.1085 1052.64 58.8096 1052.64 58.8096C1052.64 58.8096 1046.92 55.5449 1046.72 55.4365C1046.61 55.3767 1046.17 55.4041 1045.77 55.4453C1045.41 55.4764 1045.09 55.5225 1045.09 55.5225L1045.04 55.6694L1044.94 55.946C1044.94 55.946 1043.77 55.3568 1043.37 55.2659C1043.09 55.2061 1042.9 55.5162 1042.81 55.7118L1042.75 55.8588C1042.75 55.8588 1042.6 55.9223 1042.44 56.0431C1042.24 56.1789 1042.01 56.3944 1041.95 56.6585C1041.9 56.8428 1041.94 57.0496 1042.13 57.2788C1042.39 57.6039 1043.08 58.3163 1043.8 59.0662C1044.87 60.171 1046.04 61.3519 1046.15 61.4689L1045.3 61.0317L1044.75 60.749C1044.75 60.749 1043.82 60.0938 1042.87 59.4673C1042.06 58.9292 1041.23 58.4035 1040.95 58.3413C1040.37 58.198 1039.96 58.8171 1040.59 59.6927Z" fill="url(#paint4_linear_542_132)"/>
</g>
<mask id="mask5_542_132" style="mask-type:luminance" maskUnits="userSpaceOnUse" x="1054" y="47" width="19" height="28">
<path d="M1055.8 68.6517C1055.64 69.4464 1053.81 72.5168 1054.8 73.3413C1055.51 73.928 1057.44 74.8846 1058 74.8684C1059.35 74.8298 1062.15 73.2704 1064.39 70.3009C1065.11 69.3517 1069.59 61.2466 1070.89 59.0693C1072.19 56.887 1071.96 55.5169 1072.14 54.1592C1072.14 54.1592 1068.32 50.3701 1066.01 48.6935C1065.17 48.0807 1064.53 47.7481 1064.35 47.996C1063.71 48.9214 1061.38 55.1793 1060.95 55.9715C1060.53 56.765 1058.13 62.3303 1058.13 62.3303C1058.13 62.3303 1056.08 67.2927 1055.8 68.6517Z" fill="white"/>
</mask>
<g mask="url(#mask5_542_132)">
<path d="M1055.8 68.6517C1055.64 69.4464 1053.81 72.5168 1054.8 73.3413C1055.51 73.928 1057.44 74.8846 1058 74.8684C1059.35 74.8298 1062.15 73.2704 1064.39 70.3009C1065.11 69.3517 1069.59 61.2466 1070.89 59.0693C1072.19 56.887 1071.96 55.5169 1072.14 54.1592C1072.14 54.1592 1068.32 50.3701 1066.01 48.6935C1065.17 48.0807 1064.53 47.7481 1064.35 47.996C1063.71 48.9214 1061.38 55.1793 1060.95 55.9715C1060.53 56.765 1058.13 62.3303 1058.13 62.3303C1058.13 62.3303 1056.08 67.2927 1055.8 68.6517Z" fill="url(#paint5_linear_542_132)"/>
</g>
<mask id="mask6_542_132" style="mask-type:luminance" maskUnits="userSpaceOnUse" x="1054" y="45" width="17" height="12">
<path d="M1060.97 51.3075L1057.9 48.8375C1057.9 48.8375 1055.08 47.9855 1054.8 47.6243C1054.51 47.263 1055.3 46.9218 1055.3 46.9218C1055.3 46.9218 1055.41 46.0386 1055.71 46.0311C1056.01 46.0237 1058 45.7148 1058 45.7148C1058 45.7148 1058.13 45.1966 1058.76 45.1767C1059.39 45.1567 1062.39 46.5767 1062.39 46.5767L1066.47 49.5487L1069.62 53.283C1069.62 53.283 1070.99 54.5598 1070.27 55.8602C1069.55 57.1593 1063.77 54.4564 1063.03 54.2907C1062.3 54.1263 1058.67 54.3941 1058.01 53.9843C1057.35 53.5745 1058.28 52.5469 1058.28 52.5469L1060.31 52.3314L1060.97 51.3075Z" fill="white"/>
</mask>
<g mask="url(#mask6_542_132)">
<path d="M1060.97 51.3075L1057.9 48.8375C1057.9 48.8375 1055.08 47.9855 1054.8 47.6243C1054.51 47.263 1055.3 46.9218 1055.3 46.9218C1055.3 46.9218 1055.41 46.0386 1055.71 46.0311C1056.01 46.0237 1058 45.7148 1058 45.7148C1058 45.7148 1058.13 45.1966 1058.76 45.1767C1059.39 45.1567 1062.39 46.5767 1062.39 46.5767L1066.47 49.5487L1069.62 53.283C1069.62 53.283 1070.99 54.5598 1070.27 55.8602C1069.55 57.1593 1063.77 54.4564 1063.03 54.2907C1062.3 54.1263 1058.67 54.3941 1058.01 53.9843C1057.35 53.5745 1058.28 52.5469 1058.28 52.5469L1060.31 52.3314L1060.97 51.3075Z" fill="url(#paint6_linear_542_132)"/>
</g>
<mask id="mask7_542_132" style="mask-type:luminance" maskUnits="userSpaceOnUse" x="1074" y="24" width="6" height="10">
<path d="M1077.44 33.8101C1077.44 33.8101 1078.94 33.414 1079.07 33.3978C1079.07 33.3965 1079.08 33.3965 1079.09 33.3965C1079.15 33.3965 1079.3 33.4052 1079.51 33.4139C1078.77 30.7969 1078.25 28.1227 1077.96 25.4222C1077.96 25.4459 1077.92 25.4571 1077.84 25.4571C1077.3 25.4571 1075 24.8916 1074.73 24.762C1074.61 24.7022 1074.46 24.6138 1074.29 24.5079C1074.65 25.1631 1074.96 25.6551 1075.13 25.8021C1075.69 26.3041 1077.37 26.2468 1077.49 26.7637C1077.6 27.2819 1078.67 32.4735 1078.67 32.4735L1077.44 33.8101Z" fill="white"/>
</mask>
<g mask="url(#mask7_542_132)">
<path d="M1077.44 33.8101C1077.44 33.8101 1078.94 33.414 1079.07 33.3978C1079.07 33.3965 1079.08 33.3965 1079.09 33.3965C1079.15 33.3965 1079.3 33.4052 1079.51 33.4139C1078.77 30.7969 1078.25 28.1227 1077.96 25.4222C1077.96 25.4459 1077.92 25.4571 1077.84 25.4571C1077.3 25.4571 1075 24.8916 1074.73 24.762C1074.61 24.7022 1074.46 24.6138 1074.29 24.5079C1074.65 25.1631 1074.96 25.6551 1075.13 25.8021C1075.69 26.3041 1077.37 26.2468 1077.49 26.7637C1077.6 27.2819 1078.67 32.4735 1078.67 32.4735L1077.44 33.8101Z" fill="url(#paint7_linear_542_132)"/>
</g>
<path d="M1088.17 24.1997C1088.31 21.5205 1088.56 18.8399 1089.14 16.2204C1089.69 13.7081 1090.7 10.893 1089.91 8.33335C1089.71 7.70681 1089.41 7.0815 1088.88 6.69288C1088.01 6.04517 1086.8 6.21831 1085.72 6.35533C1085.49 6.38522 1085.23 6.40018 1085.06 6.24199C1084.94 6.12864 1084.9 5.95424 1084.87 5.78982C1084.77 5.08357 1084.87 4.32001 1085.16 3.66982C1085.52 2.88011 1086.13 2.65466 1086.7 2.08916C1087.25 1.55106 1087.53 1.00051 1088.27 0.626831C1089.08 0.21703 1090 0.0501289 1090.9 0.0102692C1091.51 -0.0171356 1092.13 0.00529099 1092.72 0.139816C1094.95 0.643036 1096.58 2.70823 1097.12 4.92663C1097.66 7.14504 1097.27 9.48675 1096.64 11.6802C1095.81 14.5638 1095.42 17.7413 1095.39 20.7781C1095.38 21.9589 1095.46 23.1385 1095.54 24.3156C1095.62 25.5201 1095.71 26.7295 1095.95 27.9116C1096.57 30.85 1097.96 33.3561 1099.95 35.5558C1100.27 35.9121 1102.24 37.9773 1102.77 37.7219C1100.46 38.8255 1097.74 39.3835 1095.36 38.4668C1094.57 38.1641 1093.66 37.8291 1092.92 37.4491C1091.86 36.9123 1090.92 35.6879 1090.1 34.8533C1088.92 33.66 1088.69 32.0171 1088.39 30.4352C1087.99 28.3762 1088.07 26.2824 1088.17 24.1997Z" fill="#36231F"/>
<path d="M1068.55 38.2657C1065.97 38.6706 1065.3 40.0968 1064.65 41.6538C1063.99 43.212 1061.6 49.5446 1061.7 50.7317C1061.79 51.9187 1067.36 55.019 1068.35 55.9495C1069.35 56.8787 1072.53 57.2399 1072.53 57.2399C1072.53 57.2399 1073.76 51.6671 1073.75 50.135C1073.74 48.603 1073.26 44.6669 1072.74 42.8047C1072.22 40.9426 1071.45 39.2174 1068.55 38.2657Z" fill="#75C8FF"/>
<path d="M171.033 357.403L105.531 321.451L69.9786 341.977C65.7039 344.447 60.231 345.711 55.0407 345.711C50.7416 345.711 46.6379 344.843 43.5718 343.072L4.57119 320.554C-2.19925 316.646 -1.34987 309.822 6.467 305.308L40.4116 285.71L9.25221 268.608L87.0442 223.66L245.726 314.257L171.033 357.403Z" fill="#838997"/>
<path d="M67.8822 292.773C67.8822 292.773 64.9068 293.581 64.6522 295.068C64.3976 296.556 64.2703 298.384 64.354 299.234C64.4394 300.084 68.9461 302.039 71.7087 301.955C74.4713 301.87 76.9862 299.967 77.581 299.159C78.1757 298.352 79.1087 297.745 79.3023 297.555C79.4976 297.365 81.1039 296.348 81.9498 296.265C82.7957 296.179 84.2119 295.886 86.8471 294.696C89.4841 293.506 93.6071 291.307 94.7129 289.665C95.8168 288.022 94.4268 285.617 94.1617 285.26C93.8966 284.902 92.2468 284.366 90.7155 284.325C89.1859 284.281 67.8822 292.773 67.8822 292.773Z" fill="#323142"/>
<path d="M79.0273 284.496C81.0679 283.646 85.9983 283.221 87.2732 283.179C88.5481 283.135 89.441 283.05 91.5252 284.199C93.6076 285.347 94.0751 285.983 94.1605 286.877C94.2442 287.769 91.9072 289.724 89.7393 290.916C87.5714 292.105 83.8723 292.785 82.0881 293.296C80.3022 293.805 78.4744 294.019 77.0704 295.379C75.6682 296.739 73.8352 297.536 70.9436 297.408C68.0537 297.282 66.055 296.474 65.5021 294.985C64.9492 293.497 65.673 289.161 65.9695 287.972C66.2678 286.781 70.6942 285.134 71.3325 284.963C71.9708 284.794 79.0273 284.496 79.0273 284.496Z" fill="#ABABAB"/>
<path d="M88.9106 239.864C88.5286 254.499 83.5318 284.707 83.0226 287.259C82.5116 289.808 72.7344 290.658 67.4638 288.194C66.7837 283.518 68.7388 262.347 68.5696 258.096C68.3987 253.846 88.9106 239.864 88.9106 239.864Z" fill="#424C67"/>
<path d="M79.7338 288.506L78.7571 288.338C78.8077 288.053 83.6841 259.732 83.4643 254.518L84.4532 254.477C84.6799 259.797 79.9361 287.337 79.7338 288.506Z" fill="#4F5A7A"/>
<path d="M93.3669 297.828C93.3669 298.936 94.2652 299.836 95.3744 299.836C96.4836 299.836 97.3836 298.936 97.3836 297.828C97.3836 296.719 96.4836 295.819 95.3744 295.819C94.2652 295.819 93.3669 296.719 93.3669 297.828Z" fill="#141326"/>
<path d="M84.7996 327.81C84.7996 328.919 85.6978 329.817 86.807 329.817C87.9162 329.817 88.8144 328.919 88.8144 327.81C88.8144 326.701 87.9162 325.802 86.807 325.802C85.6978 325.802 84.7996 326.701 84.7996 327.81Z" fill="#141326"/>
<path d="M32.7485 332.939C32.7485 334.048 33.6467 334.946 34.7559 334.946C35.8651 334.946 36.7651 334.048 36.7651 332.939C36.7651 331.829 35.8651 330.932 34.7559 330.932C33.6467 330.932 32.7485 331.829 32.7485 332.939Z" fill="#141326"/>
<path d="M9.25415 305.551C9.25415 306.66 10.1523 307.558 11.2615 307.558C12.3707 307.558 13.269 306.66 13.269 305.551C13.269 304.442 12.3707 303.543 11.2615 303.543C10.1523 303.543 9.25415 304.442 9.25415 305.551Z" fill="#141326"/>
<path d="M46.2478 284.262C46.2478 285.371 47.1477 286.269 48.257 286.269C49.3644 286.269 50.2643 285.371 50.2643 284.262C50.2643 283.153 49.3644 282.254 48.257 282.254C47.1477 282.254 46.2478 283.153 46.2478 284.262Z" fill="#141326"/>
<path d="M56.3943 307.824L36.2712 331.466L35.5405 332.127L32.9959 331.401V329.844L50.9947 306.243L9.33252 304.454V302.897L51.9626 302.779L47.1664 282.084L47.0792 281.303V279.746L57.9621 302.222L97.8941 294.638V296.196L60.7003 305.338L89.4337 324.559V326.117L88.5512 326.678L87.435 327.324L56.3943 307.824Z" fill="#5A5873"/>
<path d="M56.3943 304.66L36.2712 329.907L35.5405 330.568L32.9959 329.843L50.9947 303.08L9.33252 302.895L9.79297 301.226L51.9626 299.616L47.1664 280.526L47.0792 279.744L49.8959 279.474L57.9621 299.058L96.5512 293.144L97.8941 294.637L60.7003 302.175L88.5756 323.988L89.4337 324.558L88.5512 325.12L87.435 325.763L56.3943 304.66Z" fill="#777781"/>
<path d="M36.0096 329.3L56.314 303.82L87.4506 324.989L88.3558 324.467L88.7202 324.235L88.3593 323.995L59.7951 301.644L97.1493 294.073L96.4029 293.243L57.7179 299.171L49.6446 279.573L47.5117 279.777L47.5553 280.166L52.4578 299.67L10.0929 301.289L9.8418 302.191L51.7236 302.377L33.6185 329.299L35.4393 329.816L36.0096 329.3Z" fill="#888888"/>
<path d="M241.887 226.123L241.612 315.412L238.511 317.214L238.786 227.927L241.887 226.123Z" fill="#D4D4D4"/>
<path d="M238.786 227.927L238.511 317.214L235.389 315.412L235.664 226.123L238.786 227.927Z" fill="#BDBDBD"/>
<path d="M241.887 226.125L238.786 227.928L235.664 226.125L238.765 224.323L241.887 226.125Z" fill="#B8B8B8"/>
<path d="M176.225 353.152L238.51 317.214L238.521 313.628L176.235 349.565L176.225 353.152Z" fill="#D4D4D4"/>
<path d="M176.236 349.567L238.521 313.631L235.399 311.827L173.114 347.765L176.236 349.567Z" fill="#BDBDBD"/>
<path d="M176.225 353.152L176.235 349.565L173.114 347.763L173.103 351.35L176.225 353.152Z" fill="#B8B8B8"/>
<path d="M175.582 285.01L238.111 248.933L238.118 246.627L175.589 282.705L175.582 285.01Z" fill="#D4D4D4"/>
<path d="M175.589 282.705L238.118 246.627L236.111 245.467L173.581 281.547L175.589 282.705Z" fill="#BDBDBD"/>
<path d="M175.582 285.01L175.589 282.705L173.581 281.547L173.574 283.852L175.582 285.01Z" fill="#DCDCDC"/>
<path d="M23.8069 265.155L86.0942 229.217L86.1046 225.631L30.0209 257.964L23.8069 265.155Z" fill="#B0B0B0"/>
<path d="M30.0205 257.963L86.1042 225.631L82.9823 223.827L20.6951 259.765L30.0205 257.963Z" fill="#999999"/>
<path d="M23.8064 265.155L23.8169 261.567L20.6951 259.766L20.6863 263.353L23.8064 265.155Z" fill="#B8B8B8"/>
<path d="M23.165 197.011L85.6948 160.934L85.7018 158.628L23.1703 194.706L23.165 197.011Z" fill="#D4D4D4"/>
<path d="M23.1702 194.708L85.7017 158.63L83.6942 157.47L21.1646 193.55L23.1702 194.708Z" fill="#BDBDBD"/>
<path d="M23.1648 197.011L23.1701 194.706L21.1645 193.548L21.1575 195.853L23.1648 197.011Z" fill="#DCDCDC"/>
<path d="M176.499 260.818L176.225 353.153L173.124 354.954L173.398 262.62L176.499 260.818Z" fill="#D4D4D4"/>
<path d="M173.398 262.62L173.125 354.954L170.003 353.153L170.276 260.818L173.398 262.62Z" fill="#BDBDBD"/>
<path d="M176.499 260.818L173.398 262.62L170.276 260.818L173.377 259.015L176.499 260.818Z" fill="#B8B8B8"/>
<path d="M24.0824 175.865L23.8068 265.154L20.7058 266.956L20.9814 177.668L24.0824 175.865Z" fill="#D4D4D4"/>
<path d="M20.9809 177.668L20.7053 266.956L17.5835 265.154L17.8591 175.865L20.9809 177.668Z" fill="#BDBDBD"/>
<path d="M24.0822 175.866L20.9812 177.67L17.8594 175.866L20.9604 174.065L24.0822 175.866Z" fill="#B8B8B8"/>
<path d="M89.4702 138.126L89.1946 227.415L86.0938 229.217L86.3692 139.929L89.4702 138.126Z" fill="#B0B0B0"/>
<path d="M86.3696 139.929L86.0941 229.217L82.9722 227.415L83.2477 138.126L86.3696 139.929Z" fill="#BDBDBD"/>
<path d="M89.4704 138.126L86.3694 139.93L83.2476 138.126L86.3485 136.325L89.4704 138.126Z" fill="#B8B8B8"/>
<path d="M114.716 297.642C116.585 297.719 119.179 297.464 120.114 298.823C121.048 300.183 120.667 301.699 120.497 302.599C120.326 303.501 119.01 306.136 115.269 307.878C111.528 309.621 111.06 309.791 110.38 309.621C109.7 309.452 108.807 309.791 108.807 309.791C108.807 309.791 107.021 310.726 106.639 311.492C106.255 312.258 105.066 313.829 101.665 315.148C98.2641 316.466 96.4154 315.89 94.1621 315.208C91.9087 314.53 90.8676 313.618 90.7821 312.894C90.6984 312.172 90.8676 310.09 91.0803 309.28C91.2931 308.473 92.3552 307.369 94.3957 307.029C96.4363 306.689 114.716 297.642 114.716 297.642Z" fill="#323142"/>
<path d="M119.22 298.315C119.137 296.827 115.565 295.509 114.843 295.212C114.121 294.914 111.569 294.745 111.144 294.532C110.72 294.319 106.724 293.725 105.746 294.148L93.5879 298.315C93.6315 298.782 92.3478 301.929 92.1821 304.011C92.0147 306.093 91.8875 308.942 91.9729 309.538C92.0584 310.132 95.2883 312.3 99.3694 312.088C103.451 311.875 104.811 308.899 108.765 308.092C112.717 307.285 116.712 305.498 118.329 303.245C119.944 300.994 119.306 299.802 119.22 298.315Z" fill="#ABABAB"/>
<path d="M98.5621 249.258C98.5621 249.258 92.355 296.443 92.1858 298.908C92.0149 301.374 97.8819 303.074 101.283 302.479C104.684 301.883 107.999 299.843 108.339 297.973C108.679 296.103 118.54 249.683 117.182 240.756C113.27 238.715 98.5621 249.258 98.5621 249.258Z" fill="#424C67"/>
<path d="M18.9375 254.345C19.2723 253.564 19.3752 252.011 19.5321 249.338C19.7257 246.031 19.9892 241.505 21.0844 239.789C22.3925 237.74 35.949 229.998 45.271 225.001L48.8045 237.138L50.3009 236.702L46.2302 222.722L45.3843 223.173C42.9723 224.459 21.7715 235.82 19.7711 238.95C18.4578 241.008 18.191 245.576 17.9765 249.247C17.8648 251.171 17.748 253.164 17.5056 253.73L18.9375 254.345Z" fill="#A3A2AA"/>
<path d="M22.0368 236.093L21.5642 235.819C20.4637 235.184 20.6032 234.065 21.8729 233.33L48.5831 217.909C49.8545 217.177 51.7939 217.097 52.8927 217.732L53.3653 218.004C54.4658 218.64 54.3263 219.76 53.0566 220.492L26.3464 235.913C25.075 236.648 23.1356 236.728 22.0368 236.093Z" fill="#302F40"/>
<path d="M54.1084 219.076V216.969C54.1084 216.969 20.8213 232.319 20.8213 232.599C20.8213 232.882 20.8213 234.75 20.8213 234.75C20.8213 234.75 26.7354 234.497 27.672 234.096C28.6103 233.695 54.1084 219.076 54.1084 219.076Z" fill="#302F40"/>
<path d="M22.0368 233.951L21.5642 233.679C20.4637 233.042 20.6032 231.923 21.8729 231.19L48.5831 215.769C49.8545 215.035 51.7939 214.955 52.8927 215.59L53.3653 215.864C54.4658 216.498 54.3263 217.618 53.0566 218.352L26.3464 233.773C25.075 234.506 23.1356 234.586 22.0368 233.951Z" fill="#3D3B4E"/>
<path d="M23.906 233.6C24.7205 233.6 25.5402 233.398 26.1506 233.046L52.8609 217.625C53.3981 217.314 53.7189 216.915 53.7189 216.554C53.7189 216.202 53.4208 215.956 53.1714 215.811L52.6987 215.537C52.2784 215.295 51.6836 215.162 51.0226 215.162C50.2082 215.162 49.3885 215.364 48.7781 215.717L22.0678 231.138C21.5306 231.448 21.2097 231.848 21.2097 232.209C21.2097 232.563 21.508 232.807 21.7574 232.952L22.23 233.225C22.6503 233.468 23.245 233.6 23.906 233.6Z" fill="#4A485C"/>
<path d="M103.535 262.299L60.8 237.611L101.88 256.407C101.88 256.407 106.648 259.766 103.535 262.299Z" fill="#1C1B2E"/>
<path d="M105.46 253.164C97.725 246.054 62.2857 227.645 61.2829 227.61C60.28 227.577 17.4373 251.84 17.4373 251.84L60.273 276.571L98.829 257.218L105.46 253.164Z" fill="#2E2D3E"/>
<path d="M17.4373 251.84C23.0619 248.38 26.4489 246.277 32.0752 242.923C40.2618 238.043 48.5758 232.878 56.7432 228.974C57.9152 228.414 59.1656 227.764 60.2801 227.577C61.6823 227.34 62.577 228.263 63.3252 229.25C63.9688 230.099 64.5129 231.179 64.8181 232.391C65.5925 235.464 60.8539 239.7 60.0796 236.625C60.0185 236.383 59.94 236.153 59.8563 235.931C59.8109 235.808 59.5441 235.235 59.7081 235.558C59.5424 235.232 59.3575 234.929 59.1552 234.646L58.1332 233.687C58.1175 233.816 58.8029 233.845 58.4959 233.818C58.189 233.788 59.2232 233.624 58.8447 233.788C58.5064 233.934 58.1506 233.999 57.8123 234.123C57.5088 234.233 57.3396 234.484 58.0338 234.023L57.6535 234.191C57.3693 234.32 57.085 234.449 56.8008 234.585C53.3283 236.24 49.8245 238.239 46.3416 240.222C37.9474 244.997 29.5515 250.037 21.1591 255.134C19.1726 256.34 17.1862 257.551 15.198 258.773C13.9196 259.56 14.4096 258.501 15.0078 257.05C15.8903 254.916 17.4373 251.84 17.4373 251.84Z" fill="#2E2D3E"/>
<path d="M57.4552 283.764C56.0914 283.762 14.4607 259.007 14.4607 259.007L17.4378 251.841C17.4378 251.841 65.0157 273.572 64.5605 276.038C64.107 278.504 57.4552 283.764 57.4552 283.764Z" fill="#2E2D3E"/>
<path d="M60.2735 276.572C65.8963 273.112 69.285 271.008 74.9114 267.655C83.098 262.775 91.4119 257.608 99.5793 253.703C100.75 253.145 102.002 252.495 103.116 252.308C104.518 252.071 105.413 252.994 106.161 253.981C106.805 254.83 107.349 255.91 107.654 257.122C108.429 260.195 103.69 264.431 102.916 261.357C102.853 261.114 102.774 260.885 102.692 260.663C102.647 260.539 102.38 259.966 102.544 260.289C102.379 259.963 102.194 259.66 101.99 259.377L100.968 258.418C100.954 258.547 101.639 258.579 101.332 258.549C101.025 258.521 102.059 258.355 101.681 258.519C101.343 258.666 100.987 258.732 100.648 258.854C100.343 258.964 100.176 259.215 100.87 258.754L100.488 258.922C100.205 259.051 99.9212 259.182 99.6369 259.316C96.1645 260.971 92.6607 262.97 89.176 264.953C80.7836 269.728 72.386 274.768 63.9953 279.864C62.0089 281.071 60.0206 282.282 58.0341 283.504C56.7557 284.291 57.2458 283.233 57.844 281.781C58.7248 279.646 60.2735 276.572 60.2735 276.572Z" fill="#232234"/>
<path d="M45.4434 256.311C45.4434 256.311 46.2944 263.113 52.3306 264.898C58.3668 266.684 70.0991 266.854 77.8358 263.283C85.5724 259.712 105.127 250.955 108.528 249.85C111.929 248.745 117.37 244.493 117.114 241.094C116.859 237.693 114.904 231.657 107.762 230.72C100.622 229.785 80.2164 231.911 79.027 231.826C77.8358 231.74 71.9705 230.125 71.9705 230.125L45.4434 256.311Z" fill="#424C67"/>
<path d="M106.102 301.301L105.127 301.118C105.19 300.785 111.367 267.595 112.419 260.097C113.199 254.553 114.495 245.334 113.783 244.143C113.118 244.174 110.363 244.987 107.454 245.845C99.7677 248.114 86.8966 251.914 80.7209 251.107C71.6989 249.937 63.3535 241.535 63.0029 241.178L63.711 240.484C63.7947 240.569 72.1698 248.998 80.8482 250.123C86.8199 250.899 99.5619 247.141 107.173 244.894C112.533 243.312 113.72 242.999 114.203 243.217C115.471 243.792 115.094 248.177 113.399 260.235C112.346 267.754 106.165 300.964 106.102 301.301Z" fill="#4F5A7A"/>
<path d="M90.9285 235.735C91.6087 230.041 91.4395 226.724 87.6985 224.514C83.9575 222.303 60.4284 222.899 54.6364 224.003C48.8444 225.109 30.6608 246.698 31.1648 250.101C31.6706 253.506 39.9688 260.912 50.4436 264.095C60.9167 267.278 90.9285 235.735 90.9285 235.735Z" fill="#424C67"/>
<path d="M168.677 271.911V266.825L247.836 221.1V226.185L168.677 271.911Z" fill="#888993"/>
<path d="M168.677 266.825L6.89478 173.42V178.506L168.677 271.911V266.825Z" fill="#7B7C8A"/>
<path d="M168.677 266.828L6.89478 173.423L86.0542 127.698L247.837 221.103L168.677 266.828Z" fill="#A5A5A5"/>
<path d="M136.305 238.888L52.6549 190.593C50.7277 189.479 50.7277 186.697 52.6549 185.583L87.2011 165.637C88.0958 165.121 89.1981 165.121 90.0928 165.637L173.743 213.932C175.672 215.047 175.672 217.83 173.743 218.943L139.197 238.888C138.302 239.404 137.2 239.404 136.305 238.888Z" fill="#737A8B"/>
<path d="M180.262 193.3L165.33 200.053L196.521 223.16L211.453 216.409L180.262 193.3Z" fill="#888993"/>
<path d="M104.391 154.65L93.1958 163.013L130.922 180.63L142.117 172.267L104.391 154.65Z" fill="#888993"/>
<path d="M136.066 198.977L135.564 198.942L135.37 198.803L107.5 182.712C106.468 182.115 104.666 182.19 103.475 182.879L82.7031 194.871C82.452 195.016 82.2567 195.18 82.1015 195.349L81.7178 195.323V196.197L81.73 196.199C81.7353 196.572 81.9515 196.928 82.4137 197.195L110.284 213.285C111.316 213.882 113.118 213.807 114.309 213.12L135.082 201.127C135.731 200.751 136.054 200.271 136.056 199.816H136.066V198.977Z" fill="#525252"/>
<path d="M110.285 212.434L82.4136 196.343C81.3829 195.747 81.5119 194.707 82.7031 194.019L103.475 182.026C104.666 181.339 106.468 181.264 107.5 181.859L135.37 197.951C136.403 198.546 136.274 199.587 135.081 200.274L114.311 212.267C113.118 212.955 111.316 213.031 110.285 212.434Z" fill="#636363"/>
<path d="M111.02 211.55L83.9474 195.92C83.2987 195.545 83.3789 194.891 84.1288 194.459L99.834 185.391C100.582 184.959 101.716 184.912 102.365 185.287L129.438 200.917C130.087 201.292 130.005 201.946 129.255 202.378L113.551 211.446C112.801 211.878 111.669 211.925 111.02 211.55Z" fill="#343339"/>
<path d="M139.855 169.546V171.569L130.137 178.83V176.807L139.855 169.546Z" fill="#C7C8C9"/>
<path d="M113.2 157.1V159.123L103.48 166.384V164.359L113.2 157.1Z" fill="#C7C8C9"/>
<path d="M103.481 164.359V166.384L97.387 163.537V161.512L103.481 164.359Z" fill="#CBCCCD"/>
<path d="M130.137 176.807V178.83L124.041 175.984L124.043 173.96L130.137 176.807Z" fill="#CBCCCD"/>
<path d="M128.85 170.369V172.392L108.289 162.791V160.766L128.85 170.369Z" fill="#CBCCCD"/>
<path d="M107.105 154.252L97.387 161.513L103.481 164.357L108.289 160.766L128.85 170.369L124.041 173.96L130.137 176.806L139.855 169.546L107.105 154.252Z" fill="#E9EAF0"/>
<path d="M130.24 166.529L112.674 158.353L107.939 138.95L125.503 147.126L130.24 166.529Z" fill="#DEE0E9"/>
<path d="M125.503 147.129L107.939 138.953L111.252 152.531L128.822 160.722L125.503 147.129Z" fill="#CBCCCD"/>
<path d="M131.453 165.622L126.643 145.911L125.503 147.126L130.239 166.529L131.453 165.622Z" fill="#C7C8C9"/>
<path d="M153.384 107.718L81.0958 74.011C80.7295 73.8401 80.3999 73.8558 80.1749 74.0198L78.4692 75.2563C78.6942 75.0924 79.0238 75.0767 79.3901 75.2476L151.678 108.957C152.346 109.267 152.879 110.082 152.871 110.776L152.112 167.702C152.109 168.016 151.994 168.249 151.809 168.385L153.514 167.149C153.699 167.013 153.813 166.779 153.818 166.465L154.575 109.538C154.585 108.845 154.051 108.031 153.384 107.718Z" fill="#BABBBD"/>
<path d="M151.678 108.957C152.347 109.267 152.879 110.082 152.87 110.776L152.112 167.702C152.103 168.396 151.555 168.705 150.886 168.393L78.5998 134.685C77.93 134.373 77.3981 133.56 77.4068 132.866L78.1637 75.9402C78.1742 75.246 78.7218 74.9374 79.3898 75.2478L151.678 108.957Z" fill="#E9EAF0"/>
<path d="M208.08 212.841L208.075 214.885L195.743 220.461L195.748 218.417L208.08 212.841Z" fill="#C7C8C9"/>
<path d="M187.472 197.573L187.465 199.617L175.133 205.193L175.14 203.149L187.472 197.573Z" fill="#C7C8C9"/>
<path d="M175.14 203.149L175.133 205.193L169.983 201.377L169.988 199.333L175.14 203.149Z" fill="#CBCCCD"/>
<path d="M197.14 211.643L197.133 213.687L181.677 202.236L181.682 200.191L197.14 211.643Z" fill="#CBCCCD"/>
<path d="M195.748 218.417L195.743 220.461L190.591 216.645L190.596 214.601L195.748 218.417Z" fill="#CBCCCD"/>
<path d="M182.321 193.758L169.989 199.334L175.14 203.15L181.682 200.192L197.14 211.644L190.596 214.602L195.748 218.418L208.081 212.842L182.321 193.758Z" fill="#E9EAF0"/>
<path d="M200.527 209.079L186.705 198.77L180.765 178.684L194.587 188.993L200.527 209.079Z" fill="#DEE0E9"/>
<path d="M194.587 188.995L180.765 178.686L185.284 193.967L198.87 203.479L194.587 188.995Z" fill="#CBCCCD"/>
<path d="M202.065 208.383L196.022 187.95L194.587 188.993L200.527 209.079L202.065 208.383Z" fill="#C7C8C9"/>
<path d="M218.111 152.699L159.479 111.645C159.224 111.466 158.991 111.429 158.816 111.513L156.694 112.522C156.87 112.439 157.102 112.477 157.356 112.655L215.986 153.708C216.531 154.089 216.966 154.957 216.966 155.653L216.918 212.68C216.918 213.05 216.794 213.296 216.599 213.388L218.719 212.379C218.916 212.284 219.04 212.038 219.04 211.67L219.089 154.642C219.091 153.947 218.651 153.077 218.111 152.699Z" fill="#BABBBD"/>
<path d="M215.987 153.711C216.531 154.091 216.967 154.96 216.967 155.655L216.918 212.683C216.918 213.379 216.479 213.638 215.936 213.258L157.306 172.205C156.767 171.828 156.326 170.953 156.326 170.257L156.375 113.228C156.376 112.534 156.818 112.281 157.357 112.657L215.987 153.711Z" fill="#E9EAF0"/>
<path d="M151.677 108.956L79.3895 75.2473C78.7215 74.9368 78.1739 75.2455 78.1634 75.9397L77.4553 129.149L152.162 163.985L152.87 110.776C152.879 110.081 152.345 109.267 151.677 108.956Z" fill="#343339"/>
<path d="M78.79 128.312L79.4755 76.7453L151.12 110.153C151.339 110.256 151.55 110.61 151.549 110.758L150.867 161.923L78.79 128.312Z" fill="#4BAEFF"/>
<path d="M215.987 153.708L157.357 112.654C156.818 112.278 156.376 112.529 156.375 113.225L156.329 167.043L216.921 209.47L216.967 155.652C216.967 154.956 216.531 154.088 215.987 153.708Z" fill="#343339"/>
<path d="M157.651 166.357L157.695 114.506L215.23 154.792C215.404 154.914 215.646 155.369 215.645 155.65L215.601 206.934L157.651 166.357Z" fill="#4BAEFF"/>
<path d="M150.778 158.478L128.672 148.11V106.041L151.247 116.629L150.778 158.478Z" fill="#454545"/>
<path d="M85.0211 127.634L81.0447 125.769V83.7007L85.0211 85.5651V127.634Z" fill="#454545"/>
<path d="M85.0212 127.633L128.672 148.108V106.04L85.0212 85.5643V127.633Z" fill="#EAEAEA"/>
<path d="M151.247 116.629L81.0447 83.7009V78.0675L151.309 111.025L151.247 116.629Z" fill="#CBCCCD"/>
<path d="M132.646 118.93L129.865 117.626V114.194L132.646 115.498V118.93Z" fill="#CCCCEC"/>
<path d="M132.646 122.688L129.865 121.384V117.95L132.646 119.254V122.688Z" fill="#7272DF"/>
<path d="M129.865 125.464L132.646 126.769V130.203L129.865 128.898V125.464Z" fill="#1D1DAA"/>
<path d="M129.865 121.708L132.646 123.013V126.445L129.865 125.14V121.708Z" fill="#4242D5"/>
<path d="M135.691 128.197V131.631L132.91 130.324V126.892L135.691 128.197Z" fill="#0E0E98"/>
<path d="M138.736 129.625V133.057L135.954 131.753V128.32L138.736 129.625Z" fill="#050532"/>
<path d="M141.78 131.053V134.485L138.998 133.181V129.748L141.78 131.053Z" fill="black"/>
<path d="M135.691 124.441V127.874L132.91 126.569V123.137L135.691 124.441Z" fill="#1D1DAA"/>
<path d="M138.736 125.868V129.302L135.954 127.997V124.563L138.736 125.868Z" fill="#00009F"/>
<path d="M141.78 127.295V130.729L138.998 129.424V125.99L141.78 127.295Z" fill="#000028"/>
<path d="M135.691 120.681V124.114L132.91 122.809V119.377L135.691 120.681Z" fill="#3333B2"/>
<path d="M138.736 122.11V125.543L135.954 124.238V120.806L138.736 122.11Z" fill="#1D1DAA"/>
<path d="M141.78 123.538V126.971L138.998 125.666V122.234L141.78 123.538Z" fill="#000050"/>
<path d="M135.691 116.925V120.357L132.91 119.053V115.62L135.691 116.925Z" fill="#9999D9"/>
<path d="M138.736 118.355V121.787L135.954 120.482V117.048L138.736 118.355Z" fill="#1D3BAA"/>
<path d="M141.78 119.781V123.215L138.998 121.91V118.476L141.78 119.781Z" fill="#00009F"/>
<path d="M149.58 111.74V114.131L143.371 111.218V108.827L149.58 111.74Z" fill="#F1666A"/>
<path d="M140.498 143.696L137.52 142.299V144.711L140.498 146.108V143.696Z" fill="#FACCCD"/>
<path d="M143.477 145.095L140.498 143.698V146.11L143.477 147.507V145.095Z" fill="#F1666A"/>
<path d="M146.456 146.49L143.477 145.093V147.505L146.456 148.902V146.49Z" fill="#E70006"/>
<path d="M149.435 147.888L146.456 146.491V148.903L149.435 150.3V147.888Z" fill="#B80003"/>
<path d="M140.498 140.541L137.52 139.144V141.556L140.498 142.953V140.541Z" fill="#FFFFBF"/>
<path d="M143.477 141.938L140.498 140.541V142.953L143.477 144.351V141.938Z" fill="#FFE658"/>
<path d="M146.456 143.336L143.477 141.937V144.351L146.456 145.748V143.336Z" fill="#FFBF00"/>
<path d="M149.435 144.734L146.456 143.337V145.749L149.435 147.146V144.734Z" fill="#DB8617"/>
<path d="M140.498 137.389L137.52 135.99V138.404L140.498 139.801V137.389Z" fill="#D5FFD1"/>
<path d="M143.477 138.784L140.498 137.387V139.799L143.477 141.196V138.784Z" fill="#73F166"/>
<path d="M146.456 140.183L143.477 138.786V141.198L146.456 142.595V140.183Z" fill="#16E700"/>
<path d="M149.435 141.579L146.456 140.182V142.594L149.435 143.991V141.579Z" fill="#0B7400"/>
<path d="M133.239 139.638L129.865 138.057V133.894L133.239 135.475V139.638Z" fill="#CCCCEC"/>
<path d="M134.514 137.65V141.813L131.141 140.231V136.067L134.514 137.65Z" fill="#3333B2"/>
<path d="M124.196 135.292C120.044 133.344 117.911 127.584 115.652 121.487C113.404 115.412 111.078 109.132 106.663 107.061C102.443 105.089 100.294 108.886 98.011 112.909C95.7839 116.83 93.4748 120.892 89.1321 118.844L89.4966 118.065C93.1347 119.769 95.0445 116.389 97.2594 112.484C99.5249 108.492 102.092 103.966 107.03 106.28C111.765 108.5 114.152 114.95 116.461 121.185C118.657 127.115 120.731 132.715 124.561 134.513L124.196 135.292Z" fill="#3333B2"/>
<path d="M90.0982 119.79L88.5293 119.054V117.121L90.0982 117.855V119.79Z" fill="#DADADA"/>
<path d="M88.9617 118.779L89.6663 119.111V118.127L88.9617 117.798V118.779ZM90.5296 120.468L88.0984 119.327V116.441L90.5296 117.58V120.468Z" fill="#3333B2"/>
<path d="M125.162 136.236L123.595 135.5V133.565L125.162 134.301V136.236Z" fill="#DADADA"/>
<path d="M124.028 135.228L124.732 135.559V134.575L124.028 134.246V135.228ZM125.596 136.916L123.164 135.775V132.889L125.596 134.028V136.916Z" fill="#3333B2"/>
<path d="M213.587 201.833L197.695 190.7V148.862L213.587 159.995V201.833Z" fill="#EAEAEA"/>
<path d="M162.469 166.022L158.467 163.218V121.381L162.469 124.184V166.022Z" fill="#454545"/>
<path d="M161.676 165.465L197.695 190.7V148.862L161.676 123.627V165.465Z" fill="#EAEAEA"/>
<path d="M213.586 159.997L158.467 121.383V115.779L213.586 154.395V159.997Z" fill="#CBCCCD"/>
<path d="M211.848 154.907V157.299L206.117 153.265V150.873L211.848 154.907Z" fill="#F1666A"/>
<path d="M193.638 154.756L190.97 152.888V148.829L193.638 150.699V154.756Z" fill="#E5FFDC"/>
<path d="M193.638 159.2L190.97 157.33V153.274L193.638 155.142V159.2Z" fill="#9BF47D"/>
<path d="M190.97 162.155L193.638 164.024V168.081L190.97 166.213V162.155Z" fill="#4CC922"/>
<path d="M190.97 157.711L193.638 159.581V163.639L190.97 161.77V157.711Z" fill="#72EC49"/>
<path d="M196.558 166.068V170.127L193.889 168.257V164.199L196.558 166.068Z" fill="#3AB711"/>
<path d="M199.477 168.115V172.174L196.81 170.304V166.246L199.477 168.115Z" fill="#1A5108"/>
<path d="M202.398 170.161V174.219L199.73 172.35V168.291L202.398 170.161Z" fill="black"/>
<path d="M196.558 161.628V165.686L193.889 163.817V159.76L196.558 161.628Z" fill="#4CC922"/>
<path d="M199.477 163.674V167.732L196.81 165.863V161.806L199.477 163.674Z" fill="#2FBE00"/>
<path d="M202.398 165.719V169.777L199.73 167.907V163.851L202.398 165.719Z" fill="#124700"/>
<path d="M196.558 157.188V161.245L193.889 159.375V155.319L196.558 157.188Z" fill="#60D03C"/>
<path d="M199.477 159.232V163.289L196.81 161.421V157.362L199.477 159.232Z" fill="#4CC922"/>
<path d="M202.398 161.279V165.336L199.73 163.468V159.41L202.398 161.279Z" fill="#1C6F00"/>
<path d="M196.558 152.743V156.799L193.889 154.932V150.873L196.558 152.743Z" fill="#BAF0A9"/>
<path d="M199.477 154.79V158.849L196.81 156.979V152.92L199.477 154.79Z" fill="#81C922"/>
<path d="M202.398 156.837V160.895L199.73 159.026V154.967L202.398 156.837Z" fill="#2FBE00"/>
<path d="M193.718 179.715L190.862 177.712V180.564L193.718 182.566V179.715Z" fill="#FACCCD"/>
<path d="M196.575 181.717L193.718 179.714V182.566L196.575 184.568V181.717Z" fill="#F1666A"/>
<path d="M199.433 183.718L196.575 181.717V184.569L199.433 186.569V183.718Z" fill="#E70006"/>
<path d="M202.29 185.721L199.433 183.719V186.571L202.29 188.573V185.721Z" fill="#B80003"/>
<path d="M193.718 175.986L190.862 173.984V176.835L193.718 178.838V175.986Z" fill="#FFFFBF"/>
<path d="M196.575 177.988L193.718 175.986V178.837L196.575 180.839V177.988Z" fill="#FFE658"/>
<path d="M199.433 179.989L196.575 177.989V180.84L199.433 182.841V179.989Z" fill="#FFBF00"/>
<path d="M202.29 181.992L199.433 179.99V182.841L202.29 184.844V181.992Z" fill="#DB8617"/>
<path d="M193.718 172.258L190.862 170.255V173.107L193.718 175.109V172.258Z" fill="#D5FFD1"/>
<path d="M196.575 174.259L193.718 172.257V175.109L196.575 177.111V174.259Z" fill="#73F166"/>
<path d="M199.433 176.262L196.575 174.26V177.112L199.433 179.112V176.262Z" fill="#16E700"/>
<path d="M202.29 178.263L199.433 176.263V179.113L202.29 181.115V178.263Z" fill="#0B7400"/>
<path d="M169.713 139.672L167.044 137.802V133.744L169.713 135.613V139.672Z" fill="#FFCCC8"/>
<path d="M169.713 144.112L167.044 142.244V138.186L169.713 140.055V144.112Z" fill="#FD786D"/>
<path d="M167.044 147.068L169.713 148.937V152.996L167.044 151.126V147.068Z" fill="#F52616"/>
<path d="M167.044 142.628L169.713 144.496V148.554L167.044 146.685V142.628Z" fill="#FB483A"/>
<path d="M172.632 150.983V155.042L169.964 153.172V149.114L172.632 150.983Z" fill="#E31B0B"/>
<path d="M175.554 153.03V157.089L172.885 155.219V151.162L175.554 153.03Z" fill="#7D0F07"/>
<path d="M178.473 155.075V159.134L175.805 157.264V153.207L178.473 155.075Z" fill="black"/>
<path d="M172.632 146.541V150.599L169.964 148.73V144.673L172.632 146.541Z" fill="#F52616"/>
<path d="M175.554 148.588V152.644L172.885 150.775V146.718L175.554 148.588Z" fill="#EA1100"/>
<path d="M178.473 150.634V154.69L175.805 152.823V148.764L178.473 150.634Z" fill="#730800"/>
<path d="M172.632 142.1V146.157L169.964 144.289V140.231L172.632 142.1Z" fill="#F64133"/>
<path d="M175.554 144.146V148.203L172.885 146.335V142.277L175.554 144.146Z" fill="#F52616"/>
<path d="M178.473 146.191V150.25L175.805 148.38V144.322L178.473 146.191Z" fill="#9B0B00"/>
<path d="M172.632 137.657V141.716L169.964 139.846V135.788L172.632 137.657Z" fill="#FCA49D"/>
<path d="M175.554 139.704V143.762L172.885 141.893V137.834L175.554 139.704Z" fill="#F5163F"/>
<path d="M178.473 141.75V145.808L175.805 143.939V139.882L178.473 141.75Z" fill="#EA1100"/>
<path d="M169.793 164.632L166.937 162.629V165.481L169.793 167.483V164.632Z" fill="#FACCCD"/>
<path d="M172.651 166.632L169.793 164.629V167.481L172.651 169.483V166.632Z" fill="#F1666A"/>
<path d="M175.508 168.634L172.652 166.632V169.484L175.508 171.484V168.634Z" fill="#E70006"/>
<path d="M178.366 170.633L175.509 168.632V171.482L178.366 173.484V170.633Z" fill="#B80003"/>
<path d="M169.793 160.902L166.937 158.9V161.751L169.793 163.754V160.902Z" fill="#FFFFBF"/>
<path d="M172.651 162.903L169.793 160.901V163.753L172.651 165.755V162.903Z" fill="#FFE658"/>
<path d="M175.508 164.904L172.652 162.902V165.753L175.508 167.754V164.904Z" fill="#FFBF00"/>
<path d="M178.366 166.905L175.509 164.905V167.754L178.366 169.757V166.905Z" fill="#DB8617"/>
<path d="M169.793 157.173L166.937 155.17V158.022L169.793 160.024V157.173Z" fill="#D5FFD1"/>
<path d="M172.651 159.174L169.793 157.172V160.023L172.651 162.025V159.174Z" fill="#73F166"/>
<path d="M175.508 161.176L172.652 159.173V162.025L175.508 164.027V161.176Z" fill="#16E700"/>
<path d="M178.366 163.176L175.509 161.175V164.027L178.366 166.027V163.176Z" fill="#0B7400"/>
<path d="M160.951 128.109L159.193 126.878V124.202L160.951 125.435V128.109Z" fill="#636363"/>
<path d="M160.951 131.687L159.193 130.456V127.78L160.951 129.012V131.687Z" fill="#636363"/>
<path d="M159.193 134.936L160.951 136.169V138.843L159.193 137.611V134.936Z" fill="#636363"/>
<path d="M159.193 131.359L160.951 132.59V135.265L159.193 134.032V131.359Z" fill="#636363"/>
<path d="M215.601 206.934L157.651 166.357V163.289L215.601 203.867V206.934Z" fill="black"/>
<path d="M160.16 167.244L158.362 165.984V164.659L160.16 165.919V167.244Z" fill="#4589DF"/>
<path d="M150.867 161.923L78.79 128.312V125.295L150.907 158.924L150.867 161.923Z" fill="black"/>
<path d="M81.8307 128.882L79.6499 127.858V126.556L81.8307 127.58V128.882Z" fill="#4589DF"/>
<mask id="mask8_542_132" style="mask-type:luminance" maskUnits="userSpaceOnUse" x="77" y="186" width="24" height="9">
<path d="M85.658 194.863C88.3787 194.038 88.6769 193.273 89.5262 192.847C90.3756 192.423 93.7765 191.699 94.2021 191.105C94.6276 190.51 94.6276 190.51 94.6276 190.51L98.0704 189.999C98.8361 189.659 99.5162 189.277 99.729 188.555C99.9417 187.831 100.025 187.322 100.025 187.322L98.3686 186.875C98.2396 186.896 97.6884 186.684 96.8809 186.684C96.0717 186.684 91.354 186.854 90.8447 186.684C90.3337 186.514 88.2514 186.003 87.1038 186.047C85.9562 186.089 85.1469 186.471 84.5104 186.875C83.872 187.28 78.5578 190.552 77.7503 191.616C76.9428 192.678 85.658 194.863 85.658 194.863Z" fill="white"/>
</mask>
<g mask="url(#mask8_542_132)">
<path d="M85.658 194.863C88.3787 194.038 88.6769 193.273 89.5262 192.847C90.3756 192.423 93.7765 191.699 94.2021 191.105C94.6276 190.51 94.6276 190.51 94.6276 190.51L98.0704 189.999C98.8361 189.659 99.5162 189.277 99.729 188.555C99.9417 187.831 100.025 187.322 100.025 187.322L98.3686 186.875C98.2396 186.896 97.6884 186.684 96.8809 186.684C96.0717 186.684 91.354 186.854 90.8447 186.684C90.3337 186.514 88.2514 186.003 87.1038 186.047C85.9562 186.089 85.1469 186.471 84.5104 186.875C83.872 187.28 78.5578 190.552 77.7503 191.616C76.9428 192.678 85.658 194.863 85.658 194.863Z" fill="url(#paint8_linear_542_132)"/>
</g>
<path d="M47.3986 159.22C45.0197 158.994 42.8797 159.086 40.3857 159.199C37.8917 159.313 30.2405 159.935 28.3709 167.984C26.4995 176.033 28.186 188.92 29.7155 197.478C31.2468 206.036 32.8322 215.389 32.0404 219.584C31.2468 223.777 28.0727 239.93 29.4888 245.769C30.9068 251.606 34.9861 256.197 41.9013 258.804C48.8165 261.412 61.6824 262.319 66.728 260.109C71.7718 257.897 79.0829 250.926 79.2538 244.011C79.423 237.096 77.6126 232.633 77.3283 231.388C77.0458 230.141 75.7395 215.672 77.0999 212.271C78.4602 208.87 80.1031 202.635 80.8967 198.045C81.6902 193.454 84.0134 180.475 79.423 176.223C74.8326 171.973 68.5505 168.408 66.8693 167.316C65.188 166.226 63.2905 165.004 63.2905 165.004L47.3986 159.22Z" fill="#4BAEFF"/>
<mask id="mask9_542_132" style="mask-type:luminance" maskUnits="userSpaceOnUse" x="48" y="129" width="32" height="38">
<path d="M78.8037 131.896C78.8037 131.896 79.4821 138.867 78.8037 141.164C78.1217 143.459 73.8714 156.977 72.5111 158.762C71.1507 160.547 67.9766 159.527 67.8074 159.867C67.6365 160.207 65.936 166.556 65.936 166.896C65.936 167.236 48.989 162.079 48.3663 161.285C47.742 160.492 49.3866 158.053 50.0092 156.013C50.6336 153.972 50.3493 148.815 50.4627 146.321C50.5761 143.827 52.9009 133.398 59.5318 130.281C66.1627 127.163 78.8037 131.896 78.8037 131.896Z" fill="white"/>
</mask>
<g mask="url(#mask9_542_132)">
<path d="M78.8037 131.896C78.8037 131.896 79.4821 138.867 78.8037 141.164C78.1217 143.459 73.8714 156.977 72.5111 158.762C71.1507 160.547 67.9766 159.527 67.8074 159.867C67.6365 160.207 65.936 166.556 65.936 166.896C65.936 167.236 48.989 162.079 48.3663 161.285C47.742 160.492 49.3866 158.053 50.0092 156.013C50.6336 153.972 50.3493 148.815 50.4627 146.321C50.5761 143.827 52.9009 133.398 59.5318 130.281C66.1627 127.163 78.8037 131.896 78.8037 131.896Z" fill="url(#paint9_linear_542_132)"/>
</g>
<path d="M61.6299 154.02C63.2362 152.937 66.447 149.44 67.7498 147.286C69.0543 145.132 70.4147 142.98 71.4908 143.149C72.5687 143.32 72.6245 144.454 72.3419 146.097C72.0576 147.739 72.1151 148.42 72.1151 148.42L73.929 148.817C73.929 148.817 74.7225 144.85 75.516 143.658C76.3096 142.469 78.2368 141.449 78.5194 140.428C78.8036 139.408 78.8595 135.894 79.4263 134.818C79.9931 133.74 80.3332 132.946 80.389 132.38C80.4466 131.813 78.5193 125.579 73.6447 122.801C68.77 120.025 63.3862 120.365 60.8922 121.441C56.1309 121.612 50.1226 127.392 48.9331 130.679C47.7419 133.967 46.9554 140.542 48.2268 144.736C49.5 148.931 50.4941 150.696 50.4069 152.386C50.3197 154.076 52.1631 153.012 53.8078 153.408C55.4507 153.805 59.0592 155.753 61.6299 154.02Z" fill="#854D50"/>
<mask id="mask10_542_132" style="mask-type:luminance" maskUnits="userSpaceOnUse" x="69" y="143" width="4" height="8">
<path d="M69.6769 145.189C69.138 146.937 68.7142 148.676 69.3944 149.865C70.0746 151.056 70.7547 150.658 71.1227 149.837C71.4907 149.016 71.2361 147.087 71.8588 145.814C72.4831 144.539 72.8878 143.382 71.9303 143.306C70.9728 143.229 70.0275 144.055 69.6769 145.189Z" fill="white"/>
</mask>
<g mask="url(#mask10_542_132)">
<path d="M69.6769 145.189C69.138 146.937 68.7142 148.676 69.3944 149.865C70.0746 151.056 70.7547 150.658 71.1227 149.837C71.4907 149.016 71.2361 147.087 71.8588 145.814C72.4831 144.539 72.8878 143.382 71.9303 143.306C70.9728 143.229 70.0275 144.055 69.6769 145.189Z" fill="url(#paint10_linear_542_132)"/>
</g>
<mask id="mask11_542_132" style="mask-type:luminance" maskUnits="userSpaceOnUse" x="109" y="187" width="15" height="16">
<path d="M110.457 197.652C110.239 196.81 109.517 196.745 109.524 194.942C109.533 193.138 109.988 192.089 110.22 191.091C110.452 190.095 112.287 188.431 112.66 188.229C113.035 188.025 115.431 188.377 115.431 188.377C115.431 188.377 117.191 187.219 117.841 187.186C118.49 187.153 119.395 187.071 120.013 187.72C120.632 188.37 120.56 189.434 120.56 189.434C120.56 189.434 121.713 189.774 122.024 190.594C122.332 191.412 122.519 192.772 122.519 192.772C122.519 192.772 123.443 193.208 123.541 193.997C123.64 194.785 123.384 195.65 123.529 195.842C123.672 196.035 124.209 196.766 123.558 197.676C122.91 198.587 119.687 201.508 119.019 201.967C118.349 202.427 117.236 202.392 116.723 202.961C116.211 203.531 110.457 197.652 110.457 197.652Z" fill="white"/>
</mask>
<g mask="url(#mask11_542_132)">
<path d="M110.457 197.652C110.239 196.81 109.517 196.745 109.524 194.942C109.533 193.138 109.988 192.089 110.22 191.091C110.452 190.095 112.287 188.431 112.66 188.229C113.035 188.025 115.431 188.377 115.431 188.377C115.431 188.377 117.191 187.219 117.841 187.186C118.49 187.153 119.395 187.071 120.013 187.72C120.632 188.37 120.56 189.434 120.56 189.434C120.56 189.434 121.713 189.774 122.024 190.594C122.332 191.412 122.519 192.772 122.519 192.772C122.519 192.772 123.443 193.208 123.541 193.997C123.64 194.785 123.384 195.65 123.529 195.842C123.672 196.035 124.209 196.766 123.558 197.676C122.91 198.587 119.687 201.508 119.019 201.967C118.349 202.427 117.236 202.392 116.723 202.961C116.211 203.531 110.457 197.652 110.457 197.652Z" fill="url(#paint11_linear_542_132)"/>
</g>
<path d="M116.352 187.823C116.352 187.823 113.771 178.644 113.15 178.768C112.531 178.892 111.856 180.554 112.505 182.282C113.153 184.009 114.966 189.217 114.966 189.217L116.352 187.823Z" fill="black"/>
<path d="M59.6557 301.381V283.949H51.7812V301.372V301.374V301.381H51.783C51.79 301.96 52.1754 302.539 52.9428 302.982C54.4863 303.873 56.9785 303.877 58.5115 302.992C59.2807 302.548 59.6609 301.964 59.6557 301.381Z" fill="#575665"/>
<path d="M58.5116 285.562C56.9786 286.446 54.4864 286.443 52.9429 285.552C51.4012 284.661 51.3941 283.222 52.9272 282.338C54.4584 281.451 56.9525 281.457 58.4943 282.348C60.036 283.237 60.0447 284.676 58.5116 285.562Z" fill="#3C3B4C"/>
<path d="M58.9684 283.66H58.9702V259.757H52.4683V283.66H52.4701C52.4753 284.137 52.7927 284.617 53.4275 284.984C54.7007 285.717 56.7586 285.721 58.0248 284.99C58.6596 284.624 58.9736 284.143 58.9684 283.66Z" fill="#575665"/>
<path d="M58.0248 261.09C56.7586 261.82 54.7007 261.817 53.4275 261.081C52.1544 260.345 52.1474 259.157 53.4136 258.426C54.678 257.696 56.736 257.699 58.0109 258.435C59.2841 259.17 59.2893 260.359 58.0248 261.09Z" fill="#3C3B4C"/>
<path d="M56.3159 261.78V285.377C56.3159 285.377 57.549 285.194 57.8751 284.88C57.8751 284.058 57.8751 261.391 57.8751 261.391C57.8751 261.391 57.3153 261.722 56.3159 261.78Z" fill="#696875"/>
<path d="M56.2473 286.51V303.427C56.2473 303.427 57.7664 303.202 58.1676 302.816C58.1676 301.803 58.1676 286.03 58.1676 286.03C58.1676 286.03 57.4786 286.439 56.2473 286.51Z" fill="#696875"/>
<path d="M62.5508 279.526C62.8856 278.745 62.9885 277.194 63.1455 274.517C63.3391 271.212 63.6024 266.686 64.6977 264.97C66.0058 262.921 79.5623 255.179 88.8843 250.18L92.4195 262.319L93.9142 261.883L89.8436 247.903L88.9977 248.354C86.5874 249.64 65.3849 261 63.3845 264.133C62.0712 266.189 61.8043 270.757 61.5898 274.428C61.4782 276.354 61.3631 278.343 61.1189 278.91L62.5508 279.526Z" fill="#A3A2AA"/>
<path d="M65.6498 261.273L65.1772 260.999C64.0767 260.364 64.2162 259.245 65.4859 258.51L92.1979 243.089C93.4676 242.356 95.407 242.274 96.5057 242.911L96.9801 243.183C98.0789 243.818 97.9411 244.938 96.6697 245.672L69.9594 261.093C68.6897 261.827 66.7503 261.908 65.6498 261.273Z" fill="#302F40"/>
<path d="M97.7217 244.257V242.15C97.7217 242.15 64.4346 257.5 64.4346 257.78C64.4346 258.062 64.4346 259.93 64.4346 259.93C64.4346 259.93 70.3487 259.678 71.287 259.276C72.2235 258.875 97.7217 244.257 97.7217 244.257Z" fill="#302F40"/>
<path d="M65.6498 259.132L65.1772 258.858C64.0767 258.223 64.2162 257.103 65.4859 256.371L92.1979 240.95C93.4676 240.216 95.407 240.136 96.5057 240.771L96.9801 241.044C98.0789 241.679 97.9411 242.799 96.6697 243.531L69.9594 258.954C68.6897 259.687 66.7503 259.766 65.6498 259.132Z" fill="#3D3B4E"/>
<path d="M67.5198 258.781C68.336 258.781 69.1539 258.579 69.7643 258.226L96.4764 242.805C97.0118 242.495 97.3327 242.096 97.3327 241.735C97.3327 241.382 97.0345 241.136 96.7851 240.992L96.3124 240.718C95.8921 240.475 95.2974 240.343 94.6364 240.343C93.8219 240.343 93.0022 240.545 92.3918 240.897L65.6816 256.318C65.1444 256.629 64.8252 257.028 64.8252 257.389C64.8252 257.743 65.1217 257.987 65.3711 258.132L65.8455 258.406C66.2658 258.649 66.8605 258.781 67.5198 258.781Z" fill="#4A485C"/>
<path d="M10.7348 193.103C11.9295 196.485 13.1311 199.873 14.1462 203.424C14.8124 205.76 14.8909 208.545 15.0513 211.259C15.6077 220.61 16.3925 236.98 16.8059 246.421C16.8861 248.222 16.9628 250.022 17.0395 251.824C16.5774 252.808 14.0921 258.791 13.8288 258.828C12.9027 258.957 12.2783 258.269 12.2295 257.11C11.9487 250.376 11.6504 243.653 11.3347 236.94C11.1132 232.186 10.5011 220.514 10.236 215.788C10.1401 214.103 10.0442 212.422 9.92212 210.755C9.882 210.219 9.83836 209.687 9.78953 209.159C9.74592 208.679 9.57848 208.749 9.81916 209.344C9.75986 209.197 9.74946 208.965 9.71109 208.801C8.77453 204.732 7.31122 201.059 5.9962 197.338C5.57239 196.139 6.48451 193.975 7.71232 192.878C9.05525 191.68 10.3092 191.9 10.7348 193.103Z" fill="#2E2D3E"/>
<path d="M53.1379 217.15C51.2787 214.925 10.0579 192.245 10.0579 192.245C10.0579 192.245 12.51 212.11 12.6059 218.048C12.7036 223.987 12.1036 257.092 12.6791 258.428C13.2564 259.764 55.7818 283.389 55.7818 283.389L56.2684 254.75L53.1379 217.15Z" fill="#2E2D3E"/>
<path d="M53.5709 217.832C54.7656 221.214 55.9672 224.602 56.9805 228.153C57.6485 230.489 58.1089 240.193 58.2711 242.906C58.8257 252.258 59.2286 261.709 59.6419 271.15C59.7204 272.951 59.799 274.751 59.8757 276.552C59.4135 277.536 56.9265 283.52 56.6631 283.556C55.7371 283.686 55.1126 282.999 55.0638 281.839C54.783 275.105 54.4848 268.382 54.1709 261.669C53.9476 256.915 53.7191 252.163 53.454 247.435C53.3581 245.753 52.8785 237.151 52.7564 235.484C52.718 234.948 52.6744 234.418 52.6256 233.888C52.5802 233.408 52.4146 233.478 52.6535 234.073C52.5942 233.926 52.5838 233.696 52.5472 233.53C51.6106 229.461 50.1455 225.788 48.8323 222.067C48.4084 220.868 49.3189 218.704 50.5485 217.607C51.8896 216.409 53.1454 216.629 53.5709 217.832Z" fill="#232234"/>
<path d="M78.4393 178.74C75.4343 180.214 70.7305 185.202 69.7103 192.4C68.69 199.599 70.4463 201.753 72.091 203.905C73.7339 206.059 89.6048 220.796 94.1951 222.212C98.7872 223.63 101.564 221.25 102.584 218.756C103.604 216.262 102.017 209.233 100.488 206.91C98.9564 204.587 88.7188 194.137 87.2084 190.942C86.38 189.19 83.3541 180.843 81.6763 179.152C79.9985 177.46 78.4393 178.74 78.4393 178.74Z" fill="#75C8FF"/>
<path d="M117.117 199.319C114.909 197.831 112.194 197.735 111.266 198.201C110.338 198.666 104.199 202.545 103.732 202.843C103.264 203.141 97.2281 206.286 96.7171 207.817C96.2078 209.347 95.3672 221.876 97.9763 222.541C100.587 223.205 103.903 220.144 106.282 218.402C108.662 216.66 117.178 207.964 118.577 206.623C119.978 205.281 118.994 200.583 117.117 199.319Z" fill="#75C8FF"/>
<path d="M137.046 216.12L136.877 216.247L136.91 216.218L137.046 216.12Z" fill="#A0A1A5"/>
<path d="M135.224 218.229L135.213 218.249L135.218 218.24L135.224 218.229Z" fill="#838487"/>
<mask id="mask12_542_132" style="mask-type:luminance" maskUnits="userSpaceOnUse" x="134" y="212" width="17" height="13">
<path d="M141.981 213.291L141.881 213.322L141.904 213.313L141.909 213.31L141.981 213.291ZM134.603 220.903V220.909L134.61 221.033C134.621 221.249 134.675 221.463 134.783 221.652C134.973 221.985 135.234 222.286 135.486 222.532C135.913 222.947 136.314 223.209 136.314 223.209C136.591 223.363 136.89 223.497 137.204 223.612C137.361 223.671 137.519 223.725 137.683 223.772C137.849 223.82 138.015 223.865 138.185 223.902L138.496 223.966L138.536 223.975L138.606 223.985L138.646 223.994H138.653L138.698 224.003L138.766 224.013L138.962 224.041L139.132 224.064L139.201 224.072L139.225 224.076L139.359 224.09L139.492 224.1L139.588 224.106L139.663 224.111L139.696 224.114L139.745 224.118L139.804 224.12L139.991 224.128L140.16 224.132H140.198H140.491C140.671 224.128 140.85 224.123 141.028 224.106L141.388 224.076L141.52 224.062L141.742 224.034H141.745C141.954 224.013 142.179 223.975 142.401 223.921L142.485 223.902L142.535 223.888L142.729 223.833L142.741 223.832L143.207 223.697L143.521 223.584L143.651 223.537C143.946 223.418 144.227 223.288 144.488 223.136L144.508 223.125V223.127L148.54 220.78C149.576 220.18 150.134 219.414 150.216 218.64L150.218 218.614L150.225 218.533L150.232 218.364L150.235 217.989C150.207 216.871 149.838 215.888 149.192 215.021C148.863 214.583 148.435 214.222 147.971 213.924L147.617 213.713C146.205 212.931 144.625 212.696 144.567 212.696L144.339 212.701H144.131L143.693 212.743L143.5 212.774C143.337 212.799 143.186 212.83 143.037 212.867L143.018 212.872L142.976 212.884L142.654 212.978L142.575 213.001C142.382 213.071 142.124 213.181 141.932 213.264L141.679 213.397L141.522 213.481L140.022 214.353H140.018L139.764 214.505L139.741 214.518L137.486 215.827L137.402 215.879L137.397 215.882C137.148 216.036 137.024 216.12 136.844 216.263L136.618 216.449L136.532 216.519L136.462 216.585L136.281 216.763L136.208 216.833C136.042 217.007 135.986 217.068 135.843 217.257L135.66 217.501L135.616 217.562L135.531 217.696L135.484 217.769L135.383 217.93L135.301 218.083L135.278 218.129L135.212 218.254L135.214 218.247L135.18 218.319L135.123 218.446L135.036 218.634L134.891 219.029L134.868 219.098C134.682 219.686 134.591 220.297 134.603 220.903Z" fill="white"/>
</mask>
<g mask="url(#mask12_542_132)">
<path d="M141.981 213.291L141.881 213.322L141.904 213.313L141.909 213.31L141.981 213.291ZM134.603 220.903V220.909L134.61 221.033C134.621 221.249 134.675 221.463 134.783 221.652C134.973 221.985 135.234 222.286 135.486 222.532C135.913 222.947 136.314 223.209 136.314 223.209C136.591 223.363 136.89 223.497 137.204 223.612C137.361 223.671 137.519 223.725 137.683 223.772C137.849 223.82 138.015 223.865 138.185 223.902L138.496 223.966L138.536 223.975L138.606 223.985L138.646 223.994H138.653L138.698 224.003L138.766 224.013L138.962 224.041L139.132 224.064L139.201 224.072L139.225 224.076L139.359 224.09L139.492 224.1L139.588 224.106L139.663 224.111L139.696 224.114L139.745 224.118L139.804 224.12L139.991 224.128L140.16 224.132H140.198H140.491C140.671 224.128 140.85 224.123 141.028 224.106L141.388 224.076L141.52 224.062L141.742 224.034H141.745C141.954 224.013 142.179 223.975 142.401 223.921L142.485 223.902L142.535 223.888L142.729 223.833L142.741 223.832L143.207 223.697L143.521 223.584L143.651 223.537C143.946 223.418 144.227 223.288 144.488 223.136L144.508 223.125V223.127L148.54 220.78C149.576 220.18 150.134 219.414 150.216 218.64L150.218 218.614L150.225 218.533L150.232 218.364L150.235 217.989C150.207 216.871 149.838 215.888 149.192 215.021C148.863 214.583 148.435 214.222 147.971 213.924L147.617 213.713C146.205 212.931 144.625 212.696 144.567 212.696L144.339 212.701H144.131L143.693 212.743L143.5 212.774C143.337 212.799 143.186 212.83 143.037 212.867L143.018 212.872L142.976 212.884L142.654 212.978L142.575 213.001C142.382 213.071 142.124 213.181 141.932 213.264L141.679 213.397L141.522 213.481L140.022 214.353H140.018L139.764 214.505L139.741 214.518L137.486 215.827L137.402 215.879L137.397 215.882C137.148 216.036 137.024 216.12 136.844 216.263L136.618 216.449L136.532 216.519L136.462 216.585L136.281 216.763L136.208 216.833C136.042 217.007 135.986 217.068 135.843 217.257L135.66 217.501L135.616 217.562L135.531 217.696L135.484 217.769L135.383 217.93L135.301 218.083L135.278 218.129L135.212 218.254L135.214 218.247L135.18 218.319L135.123 218.446L135.036 218.634L134.891 219.029L134.868 219.098C134.682 219.686 134.591 220.297 134.603 220.903Z" fill="url(#paint12_linear_542_132)"/>
</g>
<path d="M142.438 215.587L142.504 215.702L142.622 215.636C143.079 215.369 144.74 214.42 145.125 214.239C146.878 213.414 147.879 213.923 147.924 213.939L148.165 214.057L147.971 213.927L147.617 213.716C147.146 213.611 146.269 213.553 145.068 214.118C144.656 214.31 142.877 215.329 142.504 215.55L142.438 215.587Z" fill="#CECECE"/>
<path d="M139.741 214.522C139.846 214.47 140.519 214.245 142.584 215.772C145.055 217.602 145.744 218.943 146.274 221.083L146.297 221.167L146.864 220.856C148.538 219.941 149.784 219.262 150.232 218.368L150.235 217.993C149.96 219.013 148.645 219.728 146.799 220.738L146.384 220.964C145.856 218.887 145.12 217.485 142.664 215.666L142.622 215.636L142.504 215.551C141.102 214.536 140.378 214.346 140.022 214.356H140.019L139.764 214.508L139.741 214.522Z" fill="#CECECE"/>
<defs>
<linearGradient id="paint0_linear_542_132" x1="1083.74" y1="167.479" x2="1070.13" y2="167.479" gradientUnits="userSpaceOnUse">
<stop stop-color="#FEB9B8"/>
<stop offset="0.0494792" stop-color="#FEB9B8"/>
<stop offset="0.992188" stop-color="#FEA5A4"/>
<stop offset="1" stop-color="#FEA5A4"/>
</linearGradient>
<linearGradient id="paint1_linear_542_132" x1="1094.42" y1="162.378" x2="1083.89" y2="162.378" gradientUnits="userSpaceOnUse">
<stop stop-color="#FEB9B8"/>
<stop offset="0.0494792" stop-color="#FEB9B8"/>
<stop offset="0.992188" stop-color="#FEA5A4"/>
<stop offset="1" stop-color="#FEA5A4"/>
</linearGradient>
<linearGradient id="paint2_linear_542_132" x1="1093.09" y1="20.4783" x2="1070.79" y2="20.4783" gradientUnits="userSpaceOnUse">
<stop stop-color="#FEB9B8"/>
<stop offset="0.0494792" stop-color="#FEB9B8"/>
<stop offset="0.992188" stop-color="#FEA5A4"/>
<stop offset="1" stop-color="#FEA5A4"/>
</linearGradient>
<linearGradient id="paint3_linear_542_132" x1="1093.09" y1="20.477" x2="1070.79" y2="20.477" gradientUnits="userSpaceOnUse">
<stop stop-color="#F19388"/>
<stop offset="0.0494792" stop-color="#F19388"/>
<stop offset="0.992188" stop-color="#F18379"/>
<stop offset="1" stop-color="#F18379"/>
</linearGradient>
<linearGradient id="paint4_linear_542_132" x1="1057.07" y1="60.6979" x2="1045.38" y2="67.7021" gradientUnits="userSpaceOnUse">
<stop stop-color="#FEB9B8"/>
<stop offset="0.0494792" stop-color="#FEB9B8"/>
<stop offset="0.992188" stop-color="#FEA5A4"/>
<stop offset="1" stop-color="#FEA5A4"/>
</linearGradient>
<linearGradient id="paint5_linear_542_132" x1="1072.14" y1="61.3911" x2="1054.51" y2="61.3911" gradientUnits="userSpaceOnUse">
<stop stop-color="#FEB9B8"/>
<stop offset="0.0494792" stop-color="#FEB9B8"/>
<stop offset="0.992188" stop-color="#FEA5A4"/>
<stop offset="1" stop-color="#FEA5A4"/>
</linearGradient>
<linearGradient id="paint6_linear_542_132" x1="1070.48" y1="50.6947" x2="1054.73" y2="50.6947" gradientUnits="userSpaceOnUse">
<stop stop-color="#FEB9B8"/>
<stop offset="0.0494792" stop-color="#FEB9B8"/>
<stop offset="0.992188" stop-color="#FEA5A4"/>
<stop offset="1" stop-color="#FEA5A4"/>
</linearGradient>
<linearGradient id="paint7_linear_542_132" x1="1093.09" y1="20.4797" x2="1070.79" y2="20.4797" gradientUnits="userSpaceOnUse">
<stop stop-color="#F19388"/>
<stop offset="0.0494792" stop-color="#F19388"/>
<stop offset="0.992188" stop-color="#F18379"/>
<stop offset="1" stop-color="#F18379"/>
</linearGradient>
<linearGradient id="paint8_linear_542_132" x1="77.698" y1="190.454" x2="100.026" y2="190.454" gradientUnits="userSpaceOnUse">
<stop stop-color="#FFDBA7"/>
<stop offset="1" stop-color="#FFC5A4"/>
</linearGradient>
<linearGradient id="paint9_linear_542_132" x1="48.2268" y1="148.065" x2="79.1045" y2="148.065" gradientUnits="userSpaceOnUse">
<stop stop-color="#FFDBA7"/>
<stop offset="1" stop-color="#FFC5A4"/>
</linearGradient>
<linearGradient id="paint10_linear_542_132" x1="69.0421" y1="146.958" x2="72.5003" y2="146.958" gradientUnits="userSpaceOnUse">
<stop stop-color="#FFDBA7"/>
<stop offset="1" stop-color="#FFC5A4"/>
</linearGradient>
<linearGradient id="paint11_linear_542_132" x1="109.576" y1="193.894" x2="123.999" y2="196.015" gradientUnits="userSpaceOnUse">
<stop stop-color="#FFDBA7"/>
<stop offset="1" stop-color="#FFC5A4"/>
</linearGradient>
<linearGradient id="paint12_linear_542_132" x1="144.708" y1="223.01" x2="139.785" y2="214.483" gradientUnits="userSpaceOnUse">
<stop stop-color="#CECECE"/>
<stop offset="0.1" stop-color="#CECECE"/>
<stop offset="0.531632" stop-color="#EAEAEA"/>
<stop offset="0.645946" stop-color="#EAEAEA"/>
<stop offset="1" stop-color="#FCFCFC"/>
</linearGradient>
</defs>
</svg>
