<svg width="256" height="260" viewBox="0 0 256 260" fill="none" xmlns="http://www.w3.org/2000/svg">
<path d="M3.80063 128.811L3.15828 130L3.80063 131.189L64.6437 243.772L65.3524 245.083H66.8431H188.529H190.02L190.729 243.772L251.572 131.189L252.214 130L251.572 128.811L190.729 16.2281L190.02 14.9167H188.529H66.8431H65.3524L64.6437 16.2281L3.80063 128.811Z" fill="#28559A" stroke="#7AC7FF" stroke-width="5"/>
<path d="M96.0527 143.5H149.727L159.331 150.424V190.465H96.0527V143.5Z" fill="#28559A" stroke="white" stroke-width="3"/>
<path d="M155.833 187.492L155.45 187.23H154.986H103.486H103.001L102.608 187.514L92.5853 194.753H76.5698L76.5698 167.084H178.402L178.157 194.753H166.444L155.833 187.492Z" fill="#28559A" stroke="white" stroke-width="3"/>
<rect x="111.641" y="189.086" width="31.7191" height="25.3539" fill="#7AC7FF" stroke="white" stroke-width="3"/>
<path d="M144.281 204.644H178.132V195.386" stroke="white" stroke-width="3"/>
<path d="M110.43 204.933H76.5785V195.675" stroke="white" stroke-width="3"/>
<path d="M160.192 152.285H178.422V166.462" stroke="white" stroke-width="3"/>
<path d="M94.8076 152.285H76.5784V166.462" stroke="white" stroke-width="3"/>
<path d="M118.109 197.694H137.278" stroke="white" stroke-width="3" stroke-linecap="round"/>
<path d="M117.663 207.251H136.831" stroke="white" stroke-width="3" stroke-linecap="round"/>
<path d="M83.0972 175.369H89.0705" stroke="white" stroke-width="3" stroke-linecap="round"/>
<path d="M96.2529 175.432H102.226" stroke="white" stroke-width="3" stroke-linecap="round"/>
<path d="M155.798 175.532H174.74" stroke="white" stroke-width="3" stroke-linecap="round"/>
<path d="M80.6662 69.9091H84.848L86.9503 72.6136L89.0185 75.0227L92.9162 79.9091H88.3253L85.6435 76.6136L84.2685 74.6591L80.6662 69.9091ZM93.2685 66.3636C93.2685 68.9015 92.7874 71.0606 91.8253 72.8409C90.8707 74.6212 89.5677 75.9811 87.9162 76.9205C86.2723 77.8523 84.4238 78.3182 82.3707 78.3182C80.3026 78.3182 78.4465 77.8485 76.8026 76.9091C75.1586 75.9697 73.8594 74.6098 72.9048 72.8295C71.9503 71.0492 71.473 68.8939 71.473 66.3636C71.473 63.8258 71.9503 61.6667 72.9048 59.8864C73.8594 58.1061 75.1586 56.75 76.8026 55.8182C78.4465 54.8788 80.3026 54.4091 82.3707 54.4091C84.4238 54.4091 86.2723 54.8788 87.9162 55.8182C89.5677 56.75 90.8707 58.1061 91.8253 59.8864C92.7874 61.6667 93.2685 63.8258 93.2685 66.3636ZM88.2798 66.3636C88.2798 64.7197 88.0336 63.3333 87.5412 62.2045C87.0563 61.0758 86.3707 60.2197 85.4844 59.6364C84.598 59.053 83.5601 58.7614 82.3707 58.7614C81.1813 58.7614 80.1435 59.053 79.2571 59.6364C78.3707 60.2197 77.6813 61.0758 77.1889 62.2045C76.7041 63.3333 76.4616 64.7197 76.4616 66.3636C76.4616 68.0076 76.7041 69.3939 77.1889 70.5227C77.6813 71.6515 78.3707 72.5076 79.2571 73.0909C80.1435 73.6742 81.1813 73.9659 82.3707 73.9659C83.5601 73.9659 84.598 73.6742 85.4844 73.0909C86.3707 72.5076 87.0563 71.6515 87.5412 70.5227C88.0336 69.3939 88.2798 68.0076 88.2798 66.3636ZM108.016 70.5682V60.5455H112.857V78H108.209V74.8295H108.027C107.633 75.8523 106.978 76.6742 106.061 77.2955C105.152 77.9167 104.042 78.2273 102.732 78.2273C101.565 78.2273 100.538 77.9621 99.652 77.4318C98.7656 76.9015 98.0724 76.1477 97.5724 75.1705C97.08 74.1932 96.83 73.0227 96.8224 71.6591V60.5455H101.663V70.7955C101.671 71.8258 101.947 72.6402 102.493 73.2386C103.038 73.8371 103.769 74.1364 104.686 74.1364C105.269 74.1364 105.815 74.0038 106.322 73.7386C106.83 73.4659 107.239 73.0644 107.55 72.5341C107.868 72.0038 108.023 71.3485 108.016 70.5682ZM121.706 78.3295C120.592 78.3295 119.6 78.1364 118.729 77.75C117.857 77.3561 117.168 76.7765 116.661 76.0114C116.161 75.2386 115.911 74.2765 115.911 73.125C115.911 72.1553 116.089 71.3409 116.445 70.6818C116.801 70.0227 117.286 69.4924 117.899 69.0909C118.513 68.6894 119.21 68.3864 119.99 68.1818C120.778 67.9773 121.604 67.8333 122.467 67.75C123.482 67.6439 124.301 67.5455 124.922 67.4545C125.543 67.3561 125.994 67.2121 126.274 67.0227C126.554 66.8333 126.695 66.553 126.695 66.1818V66.1136C126.695 65.3939 126.467 64.8371 126.013 64.4432C125.566 64.0492 124.929 63.8523 124.104 63.8523C123.232 63.8523 122.539 64.0455 122.024 64.4318C121.509 64.8106 121.168 65.2879 121.001 65.8636L116.524 65.5C116.751 64.4394 117.198 63.5227 117.865 62.75C118.532 61.9697 119.392 61.3712 120.445 60.9545C121.505 60.5303 122.732 60.3182 124.126 60.3182C125.096 60.3182 126.024 60.4318 126.911 60.6591C127.804 60.8864 128.596 61.2386 129.286 61.7159C129.982 62.1932 130.532 62.8068 130.933 63.5568C131.335 64.2992 131.536 65.1894 131.536 66.2273V78H126.945V75.5795H126.808C126.528 76.125 126.153 76.6061 125.683 77.0227C125.214 77.4318 124.649 77.7538 123.99 77.9886C123.331 78.2159 122.57 78.3295 121.706 78.3295ZM123.092 74.9886C123.804 74.9886 124.433 74.8485 124.979 74.5682C125.524 74.2803 125.952 73.8939 126.263 73.4091C126.573 72.9242 126.729 72.375 126.729 71.7614V69.9091C126.577 70.0076 126.369 70.0985 126.104 70.1818C125.846 70.2576 125.554 70.3295 125.229 70.3977C124.903 70.4583 124.577 70.5152 124.251 70.5682C123.926 70.6136 123.63 70.6553 123.365 70.6932C122.797 70.7765 122.301 70.9091 121.876 71.0909C121.452 71.2727 121.123 71.5189 120.888 71.8295C120.653 72.1326 120.536 72.5114 120.536 72.9659C120.536 73.625 120.774 74.1288 121.251 74.4773C121.736 74.8182 122.35 74.9886 123.092 74.9886ZM126.092 58.0455H122.501L122.251 56C123.054 55.9621 123.626 55.8561 123.967 55.6818C124.308 55.5 124.475 55.2614 124.467 54.9659C124.475 54.5568 124.259 54.2803 123.82 54.1364C123.388 53.9924 122.846 53.9205 122.195 53.9205L122.32 51.7273C124.342 51.7273 125.88 52 126.933 52.5455C127.994 53.0909 128.52 53.8485 128.513 54.8182C128.52 55.5076 128.27 56.0303 127.763 56.3864C127.263 56.7348 126.706 56.9545 126.092 57.0455V58.0455ZM140.132 67.9091V78H135.291V60.5455H139.905V63.625H140.109C140.496 62.6098 141.143 61.8068 142.053 61.2159C142.962 60.6174 144.064 60.3182 145.359 60.3182C146.571 60.3182 147.628 60.5833 148.53 61.1136C149.431 61.6439 150.132 62.4015 150.632 63.3864C151.132 64.3636 151.382 65.5303 151.382 66.8864V78H146.541V67.75C146.549 66.6818 146.276 65.8485 145.723 65.25C145.17 64.6439 144.409 64.3409 143.439 64.3409C142.787 64.3409 142.212 64.4811 141.712 64.7614C141.219 65.0417 140.833 65.4508 140.553 65.9886C140.28 66.5189 140.14 67.1591 140.132 67.9091ZM167.445 54.7273V78H162.604V54.7273H167.445ZM174.311 84.5455C173.697 84.5455 173.122 84.4962 172.584 84.3977C172.054 84.3068 171.614 84.1894 171.266 84.0455L172.357 80.4318C172.925 80.6061 173.436 80.7008 173.891 80.7159C174.353 80.7311 174.75 80.625 175.084 80.3977C175.425 80.1705 175.701 79.7841 175.913 79.2386L176.197 78.5L169.936 60.5455H175.027L178.641 73.3636H178.822L182.47 60.5455H187.595L180.811 79.8864C180.485 80.8258 180.042 81.6439 179.482 82.3409C178.929 83.0455 178.228 83.5871 177.379 83.9659C176.531 84.3523 175.508 84.5455 174.311 84.5455ZM176.993 58.2955L179.402 53.125H183.879L180.413 58.2955H176.993ZM79.9787 117V99.5455H84.5923V102.625H84.7969C85.1605 101.602 85.7666 100.795 86.6151 100.205C87.4635 99.6136 88.4787 99.3182 89.6605 99.3182C90.8575 99.3182 91.8764 99.6174 92.7173 100.216C93.5582 100.807 94.1188 101.61 94.3991 102.625H94.581C94.937 101.625 95.581 100.826 96.5128 100.227C97.4522 99.6212 98.562 99.3182 99.8423 99.3182C101.471 99.3182 102.793 99.8371 103.808 100.875C104.831 101.905 105.342 103.367 105.342 105.261V117H100.513V106.216C100.513 105.246 100.255 104.519 99.7401 104.034C99.2249 103.549 98.581 103.307 97.8082 103.307C96.9295 103.307 96.2438 103.587 95.7514 104.148C95.259 104.701 95.0128 105.432 95.0128 106.341V117H90.3196V106.114C90.3196 105.258 90.0734 104.576 89.581 104.068C89.0961 103.561 88.456 103.307 87.6605 103.307C87.1226 103.307 86.6378 103.443 86.206 103.716C85.7817 103.981 85.4446 104.356 85.1946 104.841C84.9446 105.318 84.8196 105.879 84.8196 106.523V117H79.9787ZM114.143 117.33C113.03 117.33 112.037 117.136 111.166 116.75C110.295 116.356 109.606 115.777 109.098 115.011C108.598 114.239 108.348 113.277 108.348 112.125C108.348 111.155 108.526 110.341 108.882 109.682C109.238 109.023 109.723 108.492 110.337 108.091C110.95 107.689 111.647 107.386 112.428 107.182C113.215 106.977 114.041 106.833 114.905 106.75C115.92 106.644 116.738 106.545 117.359 106.455C117.981 106.356 118.431 106.212 118.712 106.023C118.992 105.833 119.132 105.553 119.132 105.182V105.114C119.132 104.394 118.905 103.837 118.45 103.443C118.003 103.049 117.367 102.852 116.541 102.852C115.67 102.852 114.977 103.045 114.462 103.432C113.946 103.811 113.606 104.288 113.439 104.864L108.962 104.5C109.189 103.439 109.636 102.523 110.303 101.75C110.969 100.97 111.829 100.371 112.882 99.9545C113.943 99.5303 115.17 99.3182 116.564 99.3182C117.534 99.3182 118.462 99.4318 119.348 99.6591C120.242 99.8864 121.034 100.239 121.723 100.716C122.42 101.193 122.969 101.807 123.371 102.557C123.772 103.299 123.973 104.189 123.973 105.227V117H119.382V114.58H119.246C118.965 115.125 118.59 115.606 118.121 116.023C117.651 116.432 117.087 116.754 116.428 116.989C115.768 117.216 115.007 117.33 114.143 117.33ZM115.53 113.989C116.242 113.989 116.871 113.848 117.416 113.568C117.962 113.28 118.39 112.894 118.7 112.409C119.011 111.924 119.166 111.375 119.166 110.761V108.909C119.015 109.008 118.806 109.098 118.541 109.182C118.284 109.258 117.992 109.33 117.666 109.398C117.34 109.458 117.015 109.515 116.689 109.568C116.363 109.614 116.068 109.655 115.803 109.693C115.234 109.777 114.738 109.909 114.314 110.091C113.89 110.273 113.56 110.519 113.325 110.83C113.09 111.133 112.973 111.511 112.973 111.966C112.973 112.625 113.212 113.129 113.689 113.477C114.174 113.818 114.787 113.989 115.53 113.989ZM115.007 97.2955L117.416 92.125H121.893L118.428 97.2955H115.007ZM130.092 123.545C129.479 123.545 128.903 123.496 128.365 123.398C127.835 123.307 127.395 123.189 127.047 123.045L128.138 119.432C128.706 119.606 129.217 119.701 129.672 119.716C130.134 119.731 130.532 119.625 130.865 119.398C131.206 119.17 131.482 118.784 131.695 118.239L131.979 117.5L125.717 99.5455H130.808L134.422 112.364H134.604L138.251 99.5455H143.376L136.592 118.886C136.267 119.826 135.823 120.644 135.263 121.341C134.71 122.045 134.009 122.587 133.161 122.966C132.312 123.352 131.289 123.545 130.092 123.545ZM153.26 117V99.5455H158.101V117H153.26ZM155.692 97.2955C154.972 97.2955 154.355 97.0568 153.839 96.5795C153.332 96.0947 153.078 95.5152 153.078 94.8409C153.078 94.1742 153.332 93.6023 153.839 93.125C154.355 92.6402 154.972 92.3977 155.692 92.3977C156.411 92.3977 157.025 92.6402 157.533 93.125C158.048 93.6023 158.305 94.1742 158.305 94.8409C158.305 95.5152 158.048 96.0947 157.533 96.5795C157.025 97.0568 156.411 97.2955 155.692 97.2955ZM166.82 106.909V117H161.979V99.5455H166.592V102.625H166.797C167.183 101.61 167.831 100.807 168.74 100.216C169.649 99.6174 170.751 99.3182 172.047 99.3182C173.259 99.3182 174.316 99.5833 175.217 100.114C176.119 100.644 176.82 101.402 177.32 102.386C177.82 103.364 178.07 104.53 178.07 105.886V117H173.229V106.75C173.236 105.682 172.964 104.848 172.411 104.25C171.857 103.644 171.096 103.341 170.126 103.341C169.475 103.341 168.899 103.481 168.399 103.761C167.907 104.042 167.52 104.451 167.24 104.989C166.967 105.519 166.827 106.159 166.82 106.909Z" fill="white"/>
</svg>
