<svg width="256" height="260" viewBox="0 0 256 260" fill="none" xmlns="http://www.w3.org/2000/svg">
<path d="M3.80063 128.811L3.15828 130L3.80063 131.189L64.6437 243.772L65.3524 245.083H66.8431H188.529H190.02L190.729 243.772L251.572 131.189L252.214 130L251.572 128.811L190.729 16.2281L190.02 14.9167H188.529H66.8431H65.3524L64.6437 16.2281L3.80063 128.811Z" fill="#28559A" stroke="#7AC7FF" stroke-width="5"/>
<path d="M188.708 121.042V59.375C188.708 56.5466 188.708 55.1324 187.829 54.2537C186.951 53.375 185.537 53.375 182.708 53.375H76.2915C73.4631 53.375 72.0489 53.375 71.1702 54.2537C70.2915 55.1324 70.2915 56.5466 70.2915 59.375V199.625C70.2915 202.453 70.2915 203.868 71.1702 204.746C72.0489 205.625 73.4631 205.625 76.2915 205.625H129.5" stroke="white" stroke-width="4"/>
<circle cx="176.021" cy="176.021" r="21.1458" stroke="white" stroke-width="4"/>
<path d="M205.625 205.625L192.938 192.938" stroke="white" stroke-width="4" stroke-linecap="round"/>
<path d="M108.179 78.7273V102H103.338V78.7273H108.179ZM112.057 102V84.5455H116.898V102H112.057ZM114.489 82.2955C113.769 82.2955 113.152 82.0568 112.636 81.5795C112.129 81.0947 111.875 80.5152 111.875 79.8409C111.875 79.1742 112.129 78.6023 112.636 78.125C113.152 77.6402 113.769 77.3977 114.489 77.3977C115.208 77.3977 115.822 77.6402 116.33 78.125C116.845 78.6023 117.102 79.1742 117.102 79.8409C117.102 80.5152 116.845 81.0947 116.33 81.5795C115.822 82.0568 115.208 82.2955 114.489 82.2955ZM114.523 108.534C113.803 108.534 113.186 108.295 112.67 107.818C112.155 107.341 111.898 106.765 111.898 106.091C111.898 105.417 112.155 104.841 112.67 104.364C113.186 103.886 113.803 103.648 114.523 103.648C115.242 103.648 115.856 103.886 116.364 104.364C116.879 104.841 117.136 105.417 117.136 106.091C117.136 106.765 116.879 107.341 116.364 107.818C115.856 108.295 115.242 108.534 114.523 108.534ZM128.662 102.341C126.874 102.341 125.336 101.962 124.048 101.205C122.768 100.439 121.783 99.3788 121.094 98.0227C120.412 96.6667 120.071 95.1061 120.071 93.3409C120.071 91.553 120.416 89.9848 121.105 88.6364C121.802 87.2803 122.791 86.2235 124.071 85.4659C125.351 84.7008 126.874 84.3182 128.639 84.3182C130.162 84.3182 131.495 84.5947 132.639 85.1477C133.783 85.7008 134.688 86.4773 135.355 87.4773C136.022 88.4773 136.389 89.6515 136.457 91H131.889C131.76 90.1288 131.42 89.428 130.866 88.8977C130.321 88.3598 129.605 88.0909 128.719 88.0909C127.969 88.0909 127.313 88.2955 126.753 88.7045C126.2 89.1061 125.768 89.6932 125.457 90.4659C125.147 91.2386 124.991 92.1742 124.991 93.2727C124.991 94.3864 125.143 95.3333 125.446 96.1136C125.757 96.8939 126.192 97.4886 126.753 97.8977C127.313 98.3068 127.969 98.5114 128.719 98.5114C129.272 98.5114 129.768 98.3977 130.207 98.1705C130.654 97.9432 131.022 97.6136 131.31 97.1818C131.605 96.7424 131.798 96.2159 131.889 95.6023H136.457C136.382 96.9356 136.018 98.1098 135.366 99.125C134.723 100.133 133.832 100.92 132.696 101.489C131.56 102.057 130.215 102.341 128.662 102.341ZM144.398 91.9091V102H139.557V78.7273H144.261V87.625H144.466C144.86 86.5947 145.496 85.7879 146.375 85.2045C147.254 84.6136 148.356 84.3182 149.682 84.3182C150.894 84.3182 151.951 84.5833 152.852 85.1136C153.761 85.6364 154.466 86.3902 154.966 87.375C155.473 88.3523 155.723 89.5227 155.716 90.8864V102H150.875V91.75C150.883 90.6742 150.61 89.8371 150.057 89.2386C149.511 88.6402 148.746 88.3409 147.761 88.3409C147.102 88.3409 146.519 88.4811 146.011 88.7614C145.511 89.0417 145.117 89.4508 144.83 89.9886C144.549 90.5189 144.405 91.1591 144.398 91.9091ZM125.626 128.523L121.195 128.795C121.119 128.417 120.956 128.076 120.706 127.773C120.456 127.462 120.126 127.216 119.717 127.034C119.316 126.845 118.835 126.75 118.274 126.75C117.524 126.75 116.892 126.909 116.376 127.227C115.861 127.538 115.604 127.955 115.604 128.477C115.604 128.894 115.77 129.246 116.104 129.534C116.437 129.822 117.009 130.053 117.82 130.227L120.979 130.864C122.676 131.212 123.941 131.773 124.774 132.545C125.607 133.318 126.024 134.333 126.024 135.591C126.024 136.735 125.687 137.739 125.013 138.602C124.346 139.466 123.429 140.14 122.263 140.625C121.104 141.102 119.767 141.341 118.251 141.341C115.941 141.341 114.1 140.86 112.729 139.898C111.365 138.928 110.566 137.61 110.331 135.943L115.092 135.693C115.236 136.398 115.585 136.936 116.138 137.307C116.691 137.67 117.399 137.852 118.263 137.852C119.111 137.852 119.793 137.689 120.308 137.364C120.831 137.03 121.096 136.602 121.104 136.08C121.096 135.64 120.911 135.28 120.547 135C120.183 134.712 119.623 134.492 118.865 134.341L115.842 133.739C114.138 133.398 112.869 132.807 112.036 131.966C111.21 131.125 110.797 130.053 110.797 128.75C110.797 127.629 111.1 126.663 111.706 125.852C112.32 125.042 113.179 124.417 114.286 123.977C115.399 123.538 116.702 123.318 118.195 123.318C120.399 123.318 122.134 123.784 123.399 124.716C124.672 125.648 125.414 126.917 125.626 128.523ZM147.527 122.58H150.334C150.326 123.898 150.129 125.004 149.743 125.898C149.357 126.784 148.701 127.451 147.777 127.898C146.86 128.345 145.607 128.568 144.016 128.568V126.409C145.069 126.409 145.841 126.269 146.334 125.989C146.834 125.708 147.156 125.288 147.3 124.727C147.451 124.159 147.527 123.443 147.527 122.58ZM140.379 133.568V123.545H145.209V141H140.572V137.83H140.391C139.997 138.852 139.341 139.674 138.425 140.295C137.516 140.917 136.406 141.227 135.095 141.227C133.929 141.227 132.902 140.962 132.016 140.432C131.129 139.902 130.436 139.148 129.936 138.17C129.444 137.193 129.194 136.023 129.186 134.659V123.545H134.027V133.795C134.027 134.826 134.3 135.64 134.845 136.239C135.398 136.837 136.133 137.136 137.05 137.136C137.633 137.136 138.175 137.004 138.675 136.739C139.182 136.466 139.591 136.064 139.902 135.534C140.22 135.004 140.379 134.348 140.379 133.568ZM139.004 121.045H135.413L135.163 119C135.966 118.962 136.538 118.856 136.879 118.682C137.22 118.5 137.387 118.261 137.379 117.966C137.387 117.557 137.171 117.28 136.732 117.136C136.3 116.992 135.758 116.92 135.107 116.92L135.232 114.727C137.254 114.727 138.792 115 139.845 115.545C140.906 116.091 141.432 116.848 141.425 117.818C141.432 118.508 141.182 119.03 140.675 119.386C140.175 119.735 139.618 119.955 139.004 120.045V121.045ZM117.119 180V162.545H121.96V180H117.119ZM119.551 160.295C118.831 160.295 118.214 160.057 117.699 159.58C117.191 159.095 116.938 158.515 116.938 157.841C116.938 157.174 117.191 156.602 117.699 156.125C118.214 155.64 118.831 155.398 119.551 155.398C120.271 155.398 120.884 155.64 121.392 156.125C121.907 156.602 122.165 157.174 122.165 157.841C122.165 158.515 121.907 159.095 121.392 159.58C120.884 160.057 120.271 160.295 119.551 160.295ZM130.679 169.909V180H125.838V162.545H130.452V165.625H130.656C131.043 164.61 131.69 163.807 132.599 163.216C133.509 162.617 134.611 162.318 135.906 162.318C137.118 162.318 138.175 162.583 139.077 163.114C139.978 163.644 140.679 164.402 141.179 165.386C141.679 166.364 141.929 167.53 141.929 168.886V180H137.088V169.75C137.096 168.682 136.823 167.848 136.27 167.25C135.717 166.644 134.955 166.341 133.986 166.341C133.334 166.341 132.759 166.481 132.259 166.761C131.766 167.042 131.38 167.451 131.099 167.989C130.827 168.519 130.687 169.159 130.679 169.909Z" fill="white"/>
</svg>
