<svg width="256" height="260" viewBox="0 0 256 260" fill="none" xmlns="http://www.w3.org/2000/svg">
<path d="M3.80063 128.811L3.15828 130L3.80063 131.189L64.6437 243.772L65.3524 245.083H66.8431H188.529H190.02L190.729 243.772L251.572 131.189L252.214 130L251.572 128.811L190.729 16.2281L190.02 14.9167H188.529H66.8431H65.3524L64.6437 16.2281L3.80063 128.811Z" fill="#28559A" stroke="#7AC7FF" stroke-width="5"/>
<path d="M70.1634 68V44.7273H79.4815C81.1937 44.7273 82.6217 44.9811 83.7656 45.4886C84.9096 45.9962 85.7694 46.7008 86.3452 47.6023C86.9209 48.4962 87.2088 49.5265 87.2088 50.6932C87.2088 51.6023 87.027 52.4015 86.6634 53.0909C86.2997 53.7727 85.7997 54.3333 85.1634 54.7727C84.5346 55.2045 83.8149 55.5114 83.0043 55.6932V55.9205C83.8906 55.9583 84.7202 56.2083 85.4929 56.6705C86.2732 57.1326 86.9058 57.7803 87.3906 58.6136C87.8755 59.4394 88.1179 60.4242 88.1179 61.5682C88.1179 62.803 87.8111 63.9053 87.1974 64.875C86.5914 65.8371 85.6937 66.5985 84.5043 67.1591C83.3149 67.7197 81.849 68 80.1065 68H70.1634ZM75.0838 63.9773H79.0952C80.4664 63.9773 81.4664 63.7159 82.0952 63.1932C82.724 62.6629 83.0384 61.9583 83.0384 61.0795C83.0384 60.4356 82.883 59.8674 82.5724 59.375C82.2618 58.8826 81.8187 58.4962 81.2429 58.2159C80.6747 57.9356 79.9967 57.7955 79.2088 57.7955H75.0838V63.9773ZM75.0838 54.4659H78.7315C79.4058 54.4659 80.0043 54.3485 80.527 54.1136C81.0573 53.8712 81.474 53.5303 81.777 53.0909C82.0876 52.6515 82.2429 52.125 82.2429 51.5114C82.2429 50.6705 81.9437 49.9924 81.3452 49.4773C80.7543 48.9621 79.9134 48.7045 78.8224 48.7045H75.0838V54.4659ZM96.206 68.3295C95.0923 68.3295 94.0999 68.1364 93.2287 67.75C92.3575 67.3561 91.6681 66.7765 91.1605 66.0114C90.6605 65.2386 90.4105 64.2765 90.4105 63.125C90.4105 62.1553 90.5885 61.3409 90.9446 60.6818C91.3007 60.0227 91.7855 59.4924 92.3991 59.0909C93.0128 58.6894 93.7098 58.3864 94.4901 58.1818C95.2779 57.9773 96.1037 57.8333 96.9673 57.75C97.9825 57.6439 98.8007 57.5455 99.4219 57.4545C100.043 57.3561 100.494 57.2121 100.774 57.0227C101.054 56.8333 101.195 56.553 101.195 56.1818V56.1136C101.195 55.3939 100.967 54.8371 100.513 54.4432C100.066 54.0492 99.4295 53.8523 98.6037 53.8523C97.7325 53.8523 97.0393 54.0455 96.5241 54.4318C96.009 54.8106 95.6681 55.2879 95.5014 55.8636L91.0241 55.5C91.2514 54.4394 91.6984 53.5227 92.3651 52.75C93.0317 51.9697 93.8916 51.3712 94.9446 50.9545C96.0052 50.5303 97.2325 50.3182 98.6264 50.3182C99.5961 50.3182 100.524 50.4318 101.411 50.6591C102.304 50.8864 103.096 51.2386 103.786 51.7159C104.482 52.1932 105.032 52.8068 105.433 53.5568C105.835 54.2992 106.036 55.1894 106.036 56.2273V68H101.445V65.5795H101.308C101.028 66.125 100.653 66.6061 100.183 67.0227C99.7135 67.4318 99.1491 67.7538 98.4901 67.9886C97.831 68.2159 97.0696 68.3295 96.206 68.3295ZM97.5923 64.9886C98.3045 64.9886 98.9332 64.8485 99.4787 64.5682C100.024 64.2803 100.452 63.8939 100.763 63.4091C101.073 62.9242 101.229 62.375 101.229 61.7614V59.9091C101.077 60.0076 100.869 60.0985 100.604 60.1818C100.346 60.2576 100.054 60.3295 99.7287 60.3977C99.4029 60.4583 99.0772 60.5152 98.7514 60.5682C98.4257 60.6136 98.1302 60.6553 97.8651 60.6932C97.2969 60.7765 96.8007 60.9091 96.3764 61.0909C95.9522 61.2727 95.6226 61.5189 95.3878 61.8295C95.1529 62.1326 95.0355 62.5114 95.0355 62.9659C95.0355 63.625 95.2741 64.1288 95.7514 64.4773C96.2363 64.8182 96.8499 64.9886 97.5923 64.9886ZM97.0696 48.2955L99.4787 43.125H103.956L100.49 48.2955H97.0696ZM117.678 68.3409C115.912 68.3409 114.386 67.9659 113.098 67.2159C111.818 66.4583 110.829 65.4053 110.132 64.0568C109.435 62.7008 109.087 61.1288 109.087 59.3409C109.087 57.5379 109.435 55.9621 110.132 54.6136C110.829 53.2576 111.818 52.2045 113.098 51.4545C114.386 50.697 115.912 50.3182 117.678 50.3182C119.443 50.3182 120.965 50.697 122.246 51.4545C123.534 52.2045 124.526 53.2576 125.223 54.6136C125.92 55.9621 126.268 57.5379 126.268 59.3409C126.268 61.1288 125.92 62.7008 125.223 64.0568C124.526 65.4053 123.534 66.4583 122.246 67.2159C120.965 67.9659 119.443 68.3409 117.678 68.3409ZM117.7 64.5909C118.503 64.5909 119.174 64.3636 119.712 63.9091C120.25 63.447 120.655 62.8182 120.928 62.0227C121.208 61.2273 121.348 60.322 121.348 59.3068C121.348 58.2917 121.208 57.3864 120.928 56.5909C120.655 55.7955 120.25 55.1667 119.712 54.7045C119.174 54.2424 118.503 54.0114 117.7 54.0114C116.89 54.0114 116.208 54.2424 115.655 54.7045C115.109 55.1667 114.696 55.7955 114.416 56.5909C114.143 57.3864 114.007 58.2917 114.007 59.3068C114.007 60.322 114.143 61.2273 114.416 62.0227C114.696 62.8182 115.109 63.447 115.655 63.9091C116.208 64.3636 116.89 64.5909 117.7 64.5909ZM144.709 68.3409C142.921 68.3409 141.383 67.9621 140.095 67.2045C138.815 66.4394 137.83 65.3788 137.141 64.0227C136.459 62.6667 136.118 61.1061 136.118 59.3409C136.118 57.553 136.463 55.9848 137.152 54.6364C137.849 53.2803 138.838 52.2235 140.118 51.4659C141.398 50.7008 142.921 50.3182 144.686 50.3182C146.209 50.3182 147.542 50.5947 148.686 51.1477C149.83 51.7008 150.735 52.4773 151.402 53.4773C152.069 54.4773 152.436 55.6515 152.504 57H147.936C147.807 56.1288 147.466 55.428 146.913 54.8977C146.368 54.3598 145.652 54.0909 144.766 54.0909C144.016 54.0909 143.36 54.2955 142.8 54.7045C142.247 55.1061 141.815 55.6932 141.504 56.4659C141.194 57.2386 141.038 58.1742 141.038 59.2727C141.038 60.3864 141.19 61.3333 141.493 62.1136C141.804 62.8939 142.239 63.4886 142.8 63.8977C143.36 64.3068 144.016 64.5114 144.766 64.5114C145.319 64.5114 145.815 64.3977 146.254 64.1705C146.701 63.9432 147.069 63.6136 147.357 63.1818C147.652 62.7424 147.845 62.2159 147.936 61.6023H152.504C152.429 62.9356 152.065 64.1098 151.413 65.125C150.769 66.1326 149.879 66.9205 148.743 67.4886C147.607 68.0568 146.262 68.3409 144.709 68.3409ZM160.581 68.3295C159.467 68.3295 158.475 68.1364 157.604 67.75C156.732 67.3561 156.043 66.7765 155.536 66.0114C155.036 65.2386 154.786 64.2765 154.786 63.125C154.786 62.1553 154.964 61.3409 155.32 60.6818C155.676 60.0227 156.161 59.4924 156.774 59.0909C157.388 58.6894 158.085 58.3864 158.865 58.1818C159.653 57.9773 160.479 57.8333 161.342 57.75C162.357 57.6439 163.176 57.5455 163.797 57.4545C164.418 57.3561 164.869 57.2121 165.149 57.0227C165.429 56.8333 165.57 56.553 165.57 56.1818V56.1136C165.57 55.3939 165.342 54.8371 164.888 54.4432C164.441 54.0492 163.804 53.8523 162.979 53.8523C162.107 53.8523 161.414 54.0455 160.899 54.4318C160.384 54.8106 160.043 55.2879 159.876 55.8636L155.399 55.5C155.626 54.4394 156.073 53.5227 156.74 52.75C157.407 51.9697 158.267 51.3712 159.32 50.9545C160.38 50.5303 161.607 50.3182 163.001 50.3182C163.971 50.3182 164.899 50.4318 165.786 50.6591C166.679 50.8864 167.471 51.2386 168.161 51.7159C168.857 52.1932 169.407 52.8068 169.808 53.5568C170.21 54.2992 170.411 55.1894 170.411 56.2273V68H165.82V65.5795H165.683C165.403 66.125 165.028 66.6061 164.558 67.0227C164.089 67.4318 163.524 67.7538 162.865 67.9886C162.206 68.2159 161.445 68.3295 160.581 68.3295ZM161.967 64.9886C162.679 64.9886 163.308 64.8485 163.854 64.5682C164.399 64.2803 164.827 63.8939 165.138 63.4091C165.448 62.9242 165.604 62.375 165.604 61.7614V59.9091C165.452 60.0076 165.244 60.0985 164.979 60.1818C164.721 60.2576 164.429 60.3295 164.104 60.3977C163.778 60.4583 163.452 60.5152 163.126 60.5682C162.801 60.6136 162.505 60.6553 162.24 60.6932C161.672 60.7765 161.176 60.9091 160.751 61.0909C160.327 61.2727 159.998 61.5189 159.763 61.8295C159.528 62.1326 159.411 62.5114 159.411 62.9659C159.411 63.625 159.649 64.1288 160.126 64.4773C160.611 64.8182 161.225 64.9886 161.967 64.9886ZM161.445 48.2955L163.854 43.125H168.331L164.865 48.2955H161.445ZM182.053 68.3409C180.287 68.3409 178.761 67.9659 177.473 67.2159C176.193 66.4583 175.204 65.4053 174.507 64.0568C173.81 62.7008 173.462 61.1288 173.462 59.3409C173.462 57.5379 173.81 55.9621 174.507 54.6136C175.204 53.2576 176.193 52.2045 177.473 51.4545C178.761 50.697 180.287 50.3182 182.053 50.3182C183.818 50.3182 185.34 50.697 186.621 51.4545C187.909 52.2045 188.901 53.2576 189.598 54.6136C190.295 55.9621 190.643 57.5379 190.643 59.3409C190.643 61.1288 190.295 62.7008 189.598 64.0568C188.901 65.4053 187.909 66.4583 186.621 67.2159C185.34 67.9659 183.818 68.3409 182.053 68.3409ZM182.075 64.5909C182.878 64.5909 183.549 64.3636 184.087 63.9091C184.625 63.447 185.03 62.8182 185.303 62.0227C185.583 61.2273 185.723 60.322 185.723 59.3068C185.723 58.2917 185.583 57.3864 185.303 56.5909C185.03 55.7955 184.625 55.1667 184.087 54.7045C183.549 54.2424 182.878 54.0114 182.075 54.0114C181.265 54.0114 180.583 54.2424 180.03 54.7045C179.484 55.1667 179.071 55.7955 178.791 56.5909C178.518 57.3864 178.382 58.2917 178.382 59.3068C178.382 60.322 178.518 61.2273 178.791 62.0227C179.071 62.8182 179.484 63.447 180.03 63.9091C180.583 64.3636 181.265 64.5909 182.075 64.5909ZM71.2784 89.5455V93.1818H60.767V89.5455H71.2784ZM63.1534 85.3636H67.9943V101.636C67.9943 102.083 68.0625 102.432 68.1989 102.682C68.3352 102.924 68.5246 103.095 68.767 103.193C69.017 103.292 69.3049 103.341 69.6307 103.341C69.858 103.341 70.0852 103.322 70.3125 103.284C70.5398 103.239 70.714 103.205 70.8352 103.182L71.5966 106.784C71.3542 106.86 71.0133 106.947 70.5739 107.045C70.1345 107.152 69.6004 107.216 68.9716 107.239C67.8049 107.284 66.7822 107.129 65.9034 106.773C65.0322 106.417 64.3542 105.864 63.8693 105.114C63.3845 104.364 63.1458 103.417 63.1534 102.273V85.3636ZM82.1307 107.341C80.3655 107.341 78.839 106.966 77.5511 106.216C76.2708 105.458 75.2822 104.405 74.5852 103.057C73.8883 101.701 73.5398 100.129 73.5398 98.3409C73.5398 96.5379 73.8883 94.9621 74.5852 93.6136C75.2822 92.2576 76.2708 91.2045 77.5511 90.4545C78.839 89.697 80.3655 89.3182 82.1307 89.3182C83.8958 89.3182 85.4186 89.697 86.6989 90.4545C87.9867 91.2045 88.9792 92.2576 89.6761 93.6136C90.3731 94.9621 90.7216 96.5379 90.7216 98.3409C90.7216 100.129 90.3731 101.701 89.6761 103.057C88.9792 104.405 87.9867 105.458 86.6989 106.216C85.4186 106.966 83.8958 107.341 82.1307 107.341ZM82.1534 103.591C82.9564 103.591 83.6269 103.364 84.1648 102.909C84.7027 102.447 85.108 101.818 85.3807 101.023C85.661 100.227 85.8011 99.322 85.8011 98.3068C85.8011 97.2917 85.661 96.3864 85.3807 95.5909C85.108 94.7955 84.7027 94.1667 84.1648 93.7045C83.6269 93.2424 82.9564 93.0114 82.1534 93.0114C81.3428 93.0114 80.661 93.2424 80.108 93.7045C79.5625 94.1667 79.1496 94.7955 78.8693 95.5909C78.5966 96.3864 78.4602 97.2917 78.4602 98.3068C78.4602 99.322 78.5966 100.227 78.8693 101.023C79.1496 101.818 79.5625 102.447 80.108 102.909C80.661 103.364 81.3428 103.591 82.1534 103.591ZM83.483 84.2273L87.9602 87.7614H84.6307L82.108 85.7727L79.5511 87.7614H76.2216L80.6989 84.2273H83.483ZM88.9943 85.7727H86.483L86.267 84.0682C86.9186 84.0379 87.392 83.9545 87.6875 83.8182C87.983 83.6818 88.1307 83.4811 88.1307 83.2159C88.1307 82.8674 87.9451 82.6326 87.5739 82.5114C87.2027 82.3902 86.7405 82.3295 86.1875 82.3295L86.3011 80.5C87.839 80.5 89.0133 80.7273 89.8239 81.1818C90.6345 81.6288 91.0398 82.2614 91.0398 83.0795C91.0398 83.6477 90.8239 84.0833 90.392 84.3864C89.9678 84.6818 89.5019 84.8712 88.9943 84.9545V85.7727ZM98.7102 96.9091V107H93.8693V89.5455H98.483V92.625H98.6875C99.0739 91.6098 99.7216 90.8068 100.631 90.2159C101.54 89.6174 102.642 89.3182 103.938 89.3182C105.15 89.3182 106.206 89.5833 107.108 90.1136C108.009 90.6439 108.71 91.4015 109.21 92.3864C109.71 93.3636 109.96 94.5303 109.96 95.8864V107H105.119V96.75C105.127 95.6818 104.854 94.8485 104.301 94.25C103.748 93.6439 102.987 93.3409 102.017 93.3409C101.366 93.3409 100.79 93.4811 100.29 93.7614C99.7973 94.0417 99.411 94.4508 99.1307 94.9886C98.858 95.5189 98.7178 96.1591 98.7102 96.9091ZM121.639 113.909C120.071 113.909 118.726 113.693 117.605 113.261C116.491 112.837 115.605 112.258 114.946 111.523C114.287 110.788 113.859 109.962 113.662 109.045L118.139 108.443C118.276 108.792 118.491 109.117 118.787 109.42C119.082 109.723 119.473 109.966 119.957 110.148C120.45 110.337 121.048 110.432 121.753 110.432C122.806 110.432 123.673 110.174 124.355 109.659C125.045 109.152 125.389 108.299 125.389 107.102V103.909H125.185C124.973 104.394 124.654 104.852 124.23 105.284C123.806 105.716 123.26 106.068 122.594 106.341C121.927 106.614 121.132 106.75 120.207 106.75C118.897 106.75 117.704 106.447 116.628 105.841C115.56 105.227 114.707 104.292 114.071 103.034C113.442 101.769 113.128 100.17 113.128 98.2386C113.128 96.2614 113.45 94.6098 114.094 93.2841C114.738 91.9583 115.594 90.9659 116.662 90.3068C117.738 89.6477 118.916 89.3182 120.196 89.3182C121.173 89.3182 121.991 89.4848 122.651 89.8182C123.31 90.1439 123.84 90.553 124.241 91.0455C124.651 91.5303 124.965 92.0076 125.185 92.4773H125.366V89.5455H130.173V107.17C130.173 108.655 129.81 109.898 129.082 110.898C128.355 111.898 127.348 112.648 126.06 113.148C124.779 113.655 123.306 113.909 121.639 113.909ZM121.741 103.114C122.522 103.114 123.181 102.92 123.719 102.534C124.264 102.14 124.681 101.58 124.969 100.852C125.264 100.117 125.412 99.2386 125.412 98.2159C125.412 97.1932 125.268 96.3068 124.98 95.5568C124.692 94.7992 124.276 94.2121 123.73 93.7955C123.185 93.3788 122.522 93.1705 121.741 93.1705C120.946 93.1705 120.276 93.3864 119.73 93.8182C119.185 94.2424 118.772 94.8333 118.491 95.5909C118.211 96.3485 118.071 97.2235 118.071 98.2159C118.071 99.2235 118.211 100.095 118.491 100.83C118.779 101.557 119.192 102.121 119.73 102.523C120.276 102.917 120.946 103.114 121.741 103.114ZM146.273 96.9091V107H141.432V83.7273H146.136V92.625H146.341C146.735 91.5947 147.371 90.7879 148.25 90.2045C149.129 89.6136 150.231 89.3182 151.557 89.3182C152.769 89.3182 153.826 89.5833 154.727 90.1136C155.636 90.6364 156.341 91.3902 156.841 92.375C157.348 93.3523 157.598 94.5227 157.591 95.8864V107H152.75V96.75C152.758 95.6742 152.485 94.8371 151.932 94.2386C151.386 93.6402 150.621 93.3409 149.636 93.3409C148.977 93.3409 148.394 93.4811 147.886 93.7614C147.386 94.0417 146.992 94.4508 146.705 94.9886C146.424 95.5189 146.28 96.1591 146.273 96.9091ZM176.81 88.5227H179.696C179.696 90.447 179.238 91.947 178.321 93.0227C177.404 94.0909 175.931 94.625 173.901 94.625V92.6932C174.704 92.6932 175.313 92.5265 175.73 92.1932C176.147 91.8523 176.431 91.3712 176.582 90.75C176.734 90.1288 176.81 89.3864 176.81 88.5227ZM169.287 107.341C167.522 107.341 165.995 106.966 164.707 106.216C163.427 105.458 162.438 104.405 161.741 103.057C161.045 101.701 160.696 100.129 160.696 98.3409C160.696 96.5379 161.045 94.9621 161.741 93.6136C162.438 92.2576 163.427 91.2045 164.707 90.4545C165.995 89.697 167.522 89.3182 169.287 89.3182C171.052 89.3182 172.575 89.697 173.855 90.4545C175.143 91.2045 176.135 92.2576 176.832 93.6136C177.529 94.9621 177.878 96.5379 177.878 98.3409C177.878 100.129 177.529 101.701 176.832 103.057C176.135 104.405 175.143 105.458 173.855 106.216C172.575 106.966 171.052 107.341 169.287 107.341ZM169.31 103.591C170.113 103.591 170.783 103.364 171.321 102.909C171.859 102.447 172.264 101.818 172.537 101.023C172.817 100.227 172.957 99.322 172.957 98.3068C172.957 97.2917 172.817 96.3864 172.537 95.5909C172.264 94.7955 171.859 94.1667 171.321 93.7045C170.783 93.2424 170.113 93.0114 169.31 93.0114C168.499 93.0114 167.817 93.2424 167.264 93.7045C166.719 94.1667 166.306 94.7955 166.026 95.5909C165.753 96.3864 165.616 97.2917 165.616 98.3068C165.616 99.322 165.753 100.227 166.026 101.023C166.306 101.818 166.719 102.447 167.264 102.909C167.817 103.364 168.499 103.591 169.31 103.591ZM169.287 113.534C168.567 113.534 167.95 113.295 167.435 112.818C166.92 112.341 166.662 111.765 166.662 111.091C166.662 110.417 166.92 109.841 167.435 109.364C167.95 108.886 168.567 108.648 169.287 108.648C170.007 108.648 170.62 108.886 171.128 109.364C171.643 109.841 171.901 110.417 171.901 111.091C171.901 111.765 171.643 112.341 171.128 112.818C170.62 113.295 170.007 113.534 169.287 113.534ZM181.619 113.545V89.5455H186.392V92.4773H186.608C186.82 92.0076 187.127 91.5303 187.528 91.0455C187.938 90.553 188.468 90.1439 189.119 89.8182C189.778 89.4848 190.597 89.3182 191.574 89.3182C192.847 89.3182 194.021 89.6515 195.097 90.3182C196.172 90.9773 197.032 91.9735 197.676 93.3068C198.32 94.6326 198.642 96.2955 198.642 98.2955C198.642 100.242 198.328 101.886 197.699 103.227C197.078 104.561 196.229 105.572 195.153 106.261C194.085 106.943 192.888 107.284 191.562 107.284C190.623 107.284 189.824 107.129 189.165 106.818C188.513 106.508 187.979 106.117 187.562 105.648C187.146 105.17 186.828 104.689 186.608 104.205H186.46V113.545H181.619ZM186.358 98.2727C186.358 99.3106 186.502 100.216 186.79 100.989C187.078 101.761 187.494 102.364 188.04 102.795C188.585 103.22 189.248 103.432 190.028 103.432C190.816 103.432 191.483 103.216 192.028 102.784C192.574 102.345 192.987 101.739 193.267 100.966C193.555 100.186 193.699 99.2879 193.699 98.2727C193.699 97.2652 193.559 96.3788 193.278 95.6136C192.998 94.8485 192.585 94.25 192.04 93.8182C191.494 93.3864 190.824 93.1705 190.028 93.1705C189.241 93.1705 188.574 93.3788 188.028 93.7955C187.491 94.2121 187.078 94.803 186.79 95.5682C186.502 96.3333 186.358 97.2348 186.358 98.2727Z" fill="white"/>
<path d="M94.5 142C94.5 140.067 96.067 138.5 98 138.5H158C159.933 138.5 161.5 140.067 161.5 142V212.5L152 212.5C148.41 212.5 145.5 215.41 145.5 219V227.5L98 227.5C96.067 227.5 94.5 225.933 94.5 224V142Z" stroke="white" stroke-width="3"/>
<line x1="145.974" y1="227.906" x2="161.974" y2="212.906" stroke="white" stroke-width="3"/>
<mask id="path-5-inside-1_140_124" fill="white">
<path d="M105.542 166.451C103.851 164.759 102.699 162.605 102.232 160.259C101.766 157.913 102.005 155.482 102.921 153.272C103.836 151.062 105.386 149.173 107.374 147.845C109.363 146.516 111.701 145.807 114.093 145.807V157.9L105.542 166.451Z"/>
</mask>
<path d="M105.542 166.451C103.851 164.759 102.699 162.605 102.232 160.259C101.766 157.913 102.005 155.482 102.921 153.272C103.836 151.062 105.386 149.173 107.374 147.845C109.363 146.516 111.701 145.807 114.093 145.807V157.9L105.542 166.451Z" stroke="white" stroke-width="4" mask="url(#path-5-inside-1_140_124)"/>
<mask id="path-6-inside-2_140_124" fill="white">
<path d="M119.467 145.805C118.043 145.275 116.536 145.002 115.017 145L115 157.798L119.467 145.805Z"/>
</mask>
<path d="M119.467 145.805C118.043 145.275 116.536 145.002 115.017 145L115 157.798L119.467 145.805Z" stroke="white" stroke-width="4" mask="url(#path-6-inside-2_140_124)"/>
<mask id="path-7-inside-3_140_124" fill="white">
<path d="M124.977 157.798C124.977 155.97 124.418 154.185 123.375 152.683C122.333 151.182 120.856 150.034 119.143 149.395L116.008 157.798L124.977 157.798Z"/>
</mask>
<path d="M124.977 157.798C124.977 155.97 124.418 154.185 123.375 152.683C122.333 151.182 120.856 150.034 119.143 149.395L116.008 157.798L124.977 157.798Z" stroke="white" stroke-width="4" mask="url(#path-7-inside-3_140_124)"/>
<mask id="path-8-inside-4_140_124" fill="white">
<path d="M106.55 167.458C108.241 169.149 110.396 170.301 112.742 170.767C115.087 171.234 117.519 170.994 119.729 170.079C121.938 169.164 123.827 167.614 125.156 165.625C126.485 163.636 127.194 161.298 127.194 158.906L115.101 158.906L106.55 167.458Z"/>
</mask>
<path d="M106.55 167.458C108.241 169.149 110.396 170.301 112.742 170.767C115.087 171.234 117.519 170.994 119.729 170.079C121.938 169.164 123.827 167.614 125.156 165.625C126.485 163.636 127.194 161.298 127.194 158.906L115.101 158.906L106.55 167.458Z" stroke="white" stroke-width="4" mask="url(#path-8-inside-4_140_124)"/>
<line x1="134" y1="170" x2="134" y2="171" stroke="white" stroke-width="2"/>
<line x1="139" y1="160" x2="139" y2="171" stroke="white" stroke-width="2"/>
<line x1="144" y1="167" x2="144" y2="171" stroke="white" stroke-width="2"/>
<line x1="149" y1="157" x2="149" y2="171" stroke="white" stroke-width="2"/>
<line x1="154" y1="151" x2="154" y2="171" stroke="white" stroke-width="2"/>
<line x1="115" y1="185.5" x2="155" y2="185.5" stroke="white"/>
<line x1="115" y1="190.5" x2="155" y2="190.5" stroke="white"/>
<line x1="115" y1="195.5" x2="155" y2="195.5" stroke="white"/>
<line x1="115" y1="200.5" x2="155" y2="200.5" stroke="white"/>
<line x1="115" y1="205.5" x2="155" y2="205.5" stroke="white"/>
</svg>
