<svg width="256" height="260" viewBox="0 0 256 260" fill="none" xmlns="http://www.w3.org/2000/svg">
<path d="M3.80063 128.811L3.15828 130L3.80063 131.189L64.6437 243.772L65.3524 245.083H66.8431H188.529H190.02L190.729 243.772L251.572 131.189L252.214 130L251.572 128.811L190.729 16.2281L190.02 14.9167H188.529H66.8431H65.3524L64.6437 16.2281L3.80063 128.811Z" fill="#28559A" stroke="#7AC7FF" stroke-width="5"/>
<path d="M81.3068 59.875H76.3295C76.2386 59.2311 76.053 58.6591 75.7727 58.1591C75.4924 57.6515 75.1326 57.2197 74.6932 56.8636C74.2538 56.5076 73.7462 56.2348 73.1705 56.0455C72.6023 55.8561 71.9848 55.7614 71.3182 55.7614C70.1136 55.7614 69.0644 56.0606 68.1705 56.6591C67.2765 57.25 66.5833 58.1136 66.0909 59.25C65.5985 60.3788 65.3523 61.75 65.3523 63.3636C65.3523 65.0227 65.5985 66.4167 66.0909 67.5455C66.5909 68.6742 67.2879 69.5265 68.1818 70.1023C69.0758 70.678 70.1098 70.9659 71.2841 70.9659C71.9432 70.9659 72.553 70.8788 73.1136 70.7045C73.6818 70.5303 74.1856 70.2765 74.625 69.9432C75.0644 69.6023 75.428 69.1894 75.7159 68.7045C76.0114 68.2197 76.2159 67.6667 76.3295 67.0455L81.3068 67.0682C81.178 68.1364 80.8561 69.1667 80.3409 70.1591C79.8333 71.1439 79.1477 72.0265 78.2841 72.8068C77.428 73.5795 76.4053 74.1932 75.2159 74.6477C74.0341 75.0947 72.697 75.3182 71.2045 75.3182C69.1288 75.3182 67.2727 74.8485 65.6364 73.9091C64.0076 72.9697 62.7197 71.6098 61.7727 69.8295C60.8333 68.0492 60.3636 65.8939 60.3636 63.3636C60.3636 60.8258 60.8409 58.6667 61.7955 56.8864C62.75 55.1061 64.0455 53.75 65.6818 52.8182C67.3182 51.8788 69.1591 51.4091 71.2045 51.4091C72.553 51.4091 73.803 51.5985 74.9545 51.9773C76.1136 52.3561 77.1402 52.9091 78.0341 53.6364C78.928 54.3561 79.6553 55.2386 80.2159 56.2841C80.7841 57.3295 81.1477 58.5265 81.3068 59.875ZM89.7216 75.3295C88.608 75.3295 87.6155 75.1364 86.7443 74.75C85.8731 74.3561 85.1837 73.7765 84.6761 73.0114C84.1761 72.2386 83.9261 71.2765 83.9261 70.125C83.9261 69.1553 84.1042 68.3409 84.4602 67.6818C84.8163 67.0227 85.3011 66.4924 85.9148 66.0909C86.5284 65.6894 87.2254 65.3864 88.0057 65.1818C88.7936 64.9773 89.6193 64.8333 90.483 64.75C91.4981 64.6439 92.3163 64.5455 92.9375 64.4545C93.5587 64.3561 94.0095 64.2121 94.2898 64.0227C94.5701 63.8333 94.7102 63.553 94.7102 63.1818V63.1136C94.7102 62.3939 94.483 61.8371 94.0284 61.4432C93.5814 61.0492 92.9451 60.8523 92.1193 60.8523C91.2481 60.8523 90.5549 61.0455 90.0398 61.4318C89.5246 61.8106 89.1837 62.2879 89.017 62.8636L84.5398 62.5C84.767 61.4394 85.214 60.5227 85.8807 59.75C86.5473 58.9697 87.4072 58.3712 88.4602 57.9545C89.5208 57.5303 90.7481 57.3182 92.142 57.3182C93.1117 57.3182 94.0398 57.4318 94.9261 57.6591C95.8201 57.8864 96.6117 58.2386 97.3011 58.7159C97.9981 59.1932 98.5473 59.8068 98.9489 60.5568C99.3504 61.2992 99.5511 62.1894 99.5511 63.2273V75H94.9602V72.5795H94.8239C94.5436 73.125 94.1686 73.6061 93.6989 74.0227C93.2292 74.4318 92.6648 74.7538 92.0057 74.9886C91.3466 75.2159 90.5852 75.3295 89.7216 75.3295ZM91.108 71.9886C91.8201 71.9886 92.4489 71.8485 92.9943 71.5682C93.5398 71.2803 93.9678 70.8939 94.2784 70.4091C94.589 69.9242 94.7443 69.375 94.7443 68.7614V66.9091C94.5928 67.0076 94.3845 67.0985 94.1193 67.1818C93.8617 67.2576 93.5701 67.3295 93.2443 67.3977C92.9186 67.4583 92.5928 67.5152 92.267 67.5682C91.9413 67.6136 91.6458 67.6553 91.3807 67.6932C90.8125 67.7765 90.3163 67.9091 89.892 68.0909C89.4678 68.2727 89.1383 68.5189 88.9034 68.8295C88.6686 69.1326 88.5511 69.5114 88.5511 69.9659C88.5511 70.625 88.7898 71.1288 89.267 71.4773C89.7519 71.8182 90.3655 71.9886 91.108 71.9886ZM86.4034 55.6364L90.983 52.1023H93.5966L98.1989 55.6364H94.7102L92.3125 53.7273L89.8807 55.6364H86.4034ZM97.0057 53.6364L99.6648 49.375H103.415L99.7443 53.6364H97.0057ZM114.5 67.5682V57.5455H119.341V75H114.693V71.8295H114.511C114.117 72.8523 113.462 73.6742 112.545 74.2955C111.636 74.9167 110.527 75.2273 109.216 75.2273C108.049 75.2273 107.023 74.9621 106.136 74.4318C105.25 73.9015 104.557 73.1477 104.057 72.1705C103.564 71.1932 103.314 70.0227 103.307 68.6591V57.5455H108.148V67.7955C108.155 68.8258 108.432 69.6402 108.977 70.2386C109.523 70.8371 110.254 71.1364 111.17 71.1364C111.754 71.1364 112.299 71.0038 112.807 70.7386C113.314 70.4659 113.723 70.0644 114.034 69.5341C114.352 69.0038 114.508 68.3485 114.5 67.5682ZM135.46 64.9091V75H130.619V51.7273H135.324V60.625H135.528C135.922 59.5947 136.559 58.7879 137.438 58.2045C138.316 57.6136 139.419 57.3182 140.744 57.3182C141.956 57.3182 143.013 57.5833 143.915 58.1136C144.824 58.6364 145.528 59.3902 146.028 60.375C146.536 61.3523 146.786 62.5227 146.778 63.8864V75H141.938V64.75C141.945 63.6742 141.672 62.8371 141.119 62.2386C140.574 61.6402 139.809 61.3409 138.824 61.3409C138.165 61.3409 137.581 61.4811 137.074 61.7614C136.574 62.0417 136.18 62.4508 135.892 62.9886C135.612 63.5189 135.468 64.1591 135.46 64.9091ZM150.588 75V57.5455H155.429V75H150.588ZM151.338 55.2955L147.872 50.125H152.338L154.759 55.2955H151.338ZM164.148 64.9091V75H159.307V57.5455H163.92V60.625H164.125C164.511 59.6098 165.159 58.8068 166.068 58.2159C166.977 57.6174 168.08 57.3182 169.375 57.3182C170.587 57.3182 171.644 57.5833 172.545 58.1136C173.447 58.6439 174.148 59.4015 174.648 60.3864C175.148 61.3636 175.398 62.5303 175.398 63.8864V75H170.557V64.75C170.564 63.6818 170.292 62.8485 169.739 62.25C169.186 61.6439 168.424 61.3409 167.455 61.3409C166.803 61.3409 166.227 61.4811 165.727 61.7614C165.235 62.0417 164.848 62.4508 164.568 62.9886C164.295 63.5189 164.155 64.1591 164.148 64.9091ZM184.054 64.9091V75H179.213V51.7273H183.918V60.625H184.122C184.516 59.5947 185.152 58.7879 186.031 58.2045C186.91 57.6136 188.012 57.3182 189.338 57.3182C190.55 57.3182 191.607 57.5833 192.509 58.1136C193.418 58.6364 194.122 59.3902 194.622 60.375C195.13 61.3523 195.38 62.5227 195.372 63.8864V75H190.531V64.75C190.539 63.6742 190.266 62.8371 189.713 62.2386C189.168 61.6402 188.402 61.3409 187.418 61.3409C186.759 61.3409 186.175 61.4811 185.668 61.7614C185.168 62.0417 184.774 62.4508 184.486 62.9886C184.205 63.5189 184.062 64.1591 184.054 64.9091ZM65.2415 103.909V114H60.4006V90.7273H65.1051V99.625H65.3097C65.7036 98.5947 66.34 97.7879 67.2188 97.2045C68.0975 96.6136 69.1998 96.3182 70.5256 96.3182C71.7377 96.3182 72.7945 96.5833 73.696 97.1136C74.6051 97.6364 75.3097 98.3902 75.8097 99.375C76.3172 100.352 76.5672 101.523 76.5597 102.886V114H71.7188V103.75C71.7263 102.674 71.4536 101.837 70.9006 101.239C70.3551 100.64 69.59 100.341 68.6051 100.341C67.946 100.341 67.3627 100.481 66.8551 100.761C66.3551 101.042 65.9612 101.451 65.6733 101.989C65.393 102.519 65.2491 103.159 65.2415 103.909ZM88.3239 114.341C86.5284 114.341 84.983 113.977 83.6875 113.25C82.3996 112.515 81.4072 111.477 80.7102 110.136C80.0133 108.788 79.6648 107.193 79.6648 105.352C79.6648 103.557 80.0133 101.981 80.7102 100.625C81.4072 99.2689 82.3883 98.2121 83.6534 97.4545C84.9261 96.697 86.4186 96.3182 88.1307 96.3182C89.2822 96.3182 90.3542 96.5038 91.3466 96.875C92.3466 97.2386 93.2178 97.7879 93.9602 98.5227C94.7102 99.2576 95.2936 100.182 95.7102 101.295C96.1269 102.402 96.3352 103.697 96.3352 105.182V106.511H81.5966V103.511H91.7784C91.7784 102.814 91.6269 102.197 91.3239 101.659C91.0208 101.121 90.6004 100.701 90.0625 100.398C89.5322 100.087 88.9148 99.9318 88.2102 99.9318C87.4754 99.9318 86.8239 100.102 86.2557 100.443C85.6951 100.777 85.2557 101.227 84.9375 101.795C84.6193 102.356 84.4564 102.981 84.4489 103.67V106.523C84.4489 107.386 84.608 108.133 84.9261 108.761C85.2519 109.39 85.7102 109.875 86.3011 110.216C86.892 110.557 87.5928 110.727 88.4034 110.727C88.9413 110.727 89.4337 110.652 89.8807 110.5C90.3277 110.348 90.7102 110.121 91.0284 109.818C91.3466 109.515 91.589 109.144 91.7557 108.705L96.233 109C96.0057 110.076 95.5398 111.015 94.8352 111.818C94.1383 112.614 93.2367 113.235 92.1307 113.682C91.0322 114.121 89.7633 114.341 88.3239 114.341ZM90.3011 94.4545L88.017 91.6818L85.733 94.4545H81.608V94.2955L86.2102 89.2955H89.8125L94.4261 94.2955V94.4545H90.3011ZM88.0284 120.534C87.3087 120.534 86.6913 120.295 86.1761 119.818C85.661 119.341 85.4034 118.765 85.4034 118.091C85.4034 117.417 85.661 116.841 86.1761 116.364C86.6913 115.886 87.3087 115.648 88.0284 115.648C88.7481 115.648 89.3617 115.886 89.8693 116.364C90.3845 116.841 90.642 117.417 90.642 118.091C90.642 118.765 90.3845 119.341 89.8693 119.818C89.3617 120.295 88.7481 120.534 88.0284 120.534ZM116.185 96.5455V100.182H105.673V96.5455H116.185ZM108.06 92.3636H112.901V108.636C112.901 109.083 112.969 109.432 113.105 109.682C113.241 109.924 113.431 110.095 113.673 110.193C113.923 110.292 114.211 110.341 114.537 110.341C114.764 110.341 114.991 110.322 115.219 110.284C115.446 110.239 115.62 110.205 115.741 110.182L116.503 113.784C116.26 113.86 115.92 113.947 115.48 114.045C115.041 114.152 114.507 114.216 113.878 114.239C112.711 114.284 111.688 114.129 110.81 113.773C109.938 113.417 109.26 112.864 108.776 112.114C108.291 111.364 108.052 110.417 108.06 109.273V92.3636ZM124.554 103.909V114H119.713V90.7273H124.418V99.625H124.622C125.016 98.5947 125.652 97.7879 126.531 97.2045C127.41 96.6136 128.512 96.3182 129.838 96.3182C131.05 96.3182 132.107 96.5833 133.009 97.1136C133.918 97.6364 134.622 98.3902 135.122 99.375C135.63 100.352 135.88 101.523 135.872 102.886V114H131.031V103.75C131.039 102.674 130.766 101.837 130.213 101.239C129.668 100.64 128.902 100.341 127.918 100.341C127.259 100.341 126.675 100.481 126.168 100.761C125.668 101.042 125.274 101.451 124.986 101.989C124.705 102.519 124.562 103.159 124.554 103.909ZM147.568 114.341C145.803 114.341 144.277 113.966 142.989 113.216C141.708 112.458 140.72 111.405 140.023 110.057C139.326 108.701 138.977 107.129 138.977 105.341C138.977 103.538 139.326 101.962 140.023 100.614C140.72 99.2576 141.708 98.2045 142.989 97.4545C144.277 96.697 145.803 96.3182 147.568 96.3182C149.333 96.3182 150.856 96.697 152.136 97.4545C153.424 98.2045 154.417 99.2576 155.114 100.614C155.811 101.962 156.159 103.538 156.159 105.341C156.159 107.129 155.811 108.701 155.114 110.057C154.417 111.405 153.424 112.458 152.136 113.216C150.856 113.966 149.333 114.341 147.568 114.341ZM147.591 110.591C148.394 110.591 149.064 110.364 149.602 109.909C150.14 109.447 150.545 108.818 150.818 108.023C151.098 107.227 151.239 106.322 151.239 105.307C151.239 104.292 151.098 103.386 150.818 102.591C150.545 101.795 150.14 101.167 149.602 100.705C149.064 100.242 148.394 100.011 147.591 100.011C146.78 100.011 146.098 100.242 145.545 100.705C145 101.167 144.587 101.795 144.307 102.591C144.034 103.386 143.898 104.292 143.898 105.307C143.898 106.322 144.034 107.227 144.307 108.023C144.587 108.818 145 109.447 145.545 109.909C146.098 110.364 146.78 110.591 147.591 110.591ZM141.648 94.6364L146.227 91.1023H148.841L153.443 94.6364H149.955L147.557 92.7273L145.125 94.6364H141.648ZM152.25 92.6364L154.909 88.375H158.659L154.989 92.6364H152.25ZM164.148 103.909V114H159.307V96.5455H163.92V99.625H164.125C164.511 98.6098 165.159 97.8068 166.068 97.2159C166.977 96.6174 168.08 96.3182 169.375 96.3182C170.587 96.3182 171.644 96.5833 172.545 97.1136C173.447 97.6439 174.148 98.4015 174.648 99.3864C175.148 100.364 175.398 101.53 175.398 102.886V114H170.557V103.75C170.564 102.682 170.292 101.848 169.739 101.25C169.186 100.644 168.424 100.341 167.455 100.341C166.803 100.341 166.227 100.481 165.727 100.761C165.235 101.042 164.848 101.451 164.568 101.989C164.295 102.519 164.155 103.159 164.148 103.909ZM187.077 120.909C185.509 120.909 184.164 120.693 183.043 120.261C181.929 119.837 181.043 119.258 180.384 118.523C179.724 117.788 179.296 116.962 179.099 116.045L183.577 115.443C183.713 115.792 183.929 116.117 184.224 116.42C184.52 116.723 184.91 116.966 185.395 117.148C185.887 117.337 186.486 117.432 187.19 117.432C188.243 117.432 189.111 117.174 189.793 116.659C190.482 116.152 190.827 115.299 190.827 114.102V110.909H190.622C190.41 111.394 190.092 111.852 189.668 112.284C189.243 112.716 188.698 113.068 188.031 113.341C187.365 113.614 186.569 113.75 185.645 113.75C184.334 113.75 183.141 113.447 182.065 112.841C180.997 112.227 180.145 111.292 179.509 110.034C178.88 108.769 178.565 107.17 178.565 105.239C178.565 103.261 178.887 101.61 179.531 100.284C180.175 98.9583 181.031 97.9659 182.099 97.3068C183.175 96.6477 184.353 96.3182 185.634 96.3182C186.611 96.3182 187.429 96.4848 188.088 96.8182C188.747 97.1439 189.277 97.553 189.679 98.0455C190.088 98.5303 190.402 99.0076 190.622 99.4773H190.804V96.5455H195.611V114.17C195.611 115.655 195.247 116.898 194.52 117.898C193.793 118.898 192.785 119.648 191.497 120.148C190.217 120.655 188.743 120.909 187.077 120.909ZM187.179 110.114C187.959 110.114 188.618 109.92 189.156 109.534C189.702 109.14 190.118 108.58 190.406 107.852C190.702 107.117 190.849 106.239 190.849 105.216C190.849 104.193 190.705 103.307 190.418 102.557C190.13 101.799 189.713 101.212 189.168 100.795C188.622 100.379 187.959 100.17 187.179 100.17C186.384 100.17 185.713 100.386 185.168 100.818C184.622 101.242 184.209 101.833 183.929 102.591C183.649 103.348 183.509 104.223 183.509 105.216C183.509 106.223 183.649 107.095 183.929 107.83C184.217 108.557 184.63 109.121 185.168 109.523C185.713 109.917 186.384 110.114 187.179 110.114Z" fill="white"/>
<path d="M120.428 143.041L118.17 141.066L118.17 141.066L120.428 143.041ZM118.837 149.625L121.822 149.924L118.837 149.625ZM121.29 142.261L119.549 139.818L119.549 139.818L121.29 142.261ZM134.71 142.261L132.969 144.705L132.969 144.705L134.71 142.261ZM135.571 143.041L133.314 145.016L133.314 145.016L135.571 143.041ZM137.162 149.625L140.148 149.327V149.327L137.162 149.625ZM145.12 152.922L143.221 150.6V150.6L145.12 152.922ZM150.901 149.391L151.101 152.384L150.901 149.391ZM152.062 149.449L151.565 152.407L151.565 152.407L152.062 149.449ZM161.551 158.938L158.592 159.435V159.435L161.551 158.938ZM161.609 160.099L158.615 159.899V159.899L161.609 160.099ZM158.078 165.879L160.199 168.001L160.305 167.895L160.4 167.779L158.078 165.879ZM158.078 165.879L160.105 168.091L160.153 168.047L160.199 168.001L158.078 165.879ZM158.078 165.879L156.051 163.668L155.892 163.813L155.756 163.98L158.078 165.879ZM157.831 166.181L160.153 168.081L160.153 168.081L157.831 166.181ZM167.959 175.428L165.983 177.686L165.983 177.686L167.959 175.428ZM168.739 176.29L171.182 174.549L171.182 174.549L168.739 176.29ZM168.739 189.71L171.182 191.451V191.451L168.739 189.71ZM167.959 190.572L165.983 188.314L165.983 188.314L167.959 190.572ZM161.375 192.163L161.076 189.177H161.076L161.375 192.163ZM158.078 200.119L155.756 202.018L158.078 200.119ZM161.609 205.899L164.602 205.7V205.7L161.609 205.899ZM161.551 207.06L164.51 207.557L164.51 207.557L161.551 207.06ZM152.062 216.549L151.565 213.591H151.565L152.062 216.549ZM150.901 216.607L151.101 213.614H151.101L150.901 216.607ZM145.12 213.076L147.02 210.755L145.12 213.076ZM137.162 216.375L140.148 216.673L137.162 216.375ZM135.571 222.959L133.314 220.984L133.314 220.984L135.571 222.959ZM134.71 223.739L136.451 226.182H136.451L134.71 223.739ZM121.29 223.739L119.549 226.182L119.549 226.182L121.29 223.739ZM120.428 222.959L118.17 224.934L118.17 224.934L120.428 222.959ZM118.837 216.375L115.852 216.673L118.837 216.375ZM110.879 213.078L108.979 210.757H108.979L110.879 213.078ZM105.098 216.609L105.298 219.602H105.298L105.098 216.609ZM103.938 216.551L103.441 219.51L103.441 219.51L103.938 216.551ZM98.537 212.463L96.4157 214.584H96.4157L98.537 212.463ZM98.5369 212.463L96.4156 214.584L98.5369 212.463ZM94.4485 207.062L91.4899 207.559L91.4899 207.559L94.4485 207.062ZM94.3906 205.901L91.3973 205.702L91.3973 205.702L94.3906 205.901ZM97.9214 200.121L100.243 202.02L97.9214 200.121ZM94.6252 192.163L94.3267 195.148H94.3267L94.6252 192.163ZM88.041 190.572L90.0164 188.314L90.0163 188.314L88.041 190.572ZM87.2612 189.71L89.7044 187.969L89.7044 187.969L87.2612 189.71ZM87.2612 176.29L84.818 174.549L84.818 174.549L87.2612 176.29ZM88.041 175.428L90.0163 177.686L90.0164 177.686L88.041 175.428ZM94.6252 173.837L94.3267 170.852H94.3267L94.6252 173.837ZM97.9215 165.878L95.5997 167.777L97.9215 165.878ZM94.3908 160.097L97.3842 159.897L97.3842 159.897L94.3908 160.097ZM94.4487 158.936L97.4073 159.433V159.433L94.4487 158.936ZM98.5371 153.535L100.658 155.657V155.657L98.5371 153.535ZM103.938 149.447L103.441 146.488H103.441L103.938 149.447ZM105.099 149.389L105.298 146.396L105.298 146.396L105.099 149.389ZM110.879 152.92L108.98 155.242L110.879 152.92ZM118.17 141.066C117.173 142.206 116.713 143.514 116.437 144.819C116.174 146.063 116.025 147.6 115.852 149.327L121.822 149.924C122.008 148.064 122.128 146.91 122.308 146.06C122.474 145.271 122.631 145.08 122.686 145.016L118.17 141.066ZM119.549 139.818C119.043 140.179 118.58 140.598 118.17 141.066L122.686 145.016C122.789 144.899 122.904 144.795 123.031 144.705L119.549 139.818ZM128 138.333C126.264 138.333 124.721 138.329 123.456 138.467C122.13 138.612 120.783 138.939 119.549 139.818L123.031 144.705C123.1 144.656 123.305 144.519 124.107 144.432C124.97 144.337 126.131 144.333 128 144.333V138.333ZM136.451 139.818C135.217 138.939 133.87 138.612 132.543 138.467C131.279 138.329 129.736 138.333 128 138.333V144.333C129.869 144.333 131.029 144.337 131.893 144.432C132.695 144.519 132.9 144.656 132.969 144.705L136.451 139.818ZM137.829 141.066C137.42 140.598 136.957 140.179 136.451 139.818L132.969 144.705C133.095 144.795 133.211 144.899 133.314 145.016L137.829 141.066ZM140.148 149.327C139.975 147.6 139.825 146.063 139.562 144.819C139.287 143.514 138.827 142.206 137.829 141.066L133.314 145.016C133.369 145.08 133.525 145.271 133.692 146.06C133.872 146.91 133.991 148.064 134.177 149.924L140.148 149.327ZM143.221 150.6C142.055 151.553 140.297 150.825 140.148 149.327L134.177 149.924C134.803 156.185 142.15 159.228 147.02 155.244L143.221 150.6ZM150.701 146.398C149.19 146.498 147.94 147.098 146.822 147.826C145.756 148.52 144.564 149.501 143.221 150.6L147.02 155.244C148.467 154.06 149.367 153.328 150.096 152.854C150.771 152.414 151.017 152.39 151.101 152.384L150.701 146.398ZM152.558 146.49C151.945 146.387 151.322 146.356 150.701 146.398L151.101 152.384C151.256 152.374 151.412 152.382 151.565 152.407L152.558 146.49ZM159.584 151.416C158.356 150.189 157.268 149.094 156.277 148.298C155.236 147.462 154.052 146.741 152.558 146.49L151.565 152.407C151.648 152.421 151.89 152.47 152.519 152.975C153.196 153.519 154.019 154.337 155.341 155.659L159.584 151.416ZM164.51 158.441C164.259 156.947 163.538 155.763 162.702 154.723C161.906 153.732 160.811 152.643 159.584 151.416L155.341 155.659C156.663 156.98 157.48 157.804 158.025 158.481C158.53 159.11 158.578 159.352 158.592 159.435L164.51 158.441ZM164.602 160.298C164.644 159.678 164.612 159.055 164.51 158.441L158.592 159.435C158.618 159.588 158.626 159.744 158.615 159.899L164.602 160.298ZM160.4 167.779C161.499 166.436 162.48 165.244 163.174 164.178C163.902 163.06 164.501 161.81 164.602 160.298L158.615 159.899C158.61 159.983 158.585 160.229 158.146 160.904C157.671 161.632 156.94 162.533 155.756 163.98L160.4 167.779ZM160.199 168.001L160.199 168.001L155.957 163.758L155.957 163.758L160.199 168.001ZM160.105 168.091L160.105 168.091L156.051 163.668L156.051 163.668L160.105 168.091ZM160.153 168.081L160.4 167.779L155.756 163.98L155.509 164.281L160.153 168.081ZM161.285 170.814C159.953 170.68 159.305 169.117 160.153 168.081L155.509 164.281C151.63 169.023 154.593 176.174 160.688 176.784L161.285 170.814ZM161.673 170.852L161.285 170.814L160.688 176.784L161.076 176.823L161.673 170.852ZM169.934 173.171C168.794 172.173 167.486 171.713 166.181 171.437C164.937 171.175 163.4 171.025 161.673 170.852L161.076 176.823C162.936 177.009 164.09 177.128 164.94 177.308C165.729 177.475 165.92 177.631 165.983 177.686L169.934 173.171ZM171.182 174.549C170.821 174.043 170.402 173.58 169.934 173.171L165.983 177.686C166.1 177.789 166.205 177.904 166.295 178.031L171.182 174.549ZM172.667 183C172.667 181.264 172.671 179.721 172.533 178.456C172.388 177.13 172.061 175.783 171.182 174.549L166.295 178.031C166.344 178.1 166.481 178.305 166.568 179.107C166.662 179.971 166.667 181.131 166.667 183H172.667ZM171.182 191.451C172.061 190.217 172.388 188.87 172.533 187.544C172.671 186.279 172.667 184.736 172.667 183H166.667C166.667 184.869 166.662 186.029 166.568 186.893C166.481 187.695 166.344 187.9 166.295 187.969L171.182 191.451ZM169.934 192.829C170.402 192.42 170.821 191.957 171.182 191.451L166.295 187.969C166.205 188.096 166.1 188.211 165.983 188.314L169.934 192.829ZM161.673 195.148C163.4 194.975 164.937 194.825 166.181 194.563C167.486 194.287 168.794 193.827 169.934 192.829L165.983 188.314C165.92 188.369 165.729 188.525 164.94 188.692C164.09 188.872 162.936 188.991 161.076 189.177L161.673 195.148ZM160.4 198.219C159.448 197.055 160.175 195.297 161.673 195.148L161.076 189.177C154.816 189.803 151.772 197.148 155.756 202.018L160.4 198.219ZM164.602 205.7C164.501 204.188 163.902 202.938 163.174 201.82C162.48 200.754 161.499 199.562 160.4 198.219L155.756 202.018C156.94 203.465 157.672 204.366 158.146 205.094C158.586 205.77 158.61 206.015 158.616 206.099L164.602 205.7ZM164.51 207.557C164.613 206.943 164.644 206.32 164.602 205.7L158.616 206.099C158.626 206.254 158.618 206.41 158.592 206.564L164.51 207.557ZM159.584 214.582C160.811 213.355 161.906 212.266 162.702 211.275C163.538 210.235 164.259 209.051 164.51 207.557L158.592 206.564C158.579 206.647 158.53 206.889 158.025 207.517C157.481 208.195 156.663 209.018 155.341 210.34L159.584 214.582ZM152.559 219.508C154.053 219.257 155.236 218.536 156.277 217.7C157.268 216.904 158.357 215.81 159.584 214.582L155.341 210.34C154.02 211.661 153.196 212.479 152.519 213.023C151.89 213.528 151.648 213.577 151.565 213.591L152.559 219.508ZM150.701 219.601C151.322 219.642 151.945 219.611 152.559 219.508L151.565 213.591C151.412 213.616 151.256 213.624 151.101 213.614L150.701 219.601ZM143.221 215.398C144.564 216.498 145.756 217.478 146.822 218.172C147.94 218.9 149.19 219.5 150.701 219.601L151.101 213.614C151.017 213.608 150.771 213.584 150.096 213.144C149.368 212.67 148.467 211.938 147.02 210.755L143.221 215.398ZM140.148 216.673C140.298 215.173 142.057 214.446 143.221 215.398L147.02 210.755C142.148 206.769 134.803 209.817 134.177 216.076L140.148 216.673ZM137.829 224.934C138.827 223.794 139.287 222.486 139.562 221.181C139.825 219.937 139.975 218.4 140.148 216.673L134.177 216.076C133.991 217.936 133.872 219.09 133.692 219.94C133.525 220.729 133.369 220.92 133.314 220.984L137.829 224.934ZM136.451 226.182C136.957 225.821 137.42 225.402 137.829 224.934L133.314 220.984C133.211 221.101 133.095 221.205 132.969 221.295L136.451 226.182ZM128 227.667C129.736 227.667 131.279 227.671 132.543 227.533C133.87 227.388 135.217 227.061 136.451 226.182L132.969 221.295C132.9 221.344 132.695 221.481 131.893 221.568C131.029 221.663 129.869 221.667 128 221.667V227.667ZM119.549 226.182C120.783 227.061 122.13 227.388 123.456 227.533C124.721 227.671 126.264 227.667 128 227.667V221.667C126.131 221.667 124.97 221.663 124.107 221.568C123.305 221.481 123.1 221.344 123.031 221.295L119.549 226.182ZM118.17 224.934C118.58 225.402 119.043 225.821 119.549 226.182L123.031 221.296C122.904 221.205 122.789 221.101 122.686 220.984L118.17 224.934ZM115.852 216.673C116.025 218.4 116.174 219.937 116.437 221.181C116.713 222.486 117.173 223.794 118.17 224.934L122.686 220.984C122.631 220.92 122.474 220.729 122.308 219.94C122.128 219.09 122.008 217.936 121.822 216.076L115.852 216.673ZM112.779 215.4C113.944 214.447 115.702 215.175 115.852 216.673L121.822 216.076C121.196 209.815 113.85 206.772 108.979 210.757L112.779 215.4ZM105.298 219.602C106.81 219.502 108.059 218.902 109.178 218.174C110.243 217.48 111.435 216.499 112.779 215.4L108.979 210.757C107.533 211.94 106.632 212.672 105.904 213.146C105.228 213.586 104.983 213.61 104.899 213.616L105.298 219.602ZM103.441 219.51C104.054 219.613 104.678 219.644 105.298 219.602L104.899 213.616C104.743 213.626 104.588 213.618 104.434 213.593L103.441 219.51ZM96.4157 214.584C97.643 215.812 98.7315 216.906 99.7229 217.702C100.763 218.538 101.947 219.259 103.441 219.51L104.434 213.593C104.351 213.579 104.109 213.53 103.481 213.025C102.803 212.481 101.98 211.663 100.658 210.342L96.4157 214.584ZM96.4156 214.584L96.4157 214.584L100.658 210.342L100.658 210.341L96.4156 214.584ZM91.4899 207.559C91.7407 209.053 92.4616 210.237 93.2974 211.277C94.0939 212.268 95.1882 213.357 96.4156 214.584L100.658 210.341C99.3365 209.02 98.519 208.196 97.9748 207.519C97.4698 206.89 97.4211 206.649 97.4071 206.565L91.4899 207.559ZM91.3973 205.702C91.3559 206.322 91.387 206.945 91.4899 207.559L97.4071 206.565C97.3814 206.412 97.3736 206.256 97.384 206.101L91.3973 205.702ZM95.5995 198.221C94.5003 199.564 93.5197 200.756 92.8258 201.822C92.0977 202.94 91.4982 204.19 91.3973 205.702L97.384 206.101C97.3896 206.017 97.414 205.772 97.8539 205.096C98.3281 204.368 99.0596 203.467 100.243 202.02L95.5995 198.221ZM94.3267 195.148C95.8247 195.297 96.5531 197.055 95.5995 198.221L100.243 202.02C104.228 197.15 101.185 189.804 94.9237 189.177L94.3267 195.148ZM86.0657 192.829C87.2058 193.827 88.5134 194.287 89.819 194.563C91.0633 194.825 92.5996 194.975 94.3267 195.148L94.9237 189.177C93.0638 188.991 91.9097 188.872 91.0595 188.692C90.2707 188.525 90.0798 188.369 90.0164 188.314L86.0657 192.829ZM84.818 191.451C85.1789 191.957 85.5976 192.42 86.0657 192.829L90.0163 188.314C89.8993 188.211 89.7947 188.096 89.7044 187.969L84.818 191.451ZM83.3333 183C83.3333 184.736 83.3291 186.279 83.4669 187.544C83.6115 188.87 83.9389 190.217 84.818 191.451L89.7044 187.969C89.6555 187.9 89.519 187.695 89.4316 186.893C89.3374 186.029 89.3333 184.869 89.3333 183H83.3333ZM84.818 174.549C83.9389 175.783 83.6115 177.13 83.4669 178.456C83.3291 179.721 83.3333 181.264 83.3333 183H89.3333C89.3333 181.131 89.3374 179.971 89.4316 179.107C89.519 178.305 89.6555 178.1 89.7044 178.031L84.818 174.549ZM86.0657 173.171C85.5976 173.58 85.1789 174.043 84.818 174.549L89.7044 178.031C89.7947 177.904 89.8993 177.789 90.0163 177.686L86.0657 173.171ZM94.3267 170.852C92.5996 171.025 91.0633 171.175 89.819 171.437C88.5134 171.713 87.2058 172.173 86.0657 173.171L90.0164 177.686C90.0798 177.631 90.2707 177.475 91.0595 177.308C91.9097 177.128 93.0638 177.009 94.9237 176.823L94.3267 170.852ZM95.5997 167.777C96.5542 168.944 95.8248 170.703 94.3267 170.852L94.9237 176.823C101.187 176.196 104.228 168.848 100.243 163.978L95.5997 167.777ZM91.3975 160.297C91.4984 161.808 92.0979 163.058 92.826 164.176C93.5199 165.242 94.5005 166.434 95.5997 167.777L100.243 163.978C99.0597 162.531 98.3283 161.631 97.8541 160.902C97.4142 160.227 97.3898 159.981 97.3842 159.897L91.3975 160.297ZM91.4901 158.439C91.3871 159.053 91.3561 159.676 91.3975 160.297L97.3842 159.897C97.3738 159.742 97.3816 159.586 97.4073 159.433L91.4901 158.439ZM96.4158 151.414C95.1884 152.641 94.0941 153.73 93.2976 154.721C92.4618 155.762 91.7409 156.946 91.4901 158.439L97.4073 159.433C97.4213 159.35 97.47 159.108 97.975 158.479C98.5192 157.802 99.3367 156.978 100.658 155.657L96.4158 151.414ZM103.441 146.488C101.947 146.739 100.763 147.46 99.7231 148.296C98.7317 149.092 97.6432 150.187 96.4158 151.414L100.658 155.657C101.98 154.335 102.804 153.517 103.481 152.973C104.11 152.468 104.351 152.42 104.435 152.406L103.441 146.488ZM105.298 146.396C104.678 146.354 104.055 146.385 103.441 146.488L104.435 152.406C104.588 152.38 104.744 152.372 104.899 152.382L105.298 146.396ZM112.779 150.598C111.436 149.499 110.244 148.518 109.178 147.824C108.06 147.096 106.81 146.497 105.298 146.396L104.899 152.382C104.983 152.388 105.228 152.412 105.904 152.852C106.632 153.327 107.533 154.058 108.98 155.242L112.779 150.598ZM115.852 149.327C115.703 150.822 113.946 151.552 112.779 150.598L108.98 155.242C113.848 159.225 121.196 156.187 121.822 149.924L115.852 149.327ZM141.667 183C141.667 190.548 135.548 196.667 128 196.667V202.667C138.861 202.667 147.667 193.862 147.667 183H141.667ZM128 169.333C135.548 169.333 141.667 175.452 141.667 183H147.667C147.667 172.138 138.861 163.333 128 163.333V169.333ZM114.333 183C114.333 175.452 120.452 169.333 128 169.333V163.333C117.138 163.333 108.333 172.138 108.333 183H114.333ZM128 196.667C120.452 196.667 114.333 190.548 114.333 183H108.333C108.333 193.862 117.138 202.667 128 202.667V196.667Z" fill="white"/>
</svg>
