<svg width="256" height="260" viewBox="0 0 256 260" fill="none" xmlns="http://www.w3.org/2000/svg">
<path d="M3.80063 128.811L3.15828 130L3.80063 131.189L64.6437 243.772L65.3524 245.083H66.8431H188.529H190.02L190.729 243.772L251.572 131.189L252.214 130L251.572 128.811L190.729 16.2281L190.02 14.9167H188.529H66.8431H65.3524L64.6437 16.2281L3.80063 128.811Z" fill="#28559A" stroke="#7AC7FF" stroke-width="5"/>
<circle cx="131" cy="78" r="24" stroke="white" stroke-width="4"/>
<path d="M131 62.3997V92.2997" stroke="white" stroke-width="4"/>
<path d="M146.6 78H115.4" stroke="white" stroke-width="4"/>
<path d="M209 96.7778H174.094C173.664 96.7778 173.45 96.7778 173.259 96.8611C173.067 96.9444 172.921 97.1017 172.629 97.4163L154.093 117.361C153.801 117.676 153.655 117.833 153.464 117.917C153.273 118 153.058 118 152.628 118H102.919C102.467 118 102.241 118 102.042 117.909C101.843 117.817 101.696 117.646 101.401 117.303L84.3763 97.4749C84.0818 97.1319 83.9346 96.9604 83.7358 96.8691C83.5371 96.7778 83.311 96.7778 82.859 96.7778H48" stroke="white" stroke-width="4"/>
<path d="M98.5 66H75.2475C74.9823 66 74.728 66.1054 74.5404 66.2929L48.2929 92.5404C48.1054 92.728 48 92.9823 48 93.2475V185.586C48 185.851 48.1054 186.105 48.2929 186.293L55.9142 193.914C56.2893 194.289 56.798 194.5 57.3284 194.5H199.672C200.202 194.5 200.711 194.289 201.086 193.914L208.707 186.293C208.895 186.105 209 185.851 209 185.586V93.2475C209 92.9823 208.895 92.728 208.707 92.5404L182.46 66.2929C182.272 66.1054 182.018 66 181.752 66H162.5" stroke="white" stroke-width="4" stroke-linecap="round"/>
<path d="M62.0724 149V131.545H66.6861V134.625H66.8906C67.2543 133.602 67.8603 132.795 68.7088 132.205C69.5573 131.614 70.5724 131.318 71.7543 131.318C72.9512 131.318 73.9702 131.617 74.8111 132.216C75.652 132.807 76.2126 133.61 76.4929 134.625H76.6747C77.0308 133.625 77.6747 132.826 78.6065 132.227C79.5459 131.621 80.6558 131.318 81.9361 131.318C83.5649 131.318 84.8868 131.837 85.902 132.875C86.9247 133.905 87.4361 135.367 87.4361 137.261V149H82.6065V138.216C82.6065 137.246 82.349 136.519 81.8338 136.034C81.3187 135.549 80.6747 135.307 79.902 135.307C79.0232 135.307 78.3376 135.587 77.8452 136.148C77.3527 136.701 77.1065 137.432 77.1065 138.341V149H72.4134V138.114C72.4134 137.258 72.1671 136.576 71.6747 136.068C71.1899 135.561 70.5497 135.307 69.7543 135.307C69.2164 135.307 68.7315 135.443 68.2997 135.716C67.8755 135.981 67.5384 136.356 67.2884 136.841C67.0384 137.318 66.9134 137.879 66.9134 138.523V149H62.0724ZM102.453 141.568V131.545H107.294V149H102.646V145.83H102.464C102.071 146.852 101.415 147.674 100.499 148.295C99.5895 148.917 98.4796 149.227 97.169 149.227C96.0024 149.227 94.9759 148.962 94.0895 148.432C93.2031 147.902 92.5099 147.148 92.0099 146.17C91.5175 145.193 91.2675 144.023 91.2599 142.659V131.545H96.1009V141.795C96.1084 142.826 96.3849 143.64 96.9304 144.239C97.4759 144.837 98.2069 145.136 99.1236 145.136C99.7069 145.136 100.252 145.004 100.76 144.739C101.268 144.466 101.677 144.064 101.987 143.534C102.305 143.004 102.461 142.348 102.453 141.568ZM116.143 149.33C115.03 149.33 114.037 149.136 113.166 148.75C112.295 148.356 111.606 147.777 111.098 147.011C110.598 146.239 110.348 145.277 110.348 144.125C110.348 143.155 110.526 142.341 110.882 141.682C111.238 141.023 111.723 140.492 112.337 140.091C112.95 139.689 113.647 139.386 114.428 139.182C115.215 138.977 116.041 138.833 116.905 138.75C117.92 138.644 118.738 138.545 119.359 138.455C119.981 138.356 120.431 138.212 120.712 138.023C120.992 137.833 121.132 137.553 121.132 137.182V137.114C121.132 136.394 120.905 135.837 120.45 135.443C120.003 135.049 119.367 134.852 118.541 134.852C117.67 134.852 116.977 135.045 116.462 135.432C115.946 135.811 115.606 136.288 115.439 136.864L110.962 136.5C111.189 135.439 111.636 134.523 112.303 133.75C112.969 132.97 113.829 132.371 114.882 131.955C115.943 131.53 117.17 131.318 118.564 131.318C119.534 131.318 120.462 131.432 121.348 131.659C122.242 131.886 123.034 132.239 123.723 132.716C124.42 133.193 124.969 133.807 125.371 134.557C125.772 135.299 125.973 136.189 125.973 137.227V149H121.382V146.58H121.246C120.965 147.125 120.59 147.606 120.121 148.023C119.651 148.432 119.087 148.754 118.428 148.989C117.768 149.216 117.007 149.33 116.143 149.33ZM117.53 145.989C118.242 145.989 118.871 145.848 119.416 145.568C119.962 145.28 120.39 144.894 120.7 144.409C121.011 143.924 121.166 143.375 121.166 142.761V140.909C121.015 141.008 120.806 141.098 120.541 141.182C120.284 141.258 119.992 141.33 119.666 141.398C119.34 141.458 119.015 141.515 118.689 141.568C118.363 141.614 118.068 141.655 117.803 141.693C117.234 141.777 116.738 141.909 116.314 142.091C115.89 142.273 115.56 142.519 115.325 142.83C115.09 143.133 114.973 143.511 114.973 143.966C114.973 144.625 115.212 145.129 115.689 145.477C116.174 145.818 116.787 145.989 117.53 145.989ZM144.999 155.909C143.43 155.909 142.086 155.693 140.964 155.261C139.851 154.837 138.964 154.258 138.305 153.523C137.646 152.788 137.218 151.962 137.021 151.045L141.499 150.443C141.635 150.792 141.851 151.117 142.146 151.42C142.442 151.723 142.832 151.966 143.317 152.148C143.809 152.337 144.408 152.432 145.112 152.432C146.165 152.432 147.033 152.174 147.714 151.659C148.404 151.152 148.749 150.299 148.749 149.102V145.909H148.544C148.332 146.394 148.014 146.852 147.589 147.284C147.165 147.716 146.62 148.068 145.953 148.341C145.286 148.614 144.491 148.75 143.567 148.75C142.256 148.75 141.063 148.447 139.987 147.841C138.919 147.227 138.067 146.292 137.43 145.034C136.802 143.769 136.487 142.17 136.487 140.239C136.487 138.261 136.809 136.61 137.453 135.284C138.097 133.958 138.953 132.966 140.021 132.307C141.097 131.648 142.275 131.318 143.555 131.318C144.533 131.318 145.351 131.485 146.01 131.818C146.669 132.144 147.199 132.553 147.601 133.045C148.01 133.53 148.324 134.008 148.544 134.477H148.726V131.545H153.533V149.17C153.533 150.655 153.169 151.898 152.442 152.898C151.714 153.898 150.707 154.648 149.419 155.148C148.139 155.655 146.665 155.909 144.999 155.909ZM145.101 145.114C145.881 145.114 146.54 144.92 147.078 144.534C147.624 144.14 148.04 143.58 148.328 142.852C148.624 142.117 148.771 141.239 148.771 140.216C148.771 139.193 148.627 138.307 148.339 137.557C148.052 136.799 147.635 136.212 147.089 135.795C146.544 135.379 145.881 135.17 145.101 135.17C144.305 135.17 143.635 135.386 143.089 135.818C142.544 136.242 142.131 136.833 141.851 137.591C141.571 138.348 141.43 139.223 141.43 140.216C141.43 141.223 141.571 142.095 141.851 142.83C142.139 143.557 142.552 144.121 143.089 144.523C143.635 144.917 144.305 145.114 145.101 145.114ZM157.385 149V131.545H162.226V149H157.385ZM159.817 129.295C159.097 129.295 158.48 129.057 157.964 128.58C157.457 128.095 157.203 127.515 157.203 126.841C157.203 126.174 157.457 125.602 157.964 125.125C158.48 124.64 159.097 124.398 159.817 124.398C160.536 124.398 161.15 124.64 161.658 125.125C162.173 125.602 162.43 126.174 162.43 126.841C162.43 127.515 162.173 128.095 161.658 128.58C161.15 129.057 160.536 129.295 159.817 129.295ZM171.081 149.33C169.967 149.33 168.975 149.136 168.104 148.75C167.232 148.356 166.543 147.777 166.036 147.011C165.536 146.239 165.286 145.277 165.286 144.125C165.286 143.155 165.464 142.341 165.82 141.682C166.176 141.023 166.661 140.492 167.274 140.091C167.888 139.689 168.585 139.386 169.365 139.182C170.153 138.977 170.979 138.833 171.842 138.75C172.857 138.644 173.676 138.545 174.297 138.455C174.918 138.356 175.369 138.212 175.649 138.023C175.929 137.833 176.07 137.553 176.07 137.182V137.114C176.07 136.394 175.842 135.837 175.388 135.443C174.941 135.049 174.304 134.852 173.479 134.852C172.607 134.852 171.914 135.045 171.399 135.432C170.884 135.811 170.543 136.288 170.376 136.864L165.899 136.5C166.126 135.439 166.573 134.523 167.24 133.75C167.907 132.97 168.767 132.371 169.82 131.955C170.88 131.53 172.107 131.318 173.501 131.318C174.471 131.318 175.399 131.432 176.286 131.659C177.179 131.886 177.971 132.239 178.661 132.716C179.357 133.193 179.907 133.807 180.308 134.557C180.71 135.299 180.911 136.189 180.911 137.227V149H176.32V146.58H176.183C175.903 147.125 175.528 147.606 175.058 148.023C174.589 148.432 174.024 148.754 173.365 148.989C172.706 149.216 171.945 149.33 171.081 149.33ZM172.467 145.989C173.179 145.989 173.808 145.848 174.354 145.568C174.899 145.28 175.327 144.894 175.638 144.409C175.948 143.924 176.104 143.375 176.104 142.761V140.909C175.952 141.008 175.744 141.098 175.479 141.182C175.221 141.258 174.929 141.33 174.604 141.398C174.278 141.458 173.952 141.515 173.626 141.568C173.301 141.614 173.005 141.655 172.74 141.693C172.172 141.777 171.676 141.909 171.251 142.091C170.827 142.273 170.498 142.519 170.263 142.83C170.028 143.133 169.911 143.511 169.911 143.966C169.911 144.625 170.149 145.129 170.626 145.477C171.111 145.818 171.725 145.989 172.467 145.989ZM167.763 129.636L172.342 126.102H174.956L179.558 129.636H176.07L173.672 127.727L171.24 129.636H167.763ZM178.365 127.636L181.024 123.375H184.774L181.104 127.636H178.365ZM187.03 155.545C186.416 155.545 185.84 155.496 185.303 155.398C184.772 155.307 184.333 155.189 183.984 155.045L185.075 151.432C185.643 151.606 186.155 151.701 186.609 151.716C187.071 151.731 187.469 151.625 187.803 151.398C188.143 151.17 188.42 150.784 188.632 150.239L188.916 149.5L182.655 131.545H187.746L191.359 144.364H191.541L195.189 131.545H200.314L193.53 150.886C193.204 151.826 192.761 152.644 192.2 153.341C191.647 154.045 190.946 154.587 190.098 154.966C189.25 155.352 188.227 155.545 187.03 155.545ZM118.119 188V170.545H122.96V188H118.119ZM120.551 168.295C119.831 168.295 119.214 168.057 118.699 167.58C118.191 167.095 117.938 166.515 117.938 165.841C117.938 165.174 118.191 164.602 118.699 164.125C119.214 163.64 119.831 163.398 120.551 163.398C121.271 163.398 121.884 163.64 122.392 164.125C122.907 164.602 123.165 165.174 123.165 165.841C123.165 166.515 122.907 167.095 122.392 167.58C121.884 168.057 121.271 168.295 120.551 168.295ZM131.679 177.909V188H126.838V170.545H131.452V173.625H131.656C132.043 172.61 132.69 171.807 133.599 171.216C134.509 170.617 135.611 170.318 136.906 170.318C138.118 170.318 139.175 170.583 140.077 171.114C140.978 171.644 141.679 172.402 142.179 173.386C142.679 174.364 142.929 175.53 142.929 176.886V188H138.088V177.75C138.096 176.682 137.823 175.848 137.27 175.25C136.717 174.644 135.955 174.341 134.986 174.341C134.334 174.341 133.759 174.481 133.259 174.761C132.766 175.042 132.38 175.451 132.099 175.989C131.827 176.519 131.687 177.159 131.679 177.909Z" fill="white"/>
</svg>
