<svg width="256" height="260" viewBox="0 0 256 260" fill="none" xmlns="http://www.w3.org/2000/svg">
<path d="M3.80063 128.811L3.15828 130L3.80063 131.189L64.6437 243.772L65.3524 245.083H66.8431H188.529H190.02L190.729 243.772L251.572 131.189L252.214 130L251.572 128.811L190.729 16.2281L190.02 14.9167H188.529H66.8431H65.3524L64.6437 16.2281L3.80063 128.811Z" fill="#28559A" stroke="#7AC7FF" stroke-width="5"/>
<path d="M58 73C58 69.2288 58 67.3431 59.1716 66.1716C60.3431 65 62.2288 65 66 65H110.807C112.142 65 112.809 65 113.43 65.209C114.051 65.418 114.582 65.8215 115.645 66.6284L138.355 83.8716C139.418 84.6785 139.949 85.082 140.57 85.291C141.191 85.5 141.859 85.5 143.193 85.5H196.667C200.438 85.5 202.324 85.5 203.495 86.6716C204.667 87.8432 204.667 89.7288 204.667 93.5V178.333C204.667 182.105 204.667 183.99 203.495 185.162C202.324 186.333 200.438 186.333 196.667 186.333H66C62.2288 186.333 60.3431 186.333 59.1716 185.162C58 183.99 58 182.105 58 178.333V73Z" stroke="white" stroke-width="4"/>
<path d="M87.7159 132.545V123.205H87.5682C87.3409 123.689 87.0189 124.17 86.6023 124.648C86.1932 125.117 85.6591 125.508 85 125.818C84.3485 126.129 83.553 126.284 82.6136 126.284C81.2879 126.284 80.0871 125.943 79.0114 125.261C77.9432 124.572 77.0947 123.561 76.4659 122.227C75.8447 120.886 75.5341 119.242 75.5341 117.295C75.5341 115.295 75.8561 113.633 76.5 112.307C77.1439 110.973 78 109.977 79.0682 109.318C80.1439 108.652 81.322 108.318 82.6023 108.318C83.5795 108.318 84.3939 108.485 85.0455 108.818C85.7045 109.144 86.2348 109.553 86.6364 110.045C87.0455 110.53 87.3561 111.008 87.5682 111.477H87.7727V108.545H92.5455V132.545H87.7159ZM84.1477 122.432C84.928 122.432 85.5871 122.22 86.125 121.795C86.6705 121.364 87.0871 120.761 87.375 119.989C87.6705 119.216 87.8182 118.311 87.8182 117.273C87.8182 116.235 87.6742 115.333 87.3864 114.568C87.0985 113.803 86.6818 113.212 86.1364 112.795C85.5909 112.379 84.928 112.17 84.1477 112.17C83.3523 112.17 82.6818 112.386 82.1364 112.818C81.5909 113.25 81.178 113.848 80.8977 114.614C80.6174 115.379 80.4773 116.265 80.4773 117.273C80.4773 118.288 80.6174 119.186 80.8977 119.966C81.1856 120.739 81.5985 121.345 82.1364 121.784C82.6818 122.216 83.3523 122.432 84.1477 122.432ZM107.625 118.568V108.545H112.466V126H107.818V122.83H107.636C107.242 123.852 106.587 124.674 105.67 125.295C104.761 125.917 103.652 126.227 102.341 126.227C101.174 126.227 100.148 125.962 99.2614 125.432C98.375 124.902 97.6818 124.148 97.1818 123.17C96.6894 122.193 96.4394 121.023 96.4318 119.659V108.545H101.273V118.795C101.28 119.826 101.557 120.64 102.102 121.239C102.648 121.837 103.379 122.136 104.295 122.136C104.879 122.136 105.424 122.004 105.932 121.739C106.439 121.466 106.848 121.064 107.159 120.534C107.477 120.004 107.633 119.348 107.625 118.568ZM121.315 126.33C120.202 126.33 119.209 126.136 118.338 125.75C117.467 125.356 116.777 124.777 116.27 124.011C115.77 123.239 115.52 122.277 115.52 121.125C115.52 120.155 115.698 119.341 116.054 118.682C116.41 118.023 116.895 117.492 117.509 117.091C118.122 116.689 118.819 116.386 119.599 116.182C120.387 115.977 121.213 115.833 122.077 115.75C123.092 115.644 123.91 115.545 124.531 115.455C125.152 115.356 125.603 115.212 125.884 115.023C126.164 114.833 126.304 114.553 126.304 114.182V114.114C126.304 113.394 126.077 112.837 125.622 112.443C125.175 112.049 124.539 111.852 123.713 111.852C122.842 111.852 122.149 112.045 121.634 112.432C121.118 112.811 120.777 113.288 120.611 113.864L116.134 113.5C116.361 112.439 116.808 111.523 117.474 110.75C118.141 109.97 119.001 109.371 120.054 108.955C121.115 108.53 122.342 108.318 123.736 108.318C124.705 108.318 125.634 108.432 126.52 108.659C127.414 108.886 128.205 109.239 128.895 109.716C129.592 110.193 130.141 110.807 130.543 111.557C130.944 112.299 131.145 113.189 131.145 114.227V126H126.554V123.58H126.418C126.137 124.125 125.762 124.606 125.293 125.023C124.823 125.432 124.259 125.754 123.599 125.989C122.94 126.216 122.179 126.33 121.315 126.33ZM122.702 122.989C123.414 122.989 124.043 122.848 124.588 122.568C125.134 122.28 125.562 121.894 125.872 121.409C126.183 120.924 126.338 120.375 126.338 119.761V117.909C126.187 118.008 125.978 118.098 125.713 118.182C125.455 118.258 125.164 118.33 124.838 118.398C124.512 118.458 124.187 118.515 123.861 118.568C123.535 118.614 123.24 118.655 122.974 118.693C122.406 118.777 121.91 118.909 121.486 119.091C121.062 119.273 120.732 119.519 120.497 119.83C120.262 120.133 120.145 120.511 120.145 120.966C120.145 121.625 120.384 122.129 120.861 122.477C121.346 122.818 121.959 122.989 122.702 122.989ZM125.702 106.045H122.111L121.861 104C122.664 103.962 123.236 103.856 123.577 103.682C123.918 103.5 124.084 103.261 124.077 102.966C124.084 102.557 123.868 102.28 123.429 102.136C122.997 101.992 122.455 101.92 121.804 101.92L121.929 99.7273C123.952 99.7273 125.49 100 126.543 100.545C127.603 101.091 128.13 101.848 128.122 102.818C128.13 103.508 127.88 104.03 127.372 104.386C126.872 104.735 126.315 104.955 125.702 105.045V106.045ZM139.741 115.909V126H134.901V108.545H139.514V111.625H139.719C140.105 110.61 140.753 109.807 141.662 109.216C142.571 108.617 143.673 108.318 144.969 108.318C146.181 108.318 147.238 108.583 148.139 109.114C149.041 109.644 149.741 110.402 150.241 111.386C150.741 112.364 150.991 113.53 150.991 114.886V126H146.151V115.75C146.158 114.682 145.885 113.848 145.332 113.25C144.779 112.644 144.018 112.341 143.048 112.341C142.397 112.341 141.821 112.481 141.321 112.761C140.829 113.042 140.442 113.451 140.162 113.989C139.889 114.519 139.749 115.159 139.741 115.909ZM167.054 102.727V126H162.213V102.727H167.054ZM173.92 132.545C173.307 132.545 172.731 132.496 172.193 132.398C171.663 132.307 171.223 132.189 170.875 132.045L171.966 128.432C172.534 128.606 173.045 128.701 173.5 128.716C173.962 128.731 174.36 128.625 174.693 128.398C175.034 128.17 175.311 127.784 175.523 127.239L175.807 126.5L169.545 108.545H174.636L178.25 121.364H178.432L182.08 108.545H187.205L180.42 127.886C180.095 128.826 179.652 129.644 179.091 130.341C178.538 131.045 177.837 131.587 176.989 131.966C176.14 132.352 175.117 132.545 173.92 132.545ZM176.602 106.295L179.011 101.125H183.489L180.023 106.295H176.602ZM90.419 147.545V151.182H79.9077V147.545H90.419ZM82.294 143.364H87.1349V159.636C87.1349 160.083 87.2031 160.432 87.3395 160.682C87.4759 160.924 87.6652 161.095 87.9077 161.193C88.1577 161.292 88.4455 161.341 88.7713 161.341C88.9986 161.341 89.2259 161.322 89.4531 161.284C89.6804 161.239 89.8546 161.205 89.9759 161.182L90.7372 164.784C90.4948 164.86 90.1539 164.947 89.7145 165.045C89.2751 165.152 88.741 165.216 88.1122 165.239C86.9455 165.284 85.9228 165.129 85.044 164.773C84.1728 164.417 83.4948 163.864 83.0099 163.114C82.5251 162.364 82.2865 161.417 82.294 160.273V143.364ZM98.5497 165.33C97.4361 165.33 96.4437 165.136 95.5724 164.75C94.7012 164.356 94.0118 163.777 93.5043 163.011C93.0043 162.239 92.7543 161.277 92.7543 160.125C92.7543 159.155 92.9323 158.341 93.2884 157.682C93.6444 157.023 94.1293 156.492 94.7429 156.091C95.3565 155.689 96.0535 155.386 96.8338 155.182C97.6217 154.977 98.4474 154.833 99.3111 154.75C100.326 154.644 101.144 154.545 101.766 154.455C102.387 154.356 102.838 154.212 103.118 154.023C103.398 153.833 103.538 153.553 103.538 153.182V153.114C103.538 152.394 103.311 151.837 102.857 151.443C102.41 151.049 101.773 150.852 100.947 150.852C100.076 150.852 99.383 151.045 98.8679 151.432C98.3527 151.811 98.0118 152.288 97.8452 152.864L93.3679 152.5C93.5952 151.439 94.0421 150.523 94.7088 149.75C95.3755 148.97 96.2353 148.371 97.2884 147.955C98.349 147.53 99.5762 147.318 100.97 147.318C101.94 147.318 102.868 147.432 103.754 147.659C104.648 147.886 105.44 148.239 106.129 148.716C106.826 149.193 107.375 149.807 107.777 150.557C108.179 151.299 108.379 152.189 108.379 153.227V165H103.788V162.58H103.652C103.372 163.125 102.997 163.606 102.527 164.023C102.057 164.432 101.493 164.754 100.834 164.989C100.175 165.216 99.4134 165.33 98.5497 165.33ZM99.9361 161.989C100.648 161.989 101.277 161.848 101.822 161.568C102.368 161.28 102.796 160.894 103.107 160.409C103.417 159.924 103.572 159.375 103.572 158.761V156.909C103.421 157.008 103.213 157.098 102.947 157.182C102.69 157.258 102.398 157.33 102.072 157.398C101.747 157.458 101.421 157.515 101.095 157.568C100.769 157.614 100.474 157.655 100.209 157.693C99.6406 157.777 99.1444 157.909 98.7202 158.091C98.2959 158.273 97.9664 158.519 97.7315 158.83C97.4967 159.133 97.3793 159.511 97.3793 159.966C97.3793 160.625 97.6179 161.129 98.0952 161.477C98.58 161.818 99.1937 161.989 99.9361 161.989ZM99.4702 145.295L96.0043 140.125H100.47L102.891 145.295H99.4702ZM112.135 165V147.545H116.976V165H112.135ZM114.567 145.295C113.847 145.295 113.23 145.057 112.714 144.58C112.207 144.095 111.953 143.515 111.953 142.841C111.953 142.174 112.207 141.602 112.714 141.125C113.23 140.64 113.847 140.398 114.567 140.398C115.286 140.398 115.9 140.64 116.408 141.125C116.923 141.602 117.18 142.174 117.18 142.841C117.18 143.515 116.923 144.095 116.408 144.58C115.9 145.057 115.286 145.295 114.567 145.295ZM133.101 141.727V165H128.26V141.727H133.101ZM136.979 165V147.545H141.82V165H136.979ZM139.411 145.295C138.691 145.295 138.073 145.057 137.558 144.58C137.051 144.095 136.797 143.515 136.797 142.841C136.797 142.174 137.051 141.602 137.558 141.125C138.073 140.64 138.691 140.398 139.411 140.398C140.13 140.398 140.744 140.64 141.251 141.125C141.767 141.602 142.024 142.174 142.024 142.841C142.024 143.515 141.767 144.095 141.251 144.58C140.744 145.057 140.13 145.295 139.411 145.295ZM153.652 165.341C151.857 165.341 150.311 164.977 149.016 164.25C147.728 163.515 146.735 162.477 146.038 161.136C145.341 159.788 144.993 158.193 144.993 156.352C144.993 154.557 145.341 152.981 146.038 151.625C146.735 150.269 147.716 149.212 148.982 148.455C150.254 147.697 151.747 147.318 153.459 147.318C154.61 147.318 155.682 147.504 156.675 147.875C157.675 148.239 158.546 148.788 159.288 149.523C160.038 150.258 160.622 151.182 161.038 152.295C161.455 153.402 161.663 154.697 161.663 156.182V157.511H146.925V154.511H157.107C157.107 153.814 156.955 153.197 156.652 152.659C156.349 152.121 155.929 151.701 155.391 151.398C154.86 151.087 154.243 150.932 153.538 150.932C152.804 150.932 152.152 151.102 151.584 151.443C151.023 151.777 150.584 152.227 150.266 152.795C149.947 153.356 149.785 153.981 149.777 154.67V157.523C149.777 158.386 149.936 159.133 150.254 159.761C150.58 160.39 151.038 160.875 151.629 161.216C152.22 161.557 152.921 161.727 153.732 161.727C154.269 161.727 154.762 161.652 155.209 161.5C155.656 161.348 156.038 161.121 156.357 160.818C156.675 160.515 156.917 160.144 157.084 159.705L161.561 160C161.334 161.076 160.868 162.015 160.163 162.818C159.466 163.614 158.565 164.235 157.459 164.682C156.36 165.121 155.091 165.341 153.652 165.341ZM155.629 145.455L153.345 142.682L151.061 145.455H146.936V145.295L151.538 140.295H155.141L159.754 145.295V145.455H155.629ZM153.357 171.534C152.637 171.534 152.019 171.295 151.504 170.818C150.989 170.341 150.732 169.765 150.732 169.091C150.732 168.417 150.989 167.841 151.504 167.364C152.019 166.886 152.637 166.648 153.357 166.648C154.076 166.648 154.69 166.886 155.197 167.364C155.713 167.841 155.97 168.417 155.97 169.091C155.97 169.765 155.713 170.341 155.197 170.818C154.69 171.295 154.076 171.534 153.357 171.534ZM176.016 157.568V147.545H180.857V165H176.209V161.83H176.027C175.633 162.852 174.978 163.674 174.061 164.295C173.152 164.917 172.042 165.227 170.732 165.227C169.565 165.227 168.538 164.962 167.652 164.432C166.766 163.902 166.072 163.148 165.572 162.17C165.08 161.193 164.83 160.023 164.822 158.659V147.545H169.663V157.795C169.671 158.826 169.947 159.64 170.493 160.239C171.038 160.837 171.769 161.136 172.686 161.136C173.269 161.136 173.815 161.004 174.322 160.739C174.83 160.466 175.239 160.064 175.55 159.534C175.868 159.004 176.023 158.348 176.016 157.568Z" fill="white"/>
</svg>
