<svg width="256" height="260" viewBox="0 0 256 260" fill="none" xmlns="http://www.w3.org/2000/svg">
<path d="M3.80063 128.811L3.15828 130L3.80063 131.189L64.6437 243.772L65.3524 245.083H66.8431H188.529H190.02L190.729 243.772L251.572 131.189L252.214 130L251.572 128.811L190.729 16.2281L190.02 14.9167H188.529H66.8431H65.3524L64.6437 16.2281L3.80063 128.811Z" fill="#28559A" stroke="#7AC7FF" stroke-width="5"/>
<path d="M76.5 44.5H161.598L177.1 66.9345V131.1H76.5V44.5Z" fill="#28559A" stroke="white" stroke-width="3"/>
<path d="M171.311 165.316L170.928 165.054H170.463H89.9635H89.4785L89.0853 165.338L73.1976 176.813H48.5V131.874H206.5V176.813H188.113L171.311 165.316Z" fill="#28559A" stroke="white" stroke-width="3"/>
<rect x="101.865" y="166.245" width="51.2697" height="41.3202" fill="#7AC7FF" stroke="white" stroke-width="3"/>
<path d="M153.73 191.427H206.643V176.955" stroke="white" stroke-width="3"/>
<path d="M100.817 191.879H47.9045V177.407" stroke="white" stroke-width="3"/>
<path d="M178.601 109.57H207.095V131.73" stroke="white" stroke-width="3"/>
<path d="M76.3987 109.57H47.9045V131.73" stroke="white" stroke-width="3"/>
<path d="M112.822 180.559H142.784" stroke="white" stroke-width="3" stroke-linecap="round"/>
<path d="M112.124 195.497H142.086" stroke="white" stroke-width="3" stroke-linecap="round"/>
<path d="M58.0936 145.662H67.4305" stroke="white" stroke-width="3" stroke-linecap="round"/>
<path d="M78.6573 145.75H87.9942" stroke="white" stroke-width="3" stroke-linecap="round"/>
<path d="M171.733 145.907H201.341" stroke="white" stroke-width="3" stroke-linecap="round"/>
<path d="M106.898 109V82.8182H114.159V109H106.898ZM110.545 79.4432C109.466 79.4432 108.54 79.0852 107.767 78.3693C107.006 77.642 106.625 76.7727 106.625 75.7614C106.625 74.7614 107.006 73.9034 107.767 73.1875C108.54 72.4602 109.466 72.0966 110.545 72.0966C111.625 72.0966 112.545 72.4602 113.307 73.1875C114.08 73.9034 114.466 74.7614 114.466 75.7614C114.466 76.7727 114.08 77.642 113.307 78.3693C112.545 79.0852 111.625 79.4432 110.545 79.4432ZM127.237 93.8636V109H119.976V82.8182H126.896V87.4375H127.203C127.783 85.9148 128.754 84.7102 130.118 83.8239C131.482 82.9261 133.135 82.4773 135.078 82.4773C136.896 82.4773 138.482 82.875 139.834 83.6705C141.186 84.4659 142.237 85.6023 142.987 87.0795C143.737 88.5455 144.112 90.2955 144.112 92.3295V109H136.851V93.625C136.862 92.0227 136.453 90.7727 135.624 89.875C134.794 88.9659 133.652 88.5114 132.197 88.5114C131.22 88.5114 130.357 88.7216 129.607 89.142C128.868 89.5625 128.288 90.1761 127.868 90.983C127.459 91.7784 127.249 92.7386 127.237 93.8636Z" fill="white"/>
</svg>
